<?xml version="1.0" standalone="no"?>
<!DOCTYPE svg PUBLIC "-//W3C//DTD SVG 1.1//EN" "http://www.w3.org/Graphics/SVG/1.1/DTD/svg11.dtd" >
<svg xmlns="http://www.w3.org/2000/svg">
<metadata>Generated by IcoMoon</metadata>
<defs>
<font id="mad" horiz-adv-x="1024">
<font-face units-per-em="1024" ascent="960" descent="-64" />
<missing-glyph horiz-adv-x="1024" />
<glyph unicode="&#x20;" horiz-adv-x="512" d="" />
<glyph unicode="&#xe900;" glyph-name="Mouse-1" horiz-adv-x="624" d="M317.835 903.153c136.157 0 247.027-110.871 247.027-247.027v-416.251c0-136.157-110.871-247.027-247.027-247.027h-9.725c-136.157 0-247.027 110.871-247.027 247.027v416.251c0 136.157 110.871 247.027 247.027 247.027h9.725zM317.835 944.001h-9.725c-157.553 0-287.875-130.322-287.875-287.875v-416.251c0-157.553 130.322-287.875 287.875-287.875h7.78c157.553 0 287.875 130.322 287.875 287.875v416.251c0 157.553-128.377 287.875-285.929 287.875v0zM432.566 345.161l-120.467-118.719-118.605 118.605-27.505-27.505 145.92-145.92 147.972 145.807z" />
<glyph unicode="&#xe901;" glyph-name="youtube" d="M595.212 285.192c-2.412 0-6.030 0-9.648-2.412-3.618-1.206-6.030-3.618-9.648-7.236v-139.895c3.618-3.618 7.236-6.030 10.854-8.442 3.618-1.206 7.236-2.412 10.854-2.412 6.030 0 9.648 1.206 12.060 4.824 2.412 2.412 3.618 8.442 3.618 15.678v118.187c0 7.236-1.206 13.266-4.824 16.884-2.412 3.618-7.236 4.824-13.266 4.824zM749.579 285.192c-7.236 0-12.060-2.412-15.678-6.030s-4.824-10.854-4.824-19.295v-22.914h39.798v22.914c0 8.442-1.206 15.678-4.824 19.295-2.412 3.618-7.236 6.030-14.472 6.030zM862.942 452.824h-703.090c-77.183 0-141.101-63.917-141.101-141.101v-143.512c0-77.183 63.917-141.101 141.101-141.101h704.296c77.183 0 141.101 62.711 141.101 141.101v143.512c-1.206 78.389-65.123 141.101-142.306 141.101zM349.191 353.933h-53.064v-259.287h-50.652v259.287h-51.858v44.622h155.573v-44.622zM497.527 94.646h-44.622v24.12c-8.442-9.648-16.884-16.884-25.326-20.502-8.442-4.824-16.884-7.236-25.326-7.236-10.854 0-18.090 3.618-24.12 10.854-4.824 6.030-7.236 16.884-7.236 30.15v186.928h42.209v-172.456c0-4.824 1.206-8.442 3.618-10.854 1.206-2.412 4.824-3.618 8.442-3.618s7.236 1.206 12.060 4.824c6.030 3.618 9.648 7.236 13.266 12.060v170.045h47.034v-224.314zM660.336 140.473c0-15.678-3.618-27.738-10.854-37.386-7.236-8.442-16.884-13.266-30.15-13.266-8.442 0-16.884 1.206-22.914 4.824-7.236 3.618-13.266 8.442-19.295 15.678v-15.678h-44.622v303.909h44.622v-97.686c6.030 6.030 12.060 12.060 19.295 15.678s14.472 6.030 20.502 6.030c14.472 0 25.326-4.824 32.562-14.472s10.854-22.914 10.854-42.209v-125.423zM815.908 200.772h-85.625v-42.209c0-12.060 1.206-20.502 3.618-24.12 2.412-4.824 8.442-7.236 15.678-7.236s12.060 2.412 15.678 6.030c2.412 3.618 4.824 12.060 4.824 25.326v10.854h47.034v-10.854c0-22.914-6.030-41.003-16.884-51.858-10.854-12.060-27.738-16.884-50.652-16.884-20.502 0-36.18 6.030-48.239 18.090-10.854 12.060-16.884 28.944-16.884 50.652v100.097c0 19.295 6.030 34.973 19.295 48.239 12.060 12.060 28.944 18.090 49.445 18.090s36.18-6.030 47.034-16.884 16.884-27.738 16.884-48.239v-59.094h-1.206zM559.033 768.793c-13.266 12.060-31.356 18.090-51.858 18.090-22.914 0-41.003-6.030-55.475-16.884-13.266-10.854-20.502-26.531-20.502-45.828v-127.834c0-21.708 7.236-37.386 19.295-50.652 13.266-12.060 31.356-19.295 53.064-19.295 22.914 0 41.003 6.030 54.27 18.090s19.295 27.738 19.295 49.445v129.041c1.206 19.295-6.030 34.973-18.090 45.828zM526.471 591.512c0-6.030-2.412-10.854-6.030-15.678-3.618-3.618-9.648-6.030-16.884-6.030-6.030 0-12.060 2.412-15.678 6.030s-6.030 8.442-6.030 15.678v135.070c0 4.824 2.412 9.648 6.030 13.266s8.442 4.824 14.472 4.824 12.060-1.206 16.884-4.824c3.618-2.412 6.030-7.236 6.030-13.266l1.206-135.070zM619.333 780.853h50.652v-189.34c0-6.030 1.206-9.648 3.618-13.266 2.412-2.412 6.030-3.618 9.648-3.618s8.442 2.412 14.472 6.030 10.854 8.442 15.678 13.266v186.928h50.652v-247.228h-50.652v27.738c-9.648-10.854-19.295-18.090-28.944-22.914-10.854-4.824-19.295-7.236-30.15-7.236s-20.502 3.618-26.531 10.854c-6.030 7.236-8.442 18.090-8.442 33.767v205.018zM293.715 868.89l37.386-133.865h3.618l34.973 133.865h57.887l-66.33-195.37v-139.895h-56.681v132.659l-67.536 202.606z" />
<glyph unicode="&#xe902;" glyph-name="pinterest" horiz-adv-x="816" d="M431.468 944.001c-270.502 0-407.606-193.921-407.606-355.729 0-97.578 37.055-185.275 117.341-217.39 13.587-4.941 24.703 0 28.409 14.822 2.47 9.881 8.646 35.82 11.116 45.702 3.705 14.822 2.47 19.763-8.646 32.114-23.468 27.173-37.055 61.759-37.055 112.4 0 144.515 107.46 272.972 280.383 272.972 153.161 0 237.153-93.873 237.153-218.626 0-164.278-72.875-302.617-180.335-302.617-59.288 0-103.754 49.407-90.167 109.93 17.292 71.64 50.642 150.691 50.642 202.568 0 46.937-24.703 85.227-76.581 85.227-60.524 0-109.93-62.994-109.93-146.986 0-54.348 18.527-90.167 18.527-90.167s-62.994-268.032-74.11-313.734c-22.233-92.638-3.705-205.038-1.235-216.155 1.235-6.176 9.881-8.646 13.587-3.705 6.176 7.411 77.816 97.578 102.519 186.511 7.411 25.938 39.525 156.867 39.525 156.867 19.763-38.29 77.816-71.64 139.575-71.64 182.805 0 307.558 166.748 307.558 390.314 0 169.218-143.28 327.32-360.67 327.32z" />
<glyph unicode="&#xe903;" glyph-name="facebook" horiz-adv-x="512" d="M16.667 616h102.666v100c0 44 1.333 112 33.334 153.334 33.334 44 80 74.666 158.667 74.666 129.333 0 184-18.667 184-18.667l-25.334-152c0 0-42.667 12-82.666 12s-76-14.667-76-54.667v-116h162.667l-12-148h-150.667v-514.667h-192v516h-102.666v148z" />
<glyph unicode="&#xe904;" glyph-name="instagram" horiz-adv-x="992" d="M496 841.879c127.915 0 143.114 0 193.773-2.534 46.86-2.534 72.191-10.131 88.655-16.464 22.797-8.865 37.995-18.998 55.725-35.462 16.464-16.464 26.595-32.928 35.462-55.725 6.333-16.464 13.932-41.794 16.464-88.655 2.534-50.659 2.534-65.858 2.534-193.773s0-143.114-2.534-193.773c-2.534-46.86-10.131-72.191-16.464-88.655-8.865-22.797-18.998-37.995-35.462-55.725-16.464-16.464-32.928-26.595-55.725-35.462-16.464-6.333-41.794-13.932-88.655-16.464-50.659-2.534-65.858-2.534-193.773-2.534s-143.114 0-193.773 2.534c-46.86 2.534-72.191 10.131-88.655 16.464-22.797 8.865-37.995 18.998-55.725 35.462-16.464 16.464-26.595 32.928-35.462 55.725-6.333 16.464-13.932 41.794-16.464 88.655-2.534 49.394-2.534 64.591-2.534 192.506s0 143.114 2.534 193.773c2.534 46.86 10.131 72.191 16.464 88.655 8.865 22.797 18.998 37.995 35.462 55.725 16.464 16.464 32.928 26.595 55.725 35.462 16.464 6.333 41.794 13.932 88.655 16.464 50.659 2.534 65.858 3.799 193.773 3.799zM496 928c-130.449 0-146.913 0-197.572-2.534s-86.121-10.131-116.517-22.797c-31.663-12.665-58.258-29.129-84.855-55.725s-43.061-53.193-55.725-84.855c-11.398-30.396-20.265-65.858-22.797-116.517s-2.534-67.125-2.534-197.572 0-146.913 2.534-197.572 10.131-86.121 22.797-116.517c12.665-31.663 29.129-58.258 55.725-84.855s53.193-43.061 84.855-55.725c30.396-11.398 65.858-20.265 116.517-22.797s67.125-2.534 197.572-2.534 146.913 0 197.572 2.534 86.121 10.131 116.517 22.797c31.663 12.665 58.258 29.129 84.855 55.725s43.061 53.193 55.725 84.855c11.398 30.396 20.265 65.858 22.797 116.517s2.534 67.125 2.534 197.572 0 146.913-2.534 197.572-10.131 86.121-22.797 116.517c-12.665 31.663-29.129 58.258-55.725 84.855s-53.193 43.061-84.855 55.725c-30.396 11.398-65.858 20.265-116.517 22.797s-67.125 2.534-197.572 2.534v0zM496 694.966c-135.515 0-245.699-110.184-245.699-245.699s110.184-246.966 245.699-246.966 245.699 110.184 245.699 245.699-108.917 246.966-245.699 246.966zM496 288.422c-88.655 0-159.578 72.191-159.578 159.578s72.191 160.845 159.578 160.845 159.578-72.191 159.578-159.578-70.924-160.845-159.578-160.845zM808.824 703.83c0-31.476-25.516-56.992-56.992-56.992s-56.992 25.516-56.992 56.992c0 31.476 25.516 56.992 56.992 56.992s56.992-25.516 56.992-56.992z" />
<glyph unicode="&#xe905;" glyph-name="arrow-down" horiz-adv-x="992" d="M496.001 290.25v0l-427.38 427.38-55.94-55.94 483.319-483.319 483.319 483.319-55.94 55.94z" />
<glyph unicode="&#xe906;" glyph-name="phone" horiz-adv-x="805" d="M804.571 251.429c0-20.571-9.143-60.571-17.714-79.429-12-28-44-46.286-69.714-60.571-33.714-18.286-68-29.143-106.286-29.143-53.143 0-101.143 21.714-149.714 39.429-34.857 12.571-68.571 28-100 47.429-97.143 60-214.286 177.143-274.286 274.286-19.429 31.429-34.857 65.143-47.429 100-17.714 48.571-39.429 96.571-39.429 149.714 0 38.286 10.857 72.571 29.143 106.286 14.286 25.714 32.571 57.714 60.571 69.714 18.857 8.571 58.857 17.714 79.429 17.714 4 0 8 0 12-1.714 12-4 24.571-32 30.286-43.429 18.286-32.571 36-65.714 54.857-97.714 9.143-14.857 26.286-33.143 26.286-50.857 0-34.857-103.429-85.714-103.429-116.571 0-15.429 14.286-35.429 22.286-49.143 57.714-104 129.714-176 233.714-233.714 13.714-8 33.714-22.286 49.143-22.286 30.857 0 81.714 103.429 116.571 103.429 17.714 0 36-17.143 50.857-26.286 32-18.857 65.143-36.571 97.714-54.857 11.429-5.714 39.429-18.286 43.429-30.286 1.714-4 1.714-8 1.714-12z" />
<glyph unicode="&#xe907;" glyph-name="search1" horiz-adv-x="1031" d="M1016.384 26.949l-208.78 208.78c56.742 72.92 90.973 165.8 90.973 266.675 0 0.025 0 0.050 0 0.076v-0.004c0.001 0.398 0.002 0.869 0.002 1.341 0 244.1-197.882 441.982-441.982 441.982s-441.982-197.882-441.982-441.982c0-244.1 197.882-441.982 441.982-441.982 104.868 0 201.207 36.522 276.988 97.542l-0.853-0.664 207.708-208.512zM124.637 502.476c0 184.076 149.223 333.298 333.298 333.298s333.298-149.223 333.298-333.298c0-184.076-149.223-333.298-333.298-333.298v0c-184.015 0.153-333.145 149.284-333.298 333.284v0.015z" />
<glyph unicode="&#xe908;" glyph-name="mad_logo" horiz-adv-x="3840" d="M673.525 114.111h-3.845v-13.458h3.204c0 3.845 0.641 8.331 0.641 13.458zM1288.752 114.111l-257.626 676.749h-22.43l-38.452-102.538c5.127-14.74 8.331-25.634 8.331-25.634v0l103.179-272.366h-185.209l-3.204-13.458h193.54l99.333-262.753h-105.101v-13.458h291.592v13.458h-83.953zM666.476 760.74h0.641v13.458h-104.46l-174.955-508.844h-1.923l-174.955 508.844h-212.766v-13.458h105.101v-646.629h-105.101v-13.458h224.301v13.458h-105.101v634.453h1.923l224.942-649.192 226.224 655.601h1.923v-640.861h-105.101v-13.458h304.409v13.458h-105.101zM1411.797 487.733h25.634v173.033h-25.634v3.845h51.91l42.297-135.863h0.641l42.297 135.863h50.628v-3.845h-25.634v-173.033h25.634v-3.845h-73.699v3.845h25.634v171.11h-0.641l-55.114-174.955-54.473 173.033h-0.641v-169.187h25.634v-3.845h-54.473v3.845zM1621.359 487.733h20.508l62.164 180.723h5.768l62.164-180.723h20.508v-3.845h-70.495v3.845h25.634l-24.353 70.495h-53.191l-24.353-70.495h25.634v-3.845h-49.346v3.845zM1696.339 635.131l-24.994-73.699h50.628l-25.634 73.699zM1814.899 487.733h25.634v173.033h-25.634v3.845h43.579c1.923 0 3.845 0 5.768 0s3.845 0 5.768 0.641c1.923 0 3.845 0 5.768 0s3.845 0 5.768 0c8.972 0 17.303-0.641 23.712-1.923 7.049-1.282 13.458-4.486 19.226-9.613 5.127-4.486 8.972-9.613 11.536-15.381 1.923-5.768 3.204-10.895 3.204-16.022 0-2.563-0.641-5.768-1.282-9.613s-2.563-7.69-5.768-12.176c-2.563-3.845-7.049-7.69-12.176-11.536-5.127-3.204-12.176-5.768-21.148-7.049v-0.641c2.563-0.641 5.768-1.282 10.254-1.923s8.331-2.563 12.817-4.486c4.486-1.923 8.331-5.127 12.176-8.972s6.409-8.331 7.69-14.099c0.641-3.204 1.282-7.049 1.923-11.536s0.641-8.972 0.641-13.458 0.641-8.972 0.641-12.817c0-4.486 0.641-7.69 1.282-10.895 0.641-4.486 2.563-8.331 4.486-12.176s5.127-5.127 9.613-5.127c1.923 0 3.845 0.641 6.409 1.282 1.923 0.641 3.845 1.923 5.768 3.845l1.923-2.563c-0.641-0.641-1.923-1.282-2.563-1.923-1.282-0.641-2.563-1.282-3.845-1.923s-3.204-1.282-5.768-1.923c-1.923-0.641-5.127-0.641-8.331-0.641-6.409 0-11.536 0.641-15.381 2.563s-7.049 4.486-9.613 7.69-4.486 7.049-5.127 12.176c-1.282 4.486-1.923 10.254-2.563 16.662l-1.923 23.071c-0.641 8.331-1.923 14.74-4.486 19.867-2.563 4.486-5.127 8.331-8.331 10.254s-6.409 3.204-10.254 3.845c-3.204 0.641-6.409 0.641-8.972 0.641h-23.071v-91.002h25.634v-3.845h-73.699v3.845zM1862.963 582.581h21.148c4.486 0 8.331 0.641 11.536 1.923s6.409 3.204 8.972 6.409c2.563 3.204 4.486 7.049 5.768 12.176s1.923 11.536 1.923 19.226c0 8.972-1.282 16.022-3.204 21.148s-4.486 9.613-8.331 12.176c-3.204 2.563-7.049 4.486-10.895 5.127s-8.331 1.282-12.176 1.282c-2.563 0-5.768 0-8.331 0s-5.127 0-7.049-0.641v-78.826zM1996.262 487.733h25.634v173.033h-25.634v3.845h71.776v-3.845h-23.712v-80.108h2.563l69.213 80.108h-23.071v3.845h47.424v-3.845h-19.226l-58.318-67.931 83.312-105.101h15.381v-3.845h-66.65v3.845h20.508l-68.572 89.080h-1.923v-89.080h23.712v-3.845h-71.776v3.845zM2234.663 487.733h20.508l62.164 180.723h5.768l62.164-180.723h20.508v-3.845h-70.495v3.845h25.634l-24.353 70.495h-53.191l-24.353-70.495h25.634v-3.845h-49.346v3.845zM2309.644 635.131l-24.994-73.699h50.628l-25.634 73.699zM2428.203 487.733h25.634v173.033h-25.634v3.845h73.699v-3.845h-25.634v-173.033h41.015c13.458 0 24.353 4.486 31.402 14.099 7.69 8.972 13.458 21.789 16.662 37.811h2.563v-55.114h-140.349v3.204zM2596.108 487.733h25.634v173.033h-25.634v3.845h131.377v-43.579h-2.563c-1.923 6.409-3.845 12.176-6.409 17.303s-5.127 8.972-8.331 12.817c-3.204 3.204-7.049 5.768-11.536 7.69s-9.613 2.563-16.022 2.563h-37.811v-78.826h14.74c5.127 0 9.613 0.641 12.817 1.282 3.204 1.282 6.409 3.204 8.972 5.768s4.486 6.409 6.409 11.536c1.923 4.486 3.204 10.895 5.127 18.585h2.563v-78.826h-2.563c-1.282 5.127-1.923 9.613-3.204 14.099s-2.563 8.331-5.127 12.176c-1.923 3.845-5.127 6.409-8.331 8.331s-7.69 3.204-13.458 3.204h-18.585v-91.002h43.579c8.331 0 15.381 1.923 21.148 5.768s10.254 8.972 13.458 14.099c3.204 5.768 6.409 10.895 7.69 17.303 1.923 5.768 2.563 10.895 3.204 14.74h2.563v-55.114h-140.349v3.204zM2765.937 487.733h21.789l46.142 84.594-48.705 88.439h-19.226v3.845h68.572v-3.845h-21.789l36.529-66.65 36.529 66.65h-21.789v3.845h48.065v-3.845h-21.789l-38.452-69.854 57.037-102.538h19.226v-3.845h-68.572v3.845h21.789l-44.86 80.749-44.86-81.389h21.789v-3.845h-47.424v3.845zM2949.864 487.733h20.508l62.164 180.723h5.768l62.164-180.723h20.508v-3.845h-70.495v3.845h25.634l-24.353 70.495h-53.191l-24.353-70.495h25.634v-3.845h-49.346v3.845zM3024.204 635.131l-24.994-73.699h50.628l-25.634 73.699zM3142.122 487.733h25.634v173.033h-25.634v3.845h49.346l77.544-137.785h0.641v133.94h-25.634v3.845h54.473v-3.845h-25.634v-180.082h-4.486l-96.77 169.187h-0.641v-162.138h25.634v-3.845h-54.473v3.845zM3323.486 487.733h25.634v173.033h-25.634v3.845h42.938c1.923 0 4.486 0 6.409 0s4.486 0 6.409 0.641c1.923 0 4.486 0 6.409 0s4.486 0 6.409 0 8.972 0 12.176 0c3.845 0 7.049-0.641 10.254-0.641 3.204-0.641 6.409-1.282 8.972-1.923s5.768-1.923 8.972-3.204c9.613-3.204 17.303-7.69 24.353-13.458s12.176-12.176 16.662-19.867c4.486-7.69 7.69-15.381 9.613-24.353s3.204-17.944 3.204-27.557c0-10.895-1.282-21.148-3.845-30.12s-5.768-16.662-10.254-23.712-9.613-12.817-14.74-17.944c-5.768-5.127-12.176-8.972-18.585-12.176-3.845-1.923-7.049-3.204-10.254-4.486s-6.409-1.923-10.254-2.563c-3.204-0.641-7.049-0.641-11.536-1.282-3.845 0-8.972 0-14.099 0-2.563 0-4.486 0-7.049 0s-5.127 0-7.69 0.641c-2.563 0-5.127 0-7.69 0.641-2.563 0-5.127 0-7.049 0h-39.733v4.486zM3371.55 487.733c2.563-0.641 5.768-0.641 8.972-0.641s7.049 0 11.536 0c5.127 0 10.254 0 15.381 0.641s10.254 1.923 14.74 3.845c4.486 1.923 8.972 4.486 12.817 8.331s7.69 8.331 10.895 14.099c5.127 8.972 8.331 18.585 10.254 28.198s2.563 19.867 2.563 31.402c0 13.458-1.282 25.634-3.204 36.529-2.563 10.895-5.768 19.867-11.536 27.557-5.127 7.69-12.176 13.458-21.148 17.944s-19.226 6.409-32.684 6.409c-3.845 0-7.049 0-10.254 0s-6.409-0.641-8.972-0.641v-173.673zM3508.695 487.733h25.634v173.033h-25.634v3.845h131.377v-43.579h-2.563c-1.923 6.409-3.845 12.176-6.409 17.303s-5.127 8.972-8.331 12.817c-3.204 3.204-7.049 5.768-11.536 7.69s-9.613 2.563-16.022 2.563h-37.811v-78.826h14.74c5.127 0 9.613 0.641 12.817 1.282 3.204 1.282 6.409 3.204 8.972 5.768s4.486 6.409 6.409 11.536c1.923 4.486 3.204 10.895 5.127 18.585h2.563v-78.826h-2.563c-1.282 5.127-1.923 9.613-3.204 14.099s-2.563 8.331-5.127 12.176c-1.923 3.845-5.127 6.409-8.331 8.331s-7.69 3.204-13.458 3.204h-18.585v-91.002h43.579c8.331 0 15.381 1.923 21.148 5.768s10.254 8.972 13.458 14.099c3.204 5.768 6.409 10.895 7.69 17.303 1.923 5.768 2.563 10.895 3.204 14.74h2.563v-55.114h-140.349v3.204zM3678.523 487.733h25.634v173.033h-25.634v3.845h43.579c1.923 0 3.845 0 5.768 0s3.845 0 5.768 0.641c1.923 0 3.845 0 5.768 0s3.845 0 5.768 0c8.972 0 17.303-0.641 23.712-1.923 7.049-1.282 13.458-4.486 19.226-9.613 5.127-4.486 8.972-9.613 11.536-15.381 1.923-5.768 3.204-10.895 3.204-16.022 0-2.563-0.641-5.768-1.282-9.613s-2.563-7.69-5.768-12.176c-2.563-3.845-7.049-7.69-12.176-11.536-5.127-3.204-12.176-5.768-21.148-7.049v-0.641c2.563-0.641 5.768-1.282 10.254-1.923s8.331-2.563 12.817-4.486c4.486-1.923 8.331-5.127 12.176-8.972s6.409-8.331 7.69-14.099c0.641-3.204 1.282-7.049 1.923-11.536s0.641-8.972 0.641-13.458 0.641-8.972 0.641-12.817c0-4.486 0.641-7.69 1.282-10.895 0.641-4.486 2.563-8.331 4.486-12.176s5.127-5.127 9.613-5.127c1.923 0 3.845 0.641 6.409 1.282 1.923 0.641 3.845 1.923 5.768 3.845l1.923-2.563c-0.641-0.641-1.923-1.282-2.563-1.923-1.282-0.641-2.563-1.282-3.845-1.923s-3.204-1.282-5.768-1.923c-1.923-0.641-5.127-0.641-8.331-0.641-6.409 0-11.536 0.641-15.381 2.563s-7.049 4.486-9.613 7.69-4.486 7.049-5.127 12.176c-1.282 4.486-1.923 10.254-2.563 16.662l-1.923 23.071c-0.641 8.331-1.923 14.74-4.486 19.867-2.563 4.486-5.127 8.331-8.331 10.254s-6.409 3.204-10.254 3.845c-3.204 0.641-6.409 0.641-8.972 0.641h-23.712v-91.002h25.634v-3.845h-73.699v3.845zM3727.228 582.581h21.148c4.486 0 8.331 0.641 11.536 1.923s6.409 3.204 8.972 6.409c2.563 3.204 4.486 7.049 5.768 12.176s1.923 11.536 1.923 19.226c0 8.972-1.282 16.022-3.204 21.148s-4.486 9.613-8.331 12.176c-3.204 2.563-7.049 4.486-10.895 5.127s-8.331 1.282-12.176 1.282c-2.563 0-5.768 0-8.331 0s-5.127 0-7.049-0.641v-78.826zM1652.761 210.241h21.148v143.553h-21.148v3.204h35.247c1.923 0 3.845 0 5.127 0 1.923 0 3.845 0 5.127 0 1.923 0 3.845 0 5.127 0 1.923 0 3.845 0 5.127 0 3.845 0 7.049 0 10.254 0s5.768-0.641 8.331-0.641c2.563-0.641 5.127-0.641 7.69-1.282s5.127-1.282 7.69-2.563c7.69-2.563 14.74-6.409 19.867-11.536 5.768-4.486 10.254-10.254 14.099-16.022 3.845-6.409 6.409-12.817 7.69-19.867 1.923-7.049 2.563-14.74 2.563-23.071 0-8.972-1.282-17.303-3.204-24.994-1.923-7.049-5.127-14.099-8.331-19.226-3.845-5.768-7.69-10.254-12.176-14.74-4.486-3.845-9.613-7.69-15.381-10.254-3.204-1.282-5.768-2.563-8.972-3.845-2.563-0.641-5.768-1.282-8.331-1.923s-5.768-0.641-9.613-0.641c-3.204 0-7.049 0-11.536 0-1.923 0-3.845 0-6.409 0-1.923 0-4.486 0-6.409 0s-4.486 0-6.409 0c-1.923 0-3.845 0-5.768 0h-32.684v3.845zM1693.135 210.241c1.923 0 4.486-0.641 7.69-0.641 2.563 0 5.768 0 9.613 0 4.486 0 8.331 0 12.817 0.641s8.331 1.282 12.176 3.204c3.845 1.282 7.69 3.845 10.895 7.049s6.409 7.049 8.972 11.536c3.845 7.69 7.049 15.381 8.331 23.071s2.563 16.662 2.563 25.634c0 10.895-0.641 21.148-2.563 30.12s-5.127 16.662-9.613 23.071c-4.486 6.409-10.254 11.536-17.303 14.74s-16.022 5.127-26.916 5.127c-3.204 0-5.768 0-8.972 0-2.563 0-5.127 0-7.69-0.641v-142.912zM1805.286 210.241h21.148v143.553h-21.148v3.204h108.946v-36.529h-1.923c-1.923 5.768-3.204 10.254-5.127 14.099s-4.486 7.69-7.049 10.254c-2.563 2.563-5.768 5.127-9.613 6.409s-8.331 1.923-13.458 1.923h-31.402v-64.727h12.176c4.486 0 7.69 0.641 10.895 1.282s5.127 2.563 7.69 4.486c1.923 2.563 3.845 5.127 5.127 9.613 1.282 3.845 3.204 8.972 4.486 15.381h1.923v-65.368h-1.923c-0.641 3.845-1.923 7.69-2.563 11.536s-2.563 7.049-3.845 10.254c-1.923 3.204-3.845 5.127-7.049 7.049-2.563 1.923-6.409 2.563-10.895 2.563h-15.381v-75.622h35.888c7.049 0 12.817 1.923 17.303 5.127s8.331 7.049 11.536 11.536c3.204 4.486 5.127 8.972 6.409 14.099s2.563 8.972 2.563 12.176h1.923v-46.142h-115.996v3.845zM1952.684 252.537h1.923c1.282-7.69 3.204-14.099 5.127-19.226s4.486-9.613 7.049-12.817 5.768-5.768 8.331-7.69c3.204-1.923 5.768-3.204 8.972-3.845s5.768-1.282 8.331-1.282c2.563 0 5.127 0 7.69 0 7.049 0 12.176 1.282 16.662 3.204s7.69 5.127 10.254 8.331 4.486 7.049 5.127 10.895c1.282 3.845 1.282 7.69 1.282 10.895 0 5.127-0.641 8.972-2.563 12.817-1.923 3.204-3.845 6.409-6.409 8.972s-5.127 4.486-8.331 5.768c-3.204 1.282-5.768 2.563-8.331 3.845l-21.789 7.049c-10.254 3.204-17.944 8.331-23.071 14.099s-7.69 13.458-7.69 23.071c0 6.409 1.282 12.176 3.204 17.303s5.127 10.254 8.331 14.099 8.331 7.049 13.458 8.972 10.895 3.204 16.662 3.204c4.486 0 8.331-0.641 10.895-1.282s5.768-1.923 7.69-2.563c1.923-1.282 3.845-1.923 5.768-2.563s3.204-1.282 5.127-1.282c1.923 0 2.563 0 3.204 0.641s1.282 1.923 2.563 3.845h2.563v-37.811h-2.563c-0.641 5.127-1.923 9.613-3.845 14.74-1.923 4.486-4.486 8.972-7.049 12.176-3.204 3.845-6.409 6.409-10.895 8.331-3.845 1.923-8.972 3.204-14.099 3.204-3.204 0-6.409-0.641-10.254-1.282s-7.049-2.563-10.254-4.486c-3.204-1.923-5.768-5.127-7.69-8.972s-3.204-8.331-3.204-14.099c0-4.486 0.641-8.331 2.563-11.536s3.845-5.768 6.409-7.69c2.563-1.923 5.768-3.845 8.972-5.768 3.204-1.282 6.409-2.563 9.613-3.845l23.071-7.69c2.563-0.641 5.768-1.923 8.972-3.204s7.049-3.204 10.895-6.409c3.204-2.563 6.409-6.409 8.972-10.895s3.845-10.254 3.845-17.303c0-6.409-1.282-12.817-3.204-18.585s-5.127-10.895-9.613-16.022c-4.486-4.486-8.972-8.331-15.381-10.895-5.768-2.563-12.817-3.845-20.508-3.845-2.563 0-5.127 0-7.049 0s-3.845 0-5.768 0.641c-1.923 0-3.845 0.641-5.127 0.641-1.923 0.641-3.845 0.641-5.768 1.282-2.563 0.641-5.127 1.923-8.331 3.204s-5.768 1.923-7.69 1.923c-1.923 0-3.204-0.641-3.845-1.282s-1.282-1.923-1.923-3.204h-2.563v44.219zM2068.039 210.241h21.148v143.553h-21.148v3.204h61.523v-3.204h-21.148v-143.553h21.148v-3.204h-61.523v3.204zM2280.164 260.869h-15.381v-47.424h-2.563c-1.282 1.282-2.563 2.563-3.204 3.204s-2.563 0.641-4.486 0.641c-2.563 0-4.486-0.641-7.049-1.923s-5.127-2.563-8.331-4.486c-3.204-1.923-7.049-3.204-10.895-4.486s-8.972-1.923-15.381-1.923c-8.972 0-17.303 1.923-23.712 5.127-7.049 3.204-13.458 8.331-20.508 15.381-6.409 7.049-11.536 15.381-16.022 24.994s-6.409 20.508-6.409 32.043c0 7.69 0.641 15.381 2.563 21.789s3.845 12.176 5.768 16.662c2.563 4.486 4.486 8.972 7.049 12.176s4.486 5.768 6.409 7.69c5.768 6.409 12.176 11.536 19.867 15.381 7.049 3.845 16.022 5.768 24.994 5.768 5.127 0 8.972-0.641 12.176-1.282s5.768-1.923 8.331-2.563c2.563-1.282 4.486-1.923 6.409-2.563s3.845-1.282 6.409-1.282c2.563 0 4.486 0.641 5.127 1.282 1.282 0.641 1.923 1.923 3.204 3.204h2.563v-41.656h-1.923c-0.641 3.845-1.282 7.69-3.204 12.817s-3.845 9.613-7.049 14.099c-3.204 4.486-7.049 8.331-12.176 11.536s-11.536 4.486-19.867 4.486c-9.613 0-17.303-1.923-23.071-6.409s-10.254-10.254-13.458-17.303c-3.204-7.049-5.127-15.381-6.409-24.353s-1.923-17.944-1.923-27.557c0-6.409 0-12.817 0.641-18.585s1.282-12.176 2.563-17.944c1.282-5.768 3.204-10.895 5.127-15.381s5.127-8.972 8.331-12.176c3.845-3.845 7.69-6.409 11.536-7.69s9.613-1.923 16.022-1.923c3.845 0 7.69 0.641 11.536 1.923s7.69 3.845 10.895 6.409c3.204 3.204 5.768 6.409 7.69 11.536 1.923 4.486 3.204 9.613 3.204 16.022v17.303h-24.353v3.204h58.318v-5.768zM2291.059 210.241h21.148v143.553h-21.148v3.204h41.015l64.727-114.073h0.641v111.51h-21.148v3.204h44.86v-3.204h-21.148v-149.962h-3.845l-80.108 140.349h-0.641v-134.581h21.148v-3.204h-44.86v3.204zM2483.317 210.241h16.662l51.269 149.962h4.486l51.91-149.962h16.662v-3.204h-58.959v3.204h21.148l-19.226 58.318h-44.219l-19.867-58.318h21.148v-3.204h-41.015v3.204zM2544.84 332.645l-21.148-60.882h41.656l-20.508 60.882zM2642.25 210.241h21.148v143.553h-21.148v3.204h35.888c1.282 0 3.204 0 4.486 0s3.204 0 4.486 0c1.282 0 3.204 0 4.486 0s3.204 0 4.486 0c7.69 0 14.099-0.641 19.867-1.282s10.895-3.845 16.022-7.69c4.486-3.845 7.69-8.331 9.613-12.817s2.563-8.972 2.563-13.458c0-1.923-0.641-4.486-1.282-8.331-0.641-3.204-1.923-6.409-4.486-10.254-2.563-3.204-5.768-6.409-10.254-9.613-4.486-2.563-10.254-4.486-17.944-5.768v-0.641c1.923 0 4.486-0.641 8.331-1.282 3.204-0.641 7.049-1.923 10.895-3.845s7.049-4.486 10.254-7.049 5.127-7.049 6.409-11.536c0.641-2.563 1.282-5.768 1.923-9.613 0-3.845 0.641-7.049 0.641-10.895s0.641-7.69 0.641-10.895c0-3.204 0.641-6.409 1.282-8.972 0.641-3.845 1.923-7.049 3.845-9.613 1.923-3.204 4.486-4.486 7.69-4.486 1.923 0 3.204 0.641 5.127 1.282s3.204 1.923 4.486 3.204l1.923-2.563c-0.641-0.641-1.282-1.282-1.923-1.923s-1.923-1.282-3.204-1.923-2.563-1.282-4.486-1.282c-1.923-0.641-3.845-0.641-7.049-0.641-5.127 0-9.613 0.641-12.817 1.923s-5.768 3.204-8.331 6.409c-1.923 2.563-3.204 5.768-4.486 10.254-0.641 3.845-1.923 8.331-1.923 14.099l-1.282 19.226c-0.641 7.049-1.923 12.176-3.845 16.662-1.923 3.845-4.486 7.049-7.049 8.331-2.563 1.923-5.768 3.204-8.331 3.204s-5.768 0.641-7.69 0.641h-19.226v-75.622h21.148v-3.204h-61.523v3.204zM2682.625 289.066h17.303c3.845 0 7.049 0.641 9.613 1.282s5.127 2.563 7.69 5.127c1.923 2.563 3.845 5.768 5.127 10.254s1.923 9.613 1.923 16.022c0 7.049-0.641 12.817-2.563 17.303s-3.845 7.69-6.409 10.254c-2.563 1.923-5.768 3.845-8.972 4.486s-6.409 1.282-10.254 1.282c-2.563 0-4.486 0-7.049 0s-4.486 0-5.768-0.641v-65.368zM2805.029 210.241h21.148v143.553h-10.895c-2.563 0-5.127 0-8.331-0.641s-6.409-1.923-9.613-3.845c-3.204-1.923-6.409-5.768-9.613-10.895s-5.768-11.536-7.69-19.867h-1.923v38.452h115.996v-38.452h-1.923c-1.923 8.331-4.486 15.381-7.69 19.867-3.204 5.127-6.409 8.331-9.613 10.895-3.204 1.923-6.409 3.845-9.613 3.845-3.204 0.641-5.768 0.641-8.331 0.641h-10.895v-143.553h21.148v-3.204h-61.523v3.204zM2914.616 210.241h21.148v143.553h-21.148v3.204h61.523v-3.204h-21.148v-143.553h21.148v-3.204h-61.523v3.204zM3000.492 252.537h1.923c1.282-7.69 3.204-14.099 5.127-19.226s4.486-9.613 7.049-12.817 5.768-5.768 8.331-7.69c3.204-1.923 5.768-3.204 8.972-3.845s5.768-1.282 8.331-1.282c2.563 0 5.127 0 7.69 0 7.049 0 12.176 1.282 16.662 3.204s7.69 5.127 10.254 8.331 4.486 7.049 5.127 10.895c1.282 3.845 1.282 7.69 1.282 10.895 0 5.127-0.641 8.972-2.563 12.817-1.923 3.204-3.845 6.409-6.409 8.972s-5.127 4.486-8.331 5.768c-3.204 1.282-5.768 2.563-8.331 3.845l-21.789 7.049c-10.254 3.204-17.944 8.331-23.071 14.099s-7.69 13.458-7.69 23.071c0 6.409 1.282 12.176 3.204 17.303s5.127 10.254 8.331 14.099 8.331 7.049 13.458 8.972 10.895 3.204 16.662 3.204c4.486 0 8.331-0.641 10.895-1.282s5.768-1.923 7.69-2.563c1.923-1.282 3.845-1.923 5.768-2.563s3.204-1.282 5.127-1.282c1.923 0 2.563 0 3.204 0.641s1.282 1.923 2.563 3.845h2.563v-37.811h-2.563c-0.641 5.127-1.923 9.613-3.845 14.74-1.923 4.486-4.486 8.972-7.049 12.176-3.204 3.845-6.409 6.409-10.895 8.331-3.845 1.923-8.972 3.204-14.099 3.204-3.204 0-6.409-0.641-10.254-1.282s-7.049-2.563-10.254-4.486c-3.204-1.923-5.768-5.127-7.69-8.972s-3.204-8.331-3.204-14.099c0-4.486 0.641-8.331 2.563-11.536s3.845-5.768 6.409-7.69c2.563-1.923 5.768-3.845 8.972-5.768 3.204-1.282 6.409-2.563 9.613-3.845l23.071-7.69c2.563-0.641 5.768-1.923 8.972-3.204s7.049-3.204 10.895-6.409c3.204-2.563 6.409-6.409 8.972-10.895s3.845-10.254 3.845-17.303c0-6.409-1.282-12.817-3.204-18.585s-5.127-10.895-9.613-16.022c-4.486-4.486-8.972-8.331-15.381-10.895-5.768-2.563-12.817-3.845-20.508-3.845-2.563 0-5.127 0-7.049 0s-3.845 0-5.768 0.641c-1.923 0-3.845 0.641-5.127 0.641-1.923 0.641-3.845 0.641-5.768 1.282-2.563 0.641-5.127 1.923-8.331 3.204s-5.768 1.923-7.69 1.923c-1.923 0-3.204-0.641-3.845-1.282s-1.282-1.923-1.923-3.204h-2.563v44.219zM3143.404 210.241h21.148v143.553h-10.895c-2.563 0-5.127 0-8.331-0.641s-6.409-1.923-9.613-3.845c-3.204-1.923-6.409-5.768-9.613-10.895s-5.768-11.536-7.69-19.867h-1.923v38.452h115.996v-38.452h-1.923c-1.923 8.331-4.486 15.381-7.69 19.867-3.204 5.127-6.409 8.331-9.613 10.895-3.204 1.923-6.409 3.845-9.613 3.845-3.204 0.641-5.768 0.641-8.331 0.641h-10.895v-143.553h21.148v-3.204h-61.523v3.204zM3252.991 210.241h21.148v143.553h-21.148v3.204h35.888c1.282 0 3.204 0 4.486 0s3.204 0 4.486 0c1.282 0 3.204 0 4.486 0s3.204 0 4.486 0c7.69 0 14.099-0.641 19.867-1.282s10.895-3.845 16.022-7.69c4.486-3.845 7.69-8.331 9.613-12.817s2.563-8.972 2.563-13.458c0-1.923-0.641-4.486-1.282-8.331-0.641-3.204-1.923-6.409-4.486-10.254-2.563-3.204-5.768-6.409-10.254-9.613-4.486-2.563-10.254-4.486-17.944-5.768v-0.641c1.923 0 4.486-0.641 8.331-1.282 3.204-0.641 7.049-1.923 10.895-3.845s7.049-4.486 10.254-7.049 5.127-7.049 6.409-11.536c0.641-2.563 1.282-5.768 1.923-9.613 0-3.845 0.641-7.049 0.641-10.895s0.641-7.69 0.641-10.895c0-3.204 0.641-6.409 1.282-8.972 0.641-3.845 1.923-7.049 3.845-9.613 1.923-3.204 4.486-4.486 7.69-4.486 1.923 0 3.204 0.641 5.127 1.282s3.204 1.923 4.486 3.204l1.923-2.563c-0.641-0.641-1.282-1.282-1.923-1.923s-1.923-1.282-3.204-1.923-2.563-1.282-4.486-1.282c-1.923-0.641-3.845-0.641-7.049-0.641-5.127 0-9.613 0.641-12.817 1.923s-5.768 3.204-8.331 6.409c-1.923 2.563-3.204 5.768-4.486 10.254-0.641 3.845-1.923 8.331-1.923 14.099l-1.282 19.226c-0.641 7.049-1.923 12.176-3.845 16.662-1.923 3.845-4.486 7.049-7.049 8.331-2.563 1.923-5.768 3.204-8.331 3.204s-5.768 0.641-7.69 0.641h-19.226v-75.622h21.148v-3.204h-60.882v3.204zM3293.365 289.066h17.303c3.845 0 7.049 0.641 9.613 1.282s5.127 2.563 7.69 5.127c1.923 2.563 3.845 5.768 5.127 10.254s1.923 9.613 1.923 16.022c0 7.049-0.641 12.817-2.563 17.303s-3.845 7.69-6.409 10.254c-2.563 1.923-5.768 3.845-8.972 4.486s-6.409 1.282-10.254 1.282c-2.563 0-4.486 0-7.049 0s-4.486 0-5.768-0.641v-65.368zM3418.333 210.241h21.148v60.241l-42.938 83.312h-17.303v3.204h58.318v-3.204h-19.226l37.811-73.699 35.888 73.699h-19.226v3.204h41.015v-3.204h-18.585l-37.17-76.262v-66.65h21.148v-3.204h-61.523v2.563z" />
<glyph unicode="&#xe909;" glyph-name="arrow-right" horiz-adv-x="544" d="M429.75 448.001v0l-427.38-427.38 55.94-55.94 483.319 483.319-483.319 483.319-55.94-55.94z" />
<glyph unicode="&#xe90a;" glyph-name="arrow-left" horiz-adv-x="544" d="M114.25 447.999v0l427.38 427.38-55.94 55.94-483.319-483.319 483.319-483.319 55.94 55.94z" />
<glyph unicode="&#xe90b;" glyph-name="share" d="M171 634c43.749 0 83.235 18.152 111.418 47.304l417.535-208.768c-1.273-7.994-1.953-16.184-1.953-24.536s0.68-16.542 1.953-24.535l-417.535-208.768c-28.183 29.15-67.669 47.302-111.418 47.302-85.605 0-155-69.395-155-155s69.395-155 155-155 155 69.395 155 155c0 8.353-0.682 16.542-1.953 24.535l417.535 208.77c28.183-29.15 67.669-47.304 111.418-47.304 85.605 0 155 69.397 155 155 0 85.606-69.395 155-155 155-43.749 0-83.235-18.152-111.418-47.302l-417.535 208.768c1.271 7.992 1.953 16.182 1.953 24.535 0 85.607-69.395 155-155 155s-155-69.393-155-155c0-85.603 69.395-155 155-155z" />
<glyph unicode="&#xe90c;" glyph-name="enlarge" d="M764.928 777.728c-60.416 0-119.808 0-181.248 0 0 31.744 0 62.464 0 94.208 116.736 0 231.424 0 349.184 0 0-115.712 0-230.4 0-348.16-30.72 0-61.44 0-93.184 0 0 60.416 0 120.832 0 181.248-71.68-72.704-141.312-143.36-209.92-211.968-26.624 25.6-48.128 47.104-71.68 69.632 69.632 68.608 140.288 138.24 211.968 208.896-3.072 2.048-4.096 4.096-5.12 6.144zM467.968 337.408c-68.608-68.608-140.288-138.24-212.992-210.944 63.488 0 123.904 0 185.344 0 0-32.768 0-63.488 0-95.232-116.736 0-232.448 0-349.184 0 0 115.712 0 231.424 0 348.16 30.72 0 61.44 0 94.208 0 0-60.416 0-120.832 0-184.32 72.704 73.728 142.336 145.408 209.92 214.016 26.624-25.6 48.128-47.104 72.704-71.68z" />
<glyph unicode="&#xe90d;" glyph-name="twitter" d="M1022.037 765.056c-37.76-16.597-78.080-27.904-120.533-33.067 43.264 26.069 76.544 67.157 92.288 116.181-40.576-23.68-85.547-40.917-133.419-50.517-38.229 40.917-92.715 66.517-153.216 66.517-115.925 0-209.92-93.995-209.92-209.792 0-16.64 1.92-32.64 5.419-47.957-174.507 8.235-329.173 92.032-432.683 218.709-18.219-30.805-28.416-66.603-28.416-105.6 0-72.96 37.12-137.088 93.355-174.763-34.432 1.109-66.816 10.581-95.061 26.283v-2.603c0-101.76 72.235-186.624 168.363-205.952-17.621-4.736-36.224-7.296-55.296-7.296-13.397 0-26.24 1.28-39.083 3.669 26.923-83.328 104.32-144.085 196.437-145.792-71.68-56.277-162.517-89.813-260.352-89.813-16.64 0-33.237 0.981-49.92 2.859 93.397-59.477 203.435-94.251 322.432-94.251 386.304 0 597.291 319.829 597.291 596.736 0 8.917 0 17.92-0.64 26.88 41.003 29.397 76.8 66.56 104.96 108.715l-2.005 0.853z" />
<glyph unicode="&#xe90e;" glyph-name="linkedin" d="M861.142 98.65h-146.898v230.186c0 54.89-1.116 125.53-76.55 125.53-76.59 0-88.288-59.726-88.288-121.478v-234.236h-146.898v473.35h141.112v-64.522h1.902c19.716 37.2 67.662 76.466 139.294 76.466 148.842 0 176.37-97.96 176.37-225.474v-259.822zM236.596 636.77c-47.286 0-85.27 38.274-85.27 85.354 0 47.038 38.026 85.27 85.27 85.27 47.12 0 85.312-38.234 85.312-85.27 0-47.078-38.234-85.354-85.312-85.354zM310.252 98.65h-147.312v473.35h147.312v-473.35zM934.634 944h-845.431c-40.466 0-73.202-31.992-73.202-71.466v-849.069c0-39.514 32.736-71.466 73.202-71.466h845.307c40.424 0 73.49 31.95 73.49 71.466v849.069c0 39.474-33.066 71.466-73.49 71.466h0.124z" />
<glyph unicode="&#xe90f;" glyph-name="zoom-in" d="M993.122 36.321l-183.52 183.52c59.52 74.4 99.199 173.599 99.199 277.759 0 247.999-198.4 446.4-446.4 446.4s-446.4-198.4-446.4-446.4c0-247.999 198.4-446.4 446.4-446.4 104.16 0 203.359 34.72 277.759 99.199l183.52-183.52c9.92-9.92 24.8-14.88 34.72-14.88s24.8 4.96 34.72 14.88c19.84 19.84 19.84 49.6 0 69.44zM115.203 497.6c0 193.44 153.76 347.2 347.2 347.2s347.2-153.76 347.2-347.2c0-94.24-39.68-183.52-99.199-243.040 0 0 0 0 0 0s0 0 0 0c-64.48-64.48-148.8-99.199-243.040-99.199-198.4-4.96-352.159 148.8-352.159 342.24zM611.201 547.199h-99.199v99.199c0 29.76-19.84 49.6-49.6 49.6s-49.6-19.84-49.6-49.6v-99.199h-99.199c-29.76 0-49.6-19.84-49.6-49.6s19.84-49.6 49.6-49.6h99.199v-99.199c0-29.76 19.84-49.6 49.6-49.6s49.6 19.84 49.6 49.6v99.199h99.199c29.76 0 49.6 19.84 49.6 49.6s-19.84 49.6-49.6 49.6z" />
<glyph unicode="&#xe910;" glyph-name="user" horiz-adv-x="768" d="M384 448c-205.375 0-372-166.625-372-372 0-68.541 55.459-124 124-124h496c68.541 0 124 55.459 124 124 0 205.375-166.625 372-372 372zM198 758c0 102.725 83.275 186 186 186s186-83.275 186-186c0-102.725-83.275-186-186-186s-186 83.275-186 186z" />
<glyph unicode="&#xe911;" glyph-name="fullscreen_exit" d="M804.081 740.081h219.919v-144.322h-364.242v364.242h144.322v-219.919zM659.758-64v364.242h364.242v-144.322h-219.919v-219.919h-144.322zM219.919 740.081v219.919h144.322v-364.242h-364.242v144.322h219.919zM0 155.919v144.322h364.242v-364.242h-144.322v219.919h-219.919z" />
<glyph unicode="&#xe912;" glyph-name="cart" horiz-adv-x="1437" d="M1238.094 214.458h-809.614c-17.794 0-35.587 13.345-44.484 31.139l-195.731 609.435h-120.108c-26.691 0-44.484 17.794-44.484 44.484s17.794 44.484 44.484 44.484h155.695c17.794 0 35.587-13.345 44.484-31.139l195.731-609.435h742.888l106.762 418.152h-876.341c-26.691 0-44.484 17.794-44.484 44.484s17.794 44.484 44.484 44.484h929.722c13.345 0 26.691-4.448 35.587-17.794 8.897-8.897 13.345-26.691 8.897-40.036l-133.453-507.121c-4.448-17.794-22.242-31.139-40.036-31.139zM548.588-48c-80.072 0-146.799 66.727-146.799 146.799s66.727 146.799 146.799 146.799 146.799-66.727 146.799-146.799-66.727-146.799-146.799-146.799zM548.588 169.973c-40.036 0-71.175-31.139-71.175-71.175s31.139-71.175 71.175-71.175 71.175 31.139 71.175 71.175-31.139 71.175-71.175 71.175zM1104.642-48c-80.072 0-146.799 66.727-146.799 146.799s66.727 146.799 146.799 146.799 146.799-66.727 146.799-146.799-62.278-146.799-146.799-146.799zM1104.642 169.973c-40.036 0-71.175-31.139-71.175-71.175s31.139-71.175 71.175-71.175 75.624 31.139 75.624 71.175-35.587 71.175-75.624 71.175zM1291.476 552.538h-809.614c-26.691 0-44.484 17.794-44.484 44.484s17.794 44.484 44.484 44.484h809.614c26.691 0 44.484-17.794 44.484-44.484s-17.794-44.484-44.484-44.484zM1246.991 387.946h-720.645c-26.691 0-44.484 17.794-44.484 44.484s17.794 44.484 44.484 44.484h720.645c26.691 0 44.484-17.794 44.484-44.484 0-22.242-17.794-44.484-44.484-44.484z" />
<glyph unicode="&#xe913;" glyph-name="location" horiz-adv-x="727" d="M363.501-47.858l-29.149 32.286c-13.202 14.509-322.991 360.375-322.991 607.291 0 194.481 157.659 352.139 352.139 352.139s352.139-157.659 352.139-352.139v0c0-246.916-309.919-592.783-323.122-607.291zM363.501 865.431c-150.988-0.445-273.267-122.725-273.712-273.67v-0.043c0-176.331 197.768-430.045 273.712-520.889 75.813 91.499 273.712 344.82 273.712 520.889-0.445 150.988-122.725 273.267-273.67 273.712h-0.043zM363.501 440.745c-83.38 0-150.973 67.593-150.973 150.973s67.593 150.973 150.973 150.973c83.38 0 150.973-67.593 150.973-150.973v0c-0.075-83.35-67.623-150.899-150.966-150.973h-0.008zM363.501 664.264c-40.066 0-72.545-32.48-72.545-72.545s32.48-72.545 72.545-72.545c40.066 0 72.545 32.48 72.545 72.545v0c-0.075 40.036-32.51 72.471-72.538 72.545h-0.007z" />
<glyph unicode="&#xe914;" glyph-name="fullscreen" d="M659.758 960h364.242v-364.242h-144.322v219.919h-219.919v144.322zM879.678 80.322v219.919h144.322v-364.242h-364.242v144.322h219.919zM0 595.758v364.242h364.242v-144.322h-219.919v-219.919h-144.322zM144.322 300.242v-219.919h219.919v-144.322h-364.242v364.242h144.322z" />
<glyph unicode="&#xe915;" glyph-name="close" d="M1024 856.913l-408.913-408.913 408.913-408.913-103.087-103.087-408.913 408.913-408.913-408.913-103.087 103.087 408.913 408.913-408.913 408.913 103.087 103.087 408.913-408.913 408.913 408.913z" />
<glyph unicode="&#xe916;" glyph-name="zoom-out" d="M993.122 36.321l-183.52 183.52c59.52 74.4 99.199 173.599 99.199 277.759 0 247.999-198.4 446.4-446.4 446.4s-446.4-198.4-446.4-446.4c0-247.999 198.4-446.4 446.4-446.4 104.16 0 203.359 34.72 277.759 99.199l183.52-183.52c9.92-9.92 24.8-14.88 34.72-14.88s24.8 4.96 34.72 14.88c19.84 19.84 19.84 49.6 0 69.44zM115.203 497.6c0 193.44 153.76 347.2 347.2 347.2s347.2-153.76 347.2-347.2c0-94.24-39.68-183.52-99.199-243.040 0 0 0 0 0 0s0 0 0 0c-64.48-64.48-148.8-99.199-243.040-99.199-198.4-4.96-352.159 148.8-352.159 342.24zM611.201 547.199h-297.6c-29.76 0-49.6-19.84-49.6-49.6s19.84-49.6 49.6-49.6h297.6c29.76 0 49.6 19.84 49.6 49.6s-19.84 49.6-49.6 49.6z" />
<glyph unicode="&#xe917;" glyph-name="heart" d="M917.333 793.6v0c-51.2 51.2-119.467 81.067-192 81.067v0c-72.533 0-145.067-29.867-196.267-81.067 0 0 0 0 0 0l-17.067-17.067-17.067 17.067c-51.2 51.2-119.467 81.067-196.267 81.067-72.533 0-140.8-29.867-192-81.067s-85.333-123.733-85.333-196.267 29.867-145.067 81.067-196.267l375.467-375.467c8.533-8.533 17.067-12.8 29.867-12.8s21.333 4.267 29.867 12.8l375.467 375.467c115.2 106.667 115.2 285.867 4.267 392.533zM857.6 460.8l-345.6-345.6-345.6 345.6c-76.8 76.8-76.8 196.267 0 273.067 34.133 38.4 85.333 55.467 132.267 55.467 51.2 0 98.133-17.067 136.533-55.467l46.933-46.933c17.067-17.067 42.667-17.067 59.733 0l42.667 46.933c0 0 0 0 0 0 38.4 34.133 85.333 55.467 140.8 55.467 0 0 0 0 0 0 51.2 0 98.133-21.333 136.533-55.467v0c34.133-38.4 55.467-85.333 55.467-136.533s-21.333-98.133-59.733-136.533z" />
<glyph unicode="&#xe918;" glyph-name="check" d="M332.614 230.641l591.844 591.844 78.563-78.563-670.408-670.408-311.634 311.634 78.563 78.563z" />
<glyph unicode="&#xe919;" glyph-name="googleplus" d="M325.76 494.549v-111.744h184.96c-7.381-48-55.893-140.587-184.789-140.587-111.104 0-201.856 92.16-201.856 205.781 0 113.579 90.539 205.739 201.728 205.739 63.36 0 105.771-27.008 129.92-50.261l88.448 85.077c-56.747 53.12-130.389 85.12-218.24 85.12-180.352 0.085-325.931-145.835-325.931-325.675s145.664-325.76 325.76-325.76c188.16 0 312.832 132.181 312.832 318.336 0 21.376-2.304 37.76-5.12 53.973h-307.712zM1024 494.549h-93.141v93.141h-93.141v-93.141h-93.099v-93.056h93.184v-93.184h93.397v93.184h92.8z" />
<glyph unicode="&#xe91a;" glyph-name="pause" d="M512 960c-282.77 0-512-229.23-512-512s229.23-512 512-512 512 229.23 512 512-229.23 512-512 512zM512 32c-229.75 0-416 186.25-416 416s186.25 416 416 416 416-186.25 416-416-186.25-416-416-416zM320 640h128v-384h-128zM576 640h128v-384h-128z" />
<glyph unicode="&#xe91b;" glyph-name="play" d="M512 1011.751c-311.353 0-563.751-252.397-563.751-563.751s252.397-563.751 563.751-563.751c311.353 0 563.751 252.397 563.751 563.751s-252.397 563.751-563.751 563.751zM512-10.047c-252.973 0-458.047 205.074-458.047 458.047s205.074 458.047 458.047 458.047c252.973 0 458.047-205.074 458.047-458.047s-205.074-458.047-458.047-458.047zM371.062 694.641l422.813-246.641-422.813-246.641z" />
<glyph unicode="&#xe91d;" glyph-name="search" d="M812.032 268.8c132.608 132.608 132.608 348.16 0 480.768s-348.16 132.608-480.768 0c-112.64-112.64-129.536-279.552-51.2-410.624 0 0 5.632-9.216-2.048-16.896l-173.568-173.568c-34.304-34.304-42.496-82.944-12.288-113.664l5.12-5.12c30.72-30.72 78.848-22.528 113.664 12.288l173.056 173.568c8.192 8.192 17.408 2.56 17.408 2.56 130.56-78.336 297.984-61.44 410.624 50.688v0zM393.728 331.776c-97.792 97.792-97.792 257.536 0 355.328s257.536 97.792 355.328 0c97.792-97.792 97.792-257.536 0-355.328s-257.024-97.792-355.328 0v0z" />
</font>
</defs>
</svg>
