<?xml version="1.0" encoding="UTF-8" standalone="no"?>
<!-- Generator: Adobe Illustrator 22.1.0, SVG Export Plug-In . SVG Version: 6.00 Build 0)  -->

<svg
   xmlns:dc="http://purl.org/dc/elements/1.1/"
   xmlns:cc="http://creativecommons.org/ns#"
   xmlns:rdf="http://www.w3.org/1999/02/22-rdf-syntax-ns#"
   xmlns:svg="http://www.w3.org/2000/svg"
   xmlns="http://www.w3.org/2000/svg"
   xmlns:sodipodi="http://sodipodi.sourceforge.net/DTD/sodipodi-0.dtd"
   xmlns:inkscape="http://www.inkscape.org/namespaces/inkscape"
   version="1.1"
   id="Layer_1"
   x="0px"
   y="0px"
   viewBox="0 0 600 52"
   xml:space="preserve"
   sodipodi:docname="FrenchTables_Logo.svg"
   width="600"
   height="52"
   inkscape:version="0.92.4 (unknown)"><metadata
   id="metadata3930"><rdf:RDF><cc:Work
       rdf:about=""><dc:format>image/svg+xml</dc:format><dc:type
         rdf:resource="http://purl.org/dc/dcmitype/StillImage" /><dc:title></dc:title></cc:Work></rdf:RDF></metadata><defs
   id="defs3928" /><sodipodi:namedview
   pagecolor="#ffffff"
   bordercolor="#666666"
   borderopacity="1"
   objecttolerance="10"
   gridtolerance="10"
   guidetolerance="10"
   inkscape:pageopacity="0"
   inkscape:pageshadow="2"
   inkscape:window-width="1366"
   inkscape:window-height="704"
   id="namedview3926"
   showgrid="false"
   inkscape:zoom="3.744"
   inkscape:cx="410.25641"
   inkscape:cy="1.0683761"
   inkscape:window-x="0"
   inkscape:window-y="27"
   inkscape:window-maximized="1"
   inkscape:current-layer="g3923" />
<style
   type="text/css"
   id="style3847">
	.st0{fill:#010101;}
	.st1{fill:none;stroke:#010101;stroke-width:0.5005;stroke-miterlimit:3.5312;}
</style>
<g
   id="g3923"
   transform="translate(0,-148)">
	<g
   id="g3853"
   transform="translate(-72.649573,74.786324)">
		<path
   class="st0"
   d="m 76.1,123.7 h 7 V 77.3 h -7 V 76.4 H 112 v 11.7 h -0.7 c -0.5,-1.8 -1.1,-3.3 -1.8,-4.6 -0.6,-1.3 -1.4,-2.5 -2.3,-3.4 -0.9,-0.9 -1.9,-1.6 -3.1,-2.1 -1.2,-0.5 -2.7,-0.7 -4.4,-0.7 H 89.4 v 22 h 4.1 c 1.4,0 2.6,-0.1 3.5,-0.4 1,-0.3 1.8,-0.8 2.5,-1.5 0.7,-0.7 1.3,-1.8 1.8,-3.1 0.5,-1.3 1,-3 1.4,-5 h 0.7 v 21.1 h -0.7 c -0.3,-1.3 -0.6,-2.6 -0.9,-3.8 -0.3,-1.2 -0.8,-2.3 -1.3,-3.3 -0.5,-1 -1.3,-1.7 -2.3,-2.3 -0.9,-0.6 -2.2,-0.8 -3.7,-0.8 h -5.1 v 23.5 h 7 v 1 H 76.1 Z"
   id="path3849"
   inkscape:connector-curvature="0"
   style="fill:#010101" />
		<path
   class="st0"
   d="m 122.7,123.7 h 7 V 77.3 h -7 v -0.9 h 11.9 c 0.5,0 1,0 1.5,0 0.5,0 1,-0.1 1.5,-0.1 0.5,0 1,0 1.5,0 0.5,0 1,0 1.5,0 2.5,0 4.6,0.1 6.5,0.4 1.9,0.3 3.6,1.1 5.3,2.5 1.5,1.2 2.5,2.6 3.1,4.1 0.6,1.5 0.9,3 0.9,4.3 0,0.7 -0.1,1.5 -0.3,2.6 -0.2,1.1 -0.7,2.1 -1.5,3.3 -0.8,1.1 -1.9,2.1 -3.4,3.1 -1.5,0.9 -3.4,1.5 -5.8,1.9 v 0.1 c 0.7,0.1 1.6,0.3 2.7,0.5 1.2,0.2 2.3,0.7 3.5,1.3 1.2,0.6 2.3,1.4 3.3,2.3 1,1 1.7,2.2 2.1,3.8 0.3,0.9 0.4,1.9 0.5,3.1 0.1,1.2 0.2,2.3 0.3,3.6 0.1,1.2 0.1,2.4 0.2,3.5 0.1,1.1 0.2,2.1 0.3,2.8 0.3,1.2 0.6,2.2 1.2,3.2 0.5,0.9 1.4,1.4 2.6,1.4 0.5,0 1.1,-0.1 1.7,-0.3 0.6,-0.2 1.1,-0.6 1.6,-1.1 l 0.6,0.7 c -0.2,0.2 -0.5,0.4 -0.7,0.6 -0.3,0.2 -0.6,0.4 -1,0.6 -0.4,0.2 -0.9,0.3 -1.5,0.4 -0.6,0.1 -1.4,0.2 -2.2,0.2 -1.7,0 -3.1,-0.2 -4.2,-0.7 -1.1,-0.5 -2,-1.1 -2.7,-2 -0.7,-0.9 -1.2,-2 -1.5,-3.3 -0.3,-1.3 -0.5,-2.8 -0.7,-4.5 l -0.4,-6.2 c -0.2,-2.3 -0.6,-4 -1.3,-5.3 -0.7,-1.3 -1.5,-2.2 -2.4,-2.8 -0.9,-0.6 -1.8,-0.9 -2.8,-1.1 -1,-0.1 -1.8,-0.2 -2.5,-0.2 H 136 v 24.5 h 7 v 1 h -20.2 v -0.9 z M 136,98.2 h 5.8 c 1.2,0 2.2,-0.2 3.2,-0.5 1,-0.3 1.8,-0.9 2.5,-1.7 0.7,-0.8 1.2,-1.9 1.6,-3.2 0.4,-1.3 0.6,-3.1 0.6,-5.2 0,-2.4 -0.3,-4.2 -0.8,-5.7 -0.6,-1.4 -1.3,-2.5 -2.2,-3.2 -0.9,-0.7 -1.9,-1.2 -3,-1.4 -1.1,-0.2 -2.2,-0.3 -3.3,-0.3 -0.8,0 -1.5,0 -2.3,0 -0.8,0 -1.4,0.1 -2,0.2 v 21 z"
   id="path3851"
   inkscape:connector-curvature="0"
   style="fill:#010101" />
	</g>
	<g
   id="g3859"
   transform="translate(-72.649573,74.786324)">
		<path
   class="st0"
   d="m 175,123.7 h 7 V 77.3 h -7 v -0.9 h 36 v 11.7 h -0.7 c -0.5,-1.8 -1.1,-3.3 -1.8,-4.6 -0.6,-1.3 -1.4,-2.5 -2.3,-3.4 -0.9,-0.9 -1.9,-1.6 -3.1,-2.1 -1.2,-0.5 -2.7,-0.7 -4.4,-0.7 h -10.4 v 21 h 4.1 c 1.4,0 2.6,-0.1 3.5,-0.4 1,-0.3 1.8,-0.8 2.5,-1.5 0.7,-0.7 1.3,-1.8 1.8,-3.1 0.5,-1.3 1,-3 1.4,-5 h 0.7 v 21.1 h -0.7 c -0.3,-1.3 -0.6,-2.6 -0.9,-3.8 -0.3,-1.2 -0.8,-2.3 -1.3,-3.3 -0.5,-1 -1.3,-1.7 -2.3,-2.3 -0.9,-0.6 -2.2,-0.8 -3.7,-0.8 h -5.1 v 24.5 h 11.9 c 2.3,0 4.2,-0.5 5.7,-1.6 1.5,-1.1 2.8,-2.3 3.7,-3.8 1,-1.5 1.7,-3 2.1,-4.6 0.5,-1.6 0.8,-2.9 0.9,-3.9 h 0.7 v 14.9 H 175 Z"
   id="path3855"
   inkscape:connector-curvature="0"
   style="fill:#010101" />
		<path
   class="st0"
   d="m 223.8,123.7 h 7 V 77.3 h -7 v -0.9 h 13.4 l 21.2,37 h 0.1 v -36 h -7 v -0.9 h 14.9 v 0.9 h -7 v 48.3 h -1.3 L 231.7,80.2 h -0.1 v 43.6 h 7 v 1 h -14.9 v -1.1 z"
   id="path3857"
   inkscape:connector-curvature="0"
   style="fill:#010101" />
	</g>
	<g
   id="g3865"
   transform="translate(-72.649573,74.786324)">
		<path
   class="st0"
   d="m 312,124.6 h -1 c -0.3,-0.4 -0.6,-0.7 -1,-1 -0.4,-0.3 -1,-0.4 -1.8,-0.4 -0.6,0 -1.3,0.1 -2,0.4 -0.7,0.2 -1.6,0.5 -2.5,0.8 -0.9,0.3 -2,0.6 -3.2,0.8 -1.2,0.2 -2.5,0.4 -3.9,0.4 -2.6,0 -5.2,-0.5 -7.7,-1.6 -2.5,-1 -4.8,-2.7 -7.1,-5.1 -2.1,-2.2 -3.8,-4.8 -5.2,-7.9 -1.4,-3 -2.1,-6.5 -2.1,-10.5 0,-3.4 0.6,-6.6 1.7,-9.7 1.1,-3.1 2.7,-5.8 4.7,-8.1 2,-2.4 4.4,-4.2 7.1,-5.6 2.7,-1.4 5.7,-2.1 8.9,-2.1 1.3,0 2.4,0.1 3.5,0.4 1,0.3 1.9,0.6 2.7,0.9 0.8,0.3 1.5,0.6 2.2,0.9 0.7,0.3 1.3,0.4 1.9,0.4 0.8,0 1.4,-0.1 1.8,-0.4 0.4,-0.3 0.7,-0.6 1,-1 h 0.9 v 13.6 h -0.7 c -0.4,-1.7 -0.9,-3.4 -1.4,-5.1 -0.6,-1.7 -1.4,-3.2 -2.4,-4.4 -1,-1.3 -2.4,-2.3 -4,-3.1 -1.6,-0.8 -3.6,-1.2 -6,-1.2 -2.2,0 -4.1,0.4 -5.7,1.1 -1.6,0.7 -2.9,1.7 -4,3 -1.1,1.2 -2,2.7 -2.6,4.3 -0.6,1.7 -1.1,3.4 -1.5,5.2 -0.3,1.8 -0.6,3.7 -0.7,5.6 -0.1,1.9 -0.2,3.7 -0.2,5.3 0,4.7 0.4,8.7 1.1,11.8 0.7,3.1 1.7,5.6 3,7.4 1.3,1.8 2.8,3.1 4.6,3.8 1.8,0.7 3.8,1.1 6,1.1 2.8,0 5.1,-0.4 6.8,-1.3 1.7,-0.9 3.1,-2 4.1,-3.4 1,-1.4 1.8,-2.9 2.4,-4.7 0.5,-1.7 1,-3.5 1.4,-5.2 h 0.7 v 14.6 z"
   id="path3861"
   inkscape:connector-curvature="0"
   style="fill:#010101" />
		<path
   class="st0"
   d="m 322.3,123.7 h 7 V 77.3 h -7 v -0.9 h 20.2 v 0.9 h -7 v 22.2 h 20.9 V 77.3 h -7 v -0.9 h 20.2 v 0.9 h -7 v 46.4 h 7 v 1 h -20.2 v -1 h 7 v -23.3 h -20.9 v 23.3 h 7 v 1 h -20.2 z"
   id="path3863"
   inkscape:connector-curvature="0"
   style="fill:#010101" />
	</g>
	<g
   id="g3871"
   transform="translate(-72.649573,74.786324)">
		<path
   class="st0"
   d="m 409.8,123.7 h 7 V 77.3 h -3.6 c -0.8,0 -1.8,0.1 -2.8,0.2 -1,0.2 -2.1,0.6 -3.2,1.3 -1.1,0.7 -2.1,1.9 -3.1,3.4 -1,1.6 -1.8,3.7 -2.5,6.5 h -0.7 V 76.3 H 439 v 12.4 h -0.7 c -0.7,-2.8 -1.6,-4.9 -2.5,-6.5 -0.9,-1.6 -2,-2.7 -3.1,-3.4 -1.1,-0.7 -2.1,-1.2 -3.2,-1.3 -1,-0.2 -2,-0.2 -2.8,-0.2 h -3.6 v 46.4 h 7 v 1 h -20.2 v -1 z"
   id="path3867"
   inkscape:connector-curvature="0"
   style="fill:#010101" />
		<path
   class="st0"
   d="m 443.2,123.7 h 5.5 l 17,-48.6 h 1.5 l 17.1,48.6 h 5.6 v 1 h -19.3 v -1 h 7 L 471,104.8 h -14.6 l -6.6,18.9 h 7 v 1 h -13.5 v -1 z m 20.4,-39.6 -6.9,19.7 h 13.8 z"
   id="path3869"
   inkscape:connector-curvature="0"
   style="fill:#010101" />
	</g>
	<g
   id="g3877"
   transform="translate(-72.649573,74.786324)">
		<path
   class="st0"
   d="m 498.7,123.7 h 7 V 77.3 h -7 v -0.9 h 11 c 0.6,0 1.3,0 1.9,0 0.6,0 1.3,-0.1 2,-0.1 0.7,0 1.3,0 1.9,0 0.6,0 1.2,0 1.8,0 3.1,0 5.6,0.4 7.5,1.2 2,0.8 3.5,1.8 4.6,2.9 1.1,1.2 1.9,2.4 2.3,3.7 0.4,1.3 0.6,2.5 0.6,3.6 0,1.5 -0.3,2.9 -0.9,4.1 -0.6,1.3 -1.4,2.4 -2.5,3.3 -1,0.9 -2.2,1.7 -3.5,2.3 -1.3,0.6 -2.7,1 -4.2,1.2 v 0.1 c 1.5,0.1 3,0.5 4.6,1.1 1.6,0.6 3,1.4 4.3,2.4 1.3,1 2.3,2.3 3.1,3.8 0.8,1.5 1.2,3.2 1.2,5.2 0,2 -0.4,3.9 -1.1,5.6 -0.7,1.7 -1.8,3.2 -3.2,4.4 -1.4,1.2 -3.2,2.2 -5.4,2.9 -2.2,0.7 -4.7,1.1 -7.6,1.1 -0.6,0 -1.2,0 -1.7,0 -0.6,0 -1.2,-0.1 -1.8,-0.1 -0.6,0 -1.3,-0.1 -1.9,-0.1 -0.7,0 -1.4,0 -2.1,0 h -11 v -1.3 z m 13.2,-25.5 h 5.8 c 1.2,0 2.2,-0.2 3.2,-0.5 1,-0.3 1.8,-0.9 2.5,-1.7 0.7,-0.8 1.2,-1.9 1.6,-3.2 0.4,-1.3 0.6,-3.1 0.6,-5.2 0,-2.4 -0.3,-4.2 -0.8,-5.7 -0.6,-1.4 -1.3,-2.5 -2.2,-3.2 -0.9,-0.7 -1.9,-1.2 -3,-1.4 -1.1,-0.2 -2.2,-0.3 -3.3,-0.3 -0.8,0 -1.5,0 -2.3,0 -0.8,0 -1.4,0.1 -2,0.2 v 21 z m 0,25.5 c 0.5,0 1.1,0.1 1.7,0.2 0.6,0.1 1.5,0.1 2.6,0.1 2,0 3.7,-0.2 5.1,-0.6 1.4,-0.4 2.6,-1.1 3.5,-2.1 0.9,-1 1.6,-2.4 2,-4 0.4,-1.7 0.6,-3.8 0.6,-6.3 0,-3.6 -0.7,-6.5 -2.1,-8.5 -1.4,-2.1 -3.5,-3.1 -6.3,-3.1 h -6.9 v 24.3 z"
   id="path3873"
   inkscape:connector-curvature="0"
   style="fill:#010101" />
		<path
   class="st0"
   d="m 543.1,123.7 h 7 V 77.3 h -7 v -0.9 h 20.2 v 0.9 h -7 v 46.4 h 11.2 c 3.7,0 6.6,-1.2 8.7,-3.7 2.1,-2.5 3.6,-5.9 4.6,-10.2 h 0.7 v 14.9 h -38.4 z"
   id="path3875"
   inkscape:connector-curvature="0"
   style="fill:#010101" />
	</g>
	<g
   id="g3883"
   transform="translate(-72.649573,74.786324)">
		<path
   class="st0"
   d="m 591.6,123.7 h 7 V 77.3 h -7 v -0.9 h 35.9 v 11.7 h -0.7 c -0.5,-1.8 -1.1,-3.3 -1.8,-4.6 -0.6,-1.3 -1.4,-2.5 -2.3,-3.4 -0.9,-0.9 -1.9,-1.6 -3.1,-2.1 -1.2,-0.5 -2.7,-0.7 -4.4,-0.7 h -10.4 v 21 h 4.1 c 1.4,0 2.6,-0.1 3.5,-0.4 1,-0.3 1.8,-0.8 2.5,-1.5 0.7,-0.7 1.3,-1.8 1.8,-3.1 0.5,-1.3 1,-3 1.4,-5 h 0.7 v 21.1 h -0.7 c -0.3,-1.3 -0.6,-2.6 -0.9,-3.8 -0.3,-1.2 -0.8,-2.3 -1.3,-3.3 -0.6,-0.9 -1.3,-1.7 -2.3,-2.3 -0.9,-0.6 -2.2,-0.8 -3.7,-0.8 h -5.1 v 24.5 h 11.9 c 2.3,0 4.2,-0.5 5.7,-1.6 1.5,-1.1 2.8,-2.3 3.7,-3.8 0.9,-1.5 1.7,-3 2.1,-4.6 0.5,-1.6 0.8,-2.9 0.9,-3.9 h 0.7 v 14.9 h -38.3 v -1 z"
   id="path3879"
   inkscape:connector-curvature="0"
   style="fill:#010101" />
		<path
   class="st0"
   d="m 643.1,110 h 0.7 c 0.5,2.4 1.1,4.5 1.8,6.2 0.7,1.7 1.5,3.1 2.4,4.1 0.9,1.1 1.8,1.9 2.8,2.5 1,0.6 1.9,1 2.9,1.3 1,0.3 1.9,0.4 2.8,0.5 0.9,0.1 1.7,0.1 2.5,0.1 2.2,0 4,-0.4 5.5,-1.1 1.4,-0.7 2.6,-1.6 3.4,-2.7 0.8,-1.1 1.4,-2.3 1.8,-3.6 0.3,-1.3 0.5,-2.5 0.5,-3.6 0,-1.6 -0.3,-2.9 -0.8,-4.1 -0.5,-1.1 -1.2,-2.1 -2.1,-2.9 -0.8,-0.8 -1.8,-1.4 -2.7,-1.9 -1,-0.5 -1.9,-0.9 -2.8,-1.2 l -7.2,-2.4 c -3.4,-1.1 -6,-2.6 -7.7,-4.5 -1.7,-1.9 -2.6,-4.3 -2.6,-7.5 0,-2 0.3,-3.9 1,-5.7 0.7,-1.7 1.6,-3.2 2.8,-4.5 1.2,-1.3 2.7,-2.3 4.4,-3 1.7,-0.7 3.6,-1.1 5.6,-1.1 1.5,0 2.7,0.1 3.7,0.4 1,0.3 1.8,0.6 2.5,0.9 0.7,0.3 1.3,0.6 1.9,0.9 0.6,0.3 1.1,0.4 1.7,0.4 0.5,0 0.9,-0.1 1.1,-0.2 0.2,-0.2 0.4,-0.6 0.8,-1.2 h 0.9 v 12.3 h -0.8 c -0.2,-1.6 -0.7,-3.2 -1.3,-4.7 -0.6,-1.5 -1.4,-2.8 -2.4,-4 -1,-1.2 -2.1,-2.1 -3.5,-2.8 -1.4,-0.7 -2.9,-1.1 -4.7,-1.1 -1,0 -2.1,0.1 -3.3,0.4 -1.2,0.3 -2.3,0.8 -3.4,1.5 -1,0.7 -1.9,1.7 -2.6,2.8 -0.7,1.2 -1,2.7 -1,4.5 0,1.4 0.3,2.7 0.8,3.7 0.5,1 1.2,1.9 2.1,2.6 0.9,0.7 1.8,1.3 2.9,1.8 1.1,0.5 2.1,0.9 3.2,1.3 l 7.6,2.6 c 0.8,0.3 1.8,0.6 3,1.1 1.2,0.5 2.4,1.1 3.5,2 1.2,0.9 2.1,2.1 3,3.6 0.8,1.5 1.2,3.4 1.2,5.7 0,2.1 -0.4,4.1 -1.1,6.1 -0.7,1.9 -1.8,3.6 -3.2,5.1 -1.4,1.5 -3.1,2.6 -5,3.5 -2,0.9 -4.2,1.3 -6.7,1.3 -0.9,0 -1.7,0 -2.3,0 -0.7,0 -1.3,-0.1 -1.9,-0.2 -0.6,-0.1 -1.2,-0.2 -1.8,-0.3 -0.6,-0.1 -1.2,-0.3 -1.9,-0.5 -0.8,-0.3 -1.7,-0.6 -2.7,-1 -1,-0.4 -1.8,-0.5 -2.5,-0.5 -0.6,0 -1.1,0.1 -1.3,0.4 -0.2,0.3 -0.4,0.6 -0.6,1.1 h -0.9 z"
   id="path3881"
   inkscape:connector-curvature="0"
   style="fill:#010101" />
	</g>
	<g
   id="g3921"
   transform="translate(-72.649573,74.786324)">
		<g
   id="g3889">
			<path
   class="st1"
   d="m 76.1,123.7 h 7 V 77.3 h -7 V 76.4 H 112 v 11.7 h -0.7 c -0.5,-1.8 -1.1,-3.3 -1.8,-4.6 -0.6,-1.3 -1.4,-2.5 -2.3,-3.4 -0.9,-0.9 -1.9,-1.6 -3.1,-2.1 -1.2,-0.5 -2.7,-0.7 -4.4,-0.7 H 89.4 v 22 h 4.1 c 1.4,0 2.6,-0.1 3.5,-0.4 1,-0.3 1.8,-0.8 2.5,-1.5 0.7,-0.7 1.3,-1.8 1.8,-3.1 0.5,-1.3 1,-3 1.4,-5 h 0.7 v 21.1 h -0.7 c -0.3,-1.3 -0.6,-2.6 -0.9,-3.8 -0.3,-1.2 -0.8,-2.3 -1.3,-3.3 -0.5,-1 -1.3,-1.7 -2.3,-2.3 -0.9,-0.6 -2.2,-0.8 -3.7,-0.8 h -5.1 v 23.5 h 7 v 1 H 76.1 Z"
   id="path3885"
   inkscape:connector-curvature="0"
   style="fill:none;stroke:#010101;stroke-width:0.50050002;stroke-miterlimit:3.53119993" />
			<path
   class="st1"
   d="m 122.7,123.7 h 7 V 77.3 h -7 v -0.9 h 11.9 c 0.5,0 1,0 1.5,0 0.5,0 1,-0.1 1.5,-0.1 0.5,0 1,0 1.5,0 0.5,0 1,0 1.5,0 2.5,0 4.6,0.1 6.5,0.4 1.9,0.3 3.6,1.1 5.3,2.5 1.5,1.2 2.5,2.6 3.1,4.1 0.6,1.5 0.9,3 0.9,4.3 0,0.7 -0.1,1.5 -0.3,2.6 -0.2,1.1 -0.7,2.1 -1.5,3.3 -0.8,1.1 -1.9,2.1 -3.4,3.1 -1.5,0.9 -3.4,1.5 -5.8,1.9 v 0.1 c 0.7,0.1 1.6,0.3 2.7,0.5 1.2,0.2 2.3,0.7 3.5,1.3 1.2,0.6 2.3,1.4 3.3,2.3 1,1 1.7,2.2 2.1,3.8 0.3,0.9 0.4,1.9 0.5,3.1 0.1,1.2 0.2,2.3 0.3,3.6 0.1,1.2 0.1,2.4 0.2,3.5 0.1,1.1 0.2,2.1 0.3,2.8 0.3,1.2 0.6,2.2 1.2,3.2 0.5,0.9 1.4,1.4 2.6,1.4 0.5,0 1.1,-0.1 1.7,-0.3 0.6,-0.2 1.1,-0.6 1.6,-1.1 l 0.6,0.7 c -0.2,0.2 -0.5,0.4 -0.7,0.6 -0.3,0.2 -0.6,0.4 -1,0.6 -0.4,0.2 -0.9,0.3 -1.5,0.4 -0.6,0.1 -1.4,0.2 -2.2,0.2 -1.7,0 -3.1,-0.2 -4.2,-0.7 -1.1,-0.5 -2,-1.1 -2.7,-2 -0.7,-0.9 -1.2,-2 -1.5,-3.3 -0.3,-1.3 -0.5,-2.8 -0.7,-4.5 l -0.4,-6.2 c -0.2,-2.3 -0.6,-4 -1.3,-5.3 -0.7,-1.3 -1.5,-2.2 -2.4,-2.8 -0.9,-0.6 -1.8,-0.9 -2.8,-1.1 -1,-0.1 -1.8,-0.2 -2.5,-0.2 H 136 v 24.5 h 7 v 1 h -20.2 v -0.9 z M 136,98.2 h 5.8 c 1.2,0 2.2,-0.2 3.2,-0.5 1,-0.3 1.8,-0.9 2.5,-1.7 0.7,-0.8 1.2,-1.9 1.6,-3.2 0.4,-1.3 0.6,-3.1 0.6,-5.2 0,-2.4 -0.3,-4.2 -0.8,-5.7 -0.6,-1.4 -1.3,-2.5 -2.2,-3.2 -0.9,-0.7 -1.9,-1.2 -3,-1.4 -1.1,-0.2 -2.2,-0.3 -3.3,-0.3 -0.8,0 -1.5,0 -2.3,0 -0.8,0 -1.4,0.1 -2,0.2 v 21 z"
   id="path3887"
   inkscape:connector-curvature="0"
   style="fill:none;stroke:#010101;stroke-width:0.50050002;stroke-miterlimit:3.53119993" />
		</g>
		<g
   id="g3895">
			<path
   class="st1"
   d="m 175,123.7 h 7 V 77.3 h -7 v -0.9 h 36 v 11.7 h -0.7 c -0.5,-1.8 -1.1,-3.3 -1.8,-4.6 -0.6,-1.3 -1.4,-2.5 -2.3,-3.4 -0.9,-0.9 -1.9,-1.6 -3.1,-2.1 -1.2,-0.5 -2.7,-0.7 -4.4,-0.7 h -10.4 v 21 h 4.1 c 1.4,0 2.6,-0.1 3.5,-0.4 1,-0.3 1.8,-0.8 2.5,-1.5 0.7,-0.7 1.3,-1.8 1.8,-3.1 0.5,-1.3 1,-3 1.4,-5 h 0.7 v 21.1 h -0.7 c -0.3,-1.3 -0.6,-2.6 -0.9,-3.8 -0.3,-1.2 -0.8,-2.3 -1.3,-3.3 -0.5,-1 -1.3,-1.7 -2.3,-2.3 -0.9,-0.6 -2.2,-0.8 -3.7,-0.8 h -5.1 v 24.5 h 11.9 c 2.3,0 4.2,-0.5 5.7,-1.6 1.5,-1.1 2.8,-2.3 3.7,-3.8 1,-1.5 1.7,-3 2.1,-4.6 0.5,-1.6 0.8,-2.9 0.9,-3.9 h 0.7 v 14.9 H 175 Z"
   id="path3891"
   inkscape:connector-curvature="0"
   style="fill:none;stroke:#010101;stroke-width:0.50050002;stroke-miterlimit:3.53119993" />
			<path
   class="st1"
   d="m 223.8,123.7 h 7 V 77.3 h -7 v -0.9 h 13.4 l 21.2,37 h 0.1 v -36 h -7 v -0.9 h 14.9 v 0.9 h -7 v 48.3 h -1.3 L 231.7,80.2 h -0.1 v 43.6 h 7 v 1 h -14.9 v -1.1 z"
   id="path3893"
   inkscape:connector-curvature="0"
   style="fill:none;stroke:#010101;stroke-width:0.50050002;stroke-miterlimit:3.53119993" />
		</g>
		<g
   id="g3901">
			<path
   class="st1"
   d="m 312,124.6 h -1 c -0.3,-0.4 -0.6,-0.7 -1,-1 -0.4,-0.3 -1,-0.4 -1.8,-0.4 -0.6,0 -1.3,0.1 -2,0.4 -0.7,0.2 -1.6,0.5 -2.5,0.8 -0.9,0.3 -2,0.6 -3.2,0.8 -1.2,0.2 -2.5,0.4 -3.9,0.4 -2.6,0 -5.2,-0.5 -7.7,-1.6 -2.5,-1 -4.8,-2.7 -7.1,-5.1 -2.1,-2.2 -3.8,-4.8 -5.2,-7.9 -1.4,-3 -2.1,-6.5 -2.1,-10.5 0,-3.4 0.6,-6.6 1.7,-9.7 1.1,-3.1 2.7,-5.8 4.7,-8.1 2,-2.4 4.4,-4.2 7.1,-5.6 2.7,-1.4 5.7,-2.1 8.9,-2.1 1.3,0 2.4,0.1 3.5,0.4 1,0.3 1.9,0.6 2.7,0.9 0.8,0.3 1.5,0.6 2.2,0.9 0.7,0.3 1.3,0.4 1.9,0.4 0.8,0 1.4,-0.1 1.8,-0.4 0.4,-0.3 0.7,-0.6 1,-1 h 0.9 v 13.6 h -0.7 c -0.4,-1.7 -0.9,-3.4 -1.4,-5.1 -0.6,-1.7 -1.4,-3.2 -2.4,-4.4 -1,-1.3 -2.4,-2.3 -4,-3.1 -1.6,-0.8 -3.6,-1.2 -6,-1.2 -2.2,0 -4.1,0.4 -5.7,1.1 -1.6,0.7 -2.9,1.7 -4,3 -1.1,1.2 -2,2.7 -2.6,4.3 -0.6,1.7 -1.1,3.4 -1.5,5.2 -0.3,1.8 -0.6,3.7 -0.7,5.6 -0.1,1.9 -0.2,3.7 -0.2,5.3 0,4.7 0.4,8.7 1.1,11.8 0.7,3.1 1.7,5.6 3,7.4 1.3,1.8 2.8,3.1 4.6,3.8 1.8,0.7 3.8,1.1 6,1.1 2.8,0 5.1,-0.4 6.8,-1.3 1.7,-0.9 3.1,-2 4.1,-3.4 1,-1.4 1.8,-2.9 2.4,-4.7 0.5,-1.7 1,-3.5 1.4,-5.2 h 0.7 v 14.6 z"
   id="path3897"
   inkscape:connector-curvature="0"
   style="fill:none;stroke:#010101;stroke-width:0.50050002;stroke-miterlimit:3.53119993" />
			<path
   class="st1"
   d="m 322.3,123.7 h 7 V 77.3 h -7 v -0.9 h 20.2 v 0.9 h -7 v 22.2 h 20.9 V 77.3 h -7 v -0.9 h 20.2 v 0.9 h -7 v 46.4 h 7 v 1 h -20.2 v -1 h 7 v -23.3 h -20.9 v 23.3 h 7 v 1 h -20.2 z"
   id="path3899"
   inkscape:connector-curvature="0"
   style="fill:none;stroke:#010101;stroke-width:0.50050002;stroke-miterlimit:3.53119993" />
		</g>
		<g
   id="g3907">
			<path
   class="st1"
   d="m 409.8,123.7 h 7 V 77.3 h -3.6 c -0.8,0 -1.8,0.1 -2.8,0.2 -1,0.2 -2.1,0.6 -3.2,1.3 -1.1,0.7 -2.1,1.9 -3.1,3.4 -1,1.6 -1.8,3.7 -2.5,6.5 h -0.7 V 76.3 H 439 v 12.4 h -0.7 c -0.7,-2.8 -1.6,-4.9 -2.5,-6.5 -0.9,-1.6 -2,-2.7 -3.1,-3.4 -1.1,-0.7 -2.1,-1.2 -3.2,-1.3 -1,-0.2 -2,-0.2 -2.8,-0.2 h -3.6 v 46.4 h 7 v 1 h -20.2 v -1 z"
   id="path3903"
   inkscape:connector-curvature="0"
   style="fill:none;stroke:#010101;stroke-width:0.50050002;stroke-miterlimit:3.53119993" />
			<path
   class="st1"
   d="m 443.2,123.7 h 5.5 l 17,-48.6 h 1.5 l 17.1,48.6 h 5.6 v 1 h -19.3 v -1 h 7 L 471,104.8 h -14.6 l -6.6,18.9 h 7 v 1 h -13.5 v -1 z m 20.4,-39.6 -6.9,19.7 h 13.8 z"
   id="path3905"
   inkscape:connector-curvature="0"
   style="fill:none;stroke:#010101;stroke-width:0.50050002;stroke-miterlimit:3.53119993" />
		</g>
		<g
   id="g3913">
			<path
   class="st1"
   d="m 498.7,123.7 h 7 V 77.3 h -7 v -0.9 h 11 c 0.6,0 1.3,0 1.9,0 0.6,0 1.3,-0.1 2,-0.1 0.7,0 1.3,0 1.9,0 0.6,0 1.2,0 1.8,0 3.1,0 5.6,0.4 7.5,1.2 2,0.8 3.5,1.8 4.6,2.9 1.1,1.2 1.9,2.4 2.3,3.7 0.4,1.3 0.6,2.5 0.6,3.6 0,1.5 -0.3,2.9 -0.9,4.1 -0.6,1.3 -1.4,2.4 -2.5,3.3 -1,0.9 -2.2,1.7 -3.5,2.3 -1.3,0.6 -2.7,1 -4.2,1.2 v 0.1 c 1.5,0.1 3,0.5 4.6,1.1 1.6,0.6 3,1.4 4.3,2.4 1.3,1 2.3,2.3 3.1,3.8 0.8,1.5 1.2,3.2 1.2,5.2 0,2 -0.4,3.9 -1.1,5.6 -0.7,1.7 -1.8,3.2 -3.2,4.4 -1.4,1.2 -3.2,2.2 -5.4,2.9 -2.2,0.7 -4.7,1.1 -7.6,1.1 -0.6,0 -1.2,0 -1.7,0 -0.6,0 -1.2,-0.1 -1.8,-0.1 -0.6,0 -1.3,-0.1 -1.9,-0.1 -0.7,0 -1.4,0 -2.1,0 h -11 v -1.3 z m 13.2,-25.5 h 5.8 c 1.2,0 2.2,-0.2 3.2,-0.5 1,-0.3 1.8,-0.9 2.5,-1.7 0.7,-0.8 1.2,-1.9 1.6,-3.2 0.4,-1.3 0.6,-3.1 0.6,-5.2 0,-2.4 -0.3,-4.2 -0.8,-5.7 -0.6,-1.4 -1.3,-2.5 -2.2,-3.2 -0.9,-0.7 -1.9,-1.2 -3,-1.4 -1.1,-0.2 -2.2,-0.3 -3.3,-0.3 -0.8,0 -1.5,0 -2.3,0 -0.8,0 -1.4,0.1 -2,0.2 v 21 z m 0,25.5 c 0.5,0 1.1,0.1 1.7,0.2 0.6,0.1 1.5,0.1 2.6,0.1 2,0 3.7,-0.2 5.1,-0.6 1.4,-0.4 2.6,-1.1 3.5,-2.1 0.9,-1 1.6,-2.4 2,-4 0.4,-1.7 0.6,-3.8 0.6,-6.3 0,-3.6 -0.7,-6.5 -2.1,-8.5 -1.4,-2.1 -3.5,-3.1 -6.3,-3.1 h -6.9 v 24.3 z"
   id="path3909"
   inkscape:connector-curvature="0"
   style="fill:none;stroke:#010101;stroke-width:0.50050002;stroke-miterlimit:3.53119993" />
			<path
   class="st1"
   d="m 543.1,123.7 h 7 V 77.3 h -7 v -0.9 h 20.2 v 0.9 h -7 v 46.4 h 11.2 c 3.7,0 6.6,-1.2 8.7,-3.7 2.1,-2.5 3.6,-5.9 4.6,-10.2 h 0.7 v 14.9 h -38.4 z"
   id="path3911"
   inkscape:connector-curvature="0"
   style="fill:none;stroke:#010101;stroke-width:0.50050002;stroke-miterlimit:3.53119993" />
		</g>
		<g
   id="g3919">
			<path
   class="st1"
   d="m 591.6,123.7 h 7 V 77.3 h -7 v -0.9 h 35.9 v 11.7 h -0.7 c -0.5,-1.8 -1.1,-3.3 -1.8,-4.6 -0.6,-1.3 -1.4,-2.5 -2.3,-3.4 -0.9,-0.9 -1.9,-1.6 -3.1,-2.1 -1.2,-0.5 -2.7,-0.7 -4.4,-0.7 h -10.4 v 21 h 4.1 c 1.4,0 2.6,-0.1 3.5,-0.4 1,-0.3 1.8,-0.8 2.5,-1.5 0.7,-0.7 1.3,-1.8 1.8,-3.1 0.5,-1.3 1,-3 1.4,-5 h 0.7 v 21.1 h -0.7 c -0.3,-1.3 -0.6,-2.6 -0.9,-3.8 -0.3,-1.2 -0.8,-2.3 -1.3,-3.3 -0.6,-0.9 -1.3,-1.7 -2.3,-2.3 -0.9,-0.6 -2.2,-0.8 -3.7,-0.8 h -5.1 v 24.5 h 11.9 c 2.3,0 4.2,-0.5 5.7,-1.6 1.5,-1.1 2.8,-2.3 3.7,-3.8 0.9,-1.5 1.7,-3 2.1,-4.6 0.5,-1.6 0.8,-2.9 0.9,-3.9 h 0.7 v 14.9 h -38.3 v -1 z"
   id="path3915"
   inkscape:connector-curvature="0"
   style="fill:none;stroke:#010101;stroke-width:0.50050002;stroke-miterlimit:3.53119993" />
			<path
   class="st1"
   d="m 643.1,110 h 0.7 c 0.5,2.4 1.1,4.5 1.8,6.2 0.7,1.7 1.5,3.1 2.4,4.1 0.9,1.1 1.8,1.9 2.8,2.5 1,0.6 1.9,1 2.9,1.3 1,0.3 1.9,0.4 2.8,0.5 0.9,0.1 1.7,0.1 2.5,0.1 2.2,0 4,-0.4 5.5,-1.1 1.4,-0.7 2.6,-1.6 3.4,-2.7 0.8,-1.1 1.4,-2.3 1.8,-3.6 0.3,-1.3 0.5,-2.5 0.5,-3.6 0,-1.6 -0.3,-2.9 -0.8,-4.1 -0.5,-1.1 -1.2,-2.1 -2.1,-2.9 -0.8,-0.8 -1.8,-1.4 -2.7,-1.9 -1,-0.5 -1.9,-0.9 -2.8,-1.2 l -7.2,-2.4 c -3.4,-1.1 -6,-2.6 -7.7,-4.5 -1.7,-1.9 -2.6,-4.3 -2.6,-7.5 0,-2 0.3,-3.9 1,-5.7 0.7,-1.7 1.6,-3.2 2.8,-4.5 1.2,-1.3 2.7,-2.3 4.4,-3 1.7,-0.7 3.6,-1.1 5.6,-1.1 1.5,0 2.7,0.1 3.7,0.4 1,0.3 1.8,0.6 2.5,0.9 0.7,0.3 1.3,0.6 1.9,0.9 0.6,0.3 1.1,0.4 1.7,0.4 0.5,0 0.9,-0.1 1.1,-0.2 0.2,-0.2 0.4,-0.6 0.8,-1.2 h 0.9 v 12.3 h -0.8 c -0.2,-1.6 -0.7,-3.2 -1.3,-4.7 -0.6,-1.5 -1.4,-2.8 -2.4,-4 -1,-1.2 -2.1,-2.1 -3.5,-2.8 -1.4,-0.7 -2.9,-1.1 -4.7,-1.1 -1,0 -2.1,0.1 -3.3,0.4 -1.2,0.3 -2.3,0.8 -3.4,1.5 -1,0.7 -1.9,1.7 -2.6,2.8 -0.7,1.2 -1,2.7 -1,4.5 0,1.4 0.3,2.7 0.8,3.7 0.5,1 1.2,1.9 2.1,2.6 0.9,0.7 1.8,1.3 2.9,1.8 1.1,0.5 2.1,0.9 3.2,1.3 l 7.6,2.6 c 0.8,0.3 1.8,0.6 3,1.1 1.2,0.5 2.4,1.1 3.5,2 1.2,0.9 2.1,2.1 3,3.6 0.8,1.5 1.2,3.4 1.2,5.7 0,2.1 -0.4,4.1 -1.1,6.1 -0.7,1.9 -1.8,3.6 -3.2,5.1 -1.4,1.5 -3.1,2.6 -5,3.5 -2,0.9 -4.2,1.3 -6.7,1.3 -0.9,0 -1.7,0 -2.3,0 -0.7,0 -1.3,-0.1 -1.9,-0.2 -0.6,-0.1 -1.2,-0.2 -1.8,-0.3 -0.6,-0.1 -1.2,-0.3 -1.9,-0.5 -0.8,-0.3 -1.7,-0.6 -2.7,-1 -1,-0.4 -1.8,-0.5 -2.5,-0.5 -0.6,0 -1.1,0.1 -1.3,0.4 -0.2,0.3 -0.4,0.6 -0.6,1.1 h -0.9 z"
   id="path3917"
   inkscape:connector-curvature="0"
   style="fill:none;stroke:#010101;stroke-width:0.50050002;stroke-miterlimit:3.53119993" />
		</g>
	</g>
</g>
</svg>