<!-- Generated by IcoMoon.io -->
<svg version="1.1" xmlns="http://www.w3.org/2000/svg" width="1392" height="1024" viewBox="0 0 1392 1024">
<title></title>
<g id="icomoon-ignore">
</g>
<path fill="#fff" d="M684.545 831.872h-3.716v13.005h3.097c0-3.716 0.619-8.050 0.619-13.005z"></path>
<path fill="#fff" d="M1279.079 831.872l-248.961-653.986h-21.676l-37.159 99.089c4.955 14.244 8.050 24.772 8.050 24.772v0l99.708 263.205h-178.979l-3.097 13.005h187.031l95.992 253.917h-101.566v13.005h281.784v-13.005h-81.129z"></path>
<path fill="#fff" d="M677.733 206.993h0.619v-13.005h-100.947l-169.071 491.728h-1.858l-169.071-491.728h-205.61v13.005h101.566v624.879h-101.566v13.005h216.757v-13.005h-101.566v-613.11h1.858l217.375 627.353 218.615-633.551h1.858v619.306h-101.566v13.005h294.17v-13.005h-101.566z"></path>
</svg>
