<!-- Generated by IcoMoon.io -->
<svg version="1.1" xmlns="http://www.w3.org/2000/svg" width="1903" height="1024" viewBox="0 0 1903 1024">
<title></title>
<g id="icomoon-ignore">
</g>
<path fill="#000" d="M1401.79 538.863l-195.611-513.843h-17.030l-29.196 77.855c3.893 11.192 6.325 19.464 6.325 19.464v0l78.342 206.802h-140.626l-2.433 10.218h146.952l75.422 199.503h-79.801v10.218h221.401v-10.218z"></path>
<path fill="#000" d="M929.307 47.889h0.487v-10.218h-79.315l-132.84 386.356h-1.46l-132.84-386.356h-161.549v10.218h79.801v490.974h-79.801v10.218h170.307v-10.218h-79.801v-481.729h1.46l170.794 492.92 171.767-497.786h1.46v486.594h-79.801v10.218h231.132v-10.218h-79.801z"></path>
<path fill="#000" d="M30.377 783.907h19.464v-131.38h-19.464v-2.919h39.414l32.116 103.159h0.487l32.116-103.159h38.441v2.919h-19.464v131.38h19.464v2.919h-55.958v-2.919h19.464v-129.92h-0.487l-41.847 132.84-41.36-131.38h-0.487v128.46h19.464v2.919h-41.36v-2.919z"></path>
<path fill="#000" d="M189.494 783.907h15.571l47.2-137.22h4.379l47.2 137.22h15.571v2.919h-53.525v-2.919h19.464l-18.49-53.525h-40.387l-18.49 53.525h19.464v2.919h-37.468v-2.919zM246.425 671.99l-18.977 55.958h38.441z"></path>
<path fill="#000" d="M336.445 783.907h19.464v-131.38h-19.464v-2.919h33.089c1.46 0 2.919 0 4.379 0s2.919 0 4.379-0.487c1.46 0 2.919 0 4.379 0s2.919 0 4.379 0c6.812 0 13.138 0.487 18.004 1.46 5.352 0.973 10.218 3.406 14.598 7.299 3.893 3.406 6.812 7.299 8.759 11.678 1.46 4.379 2.433 8.272 2.433 12.165 0 1.946-0.487 4.379-0.973 7.299s-1.946 5.839-4.379 9.245c-1.946 2.919-5.352 5.839-9.245 8.759-3.893 2.433-9.245 4.379-16.057 5.352v0.487c1.946 0.487 4.379 0.973 7.785 1.46s6.325 1.946 9.731 3.406c3.406 1.46 6.325 3.893 9.245 6.812s4.866 6.325 5.839 10.705c0.487 2.433 0.973 5.352 1.46 8.759s0.487 6.812 0.487 10.218c0 3.406 0.487 6.812 0.487 9.731 0 3.406 0.487 5.839 0.973 8.272 0.487 3.406 1.946 6.325 3.406 9.245s3.893 3.893 7.299 3.893c1.46 0 2.919-0.487 4.866-0.973 1.46-0.487 2.919-1.46 4.379-2.919l1.46 1.946c-0.487 0.487-1.46 0.973-1.946 1.46-0.973 0.487-1.946 0.973-2.919 1.46s-2.433 0.973-4.379 1.46c-1.46 0.487-3.893 0.487-6.325 0.487-4.866 0-8.759-0.487-11.678-1.946s-5.352-3.406-7.299-5.839c-1.947-2.433-3.406-5.352-3.893-9.245-0.973-3.406-1.46-7.785-1.946-12.651l-1.46-17.517c-0.487-6.325-1.46-11.192-3.406-15.084-1.946-3.406-3.893-6.325-6.325-7.785s-4.866-2.433-7.785-2.919c-2.433-0.487-4.866-0.487-6.812-0.487h-17.517v69.096h19.464v2.919h-55.958v-2.919zM372.94 711.891h16.057c3.406 0 6.325-0.487 8.759-1.46s4.866-2.433 6.812-4.866c1.946-2.433 3.406-5.352 4.379-9.245s1.46-8.759 1.46-14.598c0-6.812-0.973-12.165-2.433-16.057s-3.406-7.299-6.325-9.245c-2.433-1.946-5.352-3.406-8.272-3.893s-6.325-0.973-9.245-0.973c-1.946 0-4.379 0-6.325 0s-3.893 0-5.352 0.487v59.852z"></path>
<path fill="#000" d="M474.151 783.907h19.464v-131.38h-19.464v-2.919h54.498v2.919h-18.004v60.825h1.946l52.552-60.825h-17.517v-2.919h36.008v2.919h-14.598l-44.28 51.578 63.258 79.801h11.678v2.919h-50.606v-2.919h15.571l-52.065-67.637h-1.46v67.637h18.004v2.919h-54.498v-2.919z"></path>
<path fill="#000" d="M655.164 783.907h15.571l47.2-137.22h4.379l47.2 137.22h15.571v2.919h-53.525v-2.919h19.464l-18.49-53.525h-40.387l-18.49 53.525h19.464v2.919h-37.468v-2.919zM712.097 671.99l-18.977 55.958h38.441z"></path>
<path fill="#000" d="M802.116 783.907h19.464v-131.38h-19.464v-2.919h55.958v2.919h-19.464v131.38h31.142c10.218 0 18.49-3.406 23.843-10.705 5.839-6.812 10.218-16.544 12.651-28.709h1.946v41.847h-106.565v-2.433z"></path>
<path fill="#000" d="M929.604 783.907h19.464v-131.38h-19.464v-2.919h99.753v33.089h-1.946c-1.46-4.866-2.919-9.245-4.866-13.138s-3.893-6.812-6.325-9.731c-2.433-2.433-5.352-4.379-8.759-5.839s-7.299-1.946-12.165-1.946h-28.709v59.852h11.192c3.893 0 7.299-0.487 9.731-0.973 2.433-0.973 4.866-2.433 6.812-4.379s3.406-4.866 4.866-8.759c1.46-3.406 2.433-8.272 3.893-14.111h1.946v59.852h-1.946c-0.973-3.893-1.46-7.299-2.433-10.705s-1.946-6.325-3.893-9.245c-1.46-2.919-3.893-4.866-6.325-6.325s-5.839-2.433-10.218-2.433h-14.111v69.096h33.089c6.325 0 11.678-1.46 16.057-4.379s7.785-6.812 10.218-10.705c2.433-4.379 4.866-8.272 5.839-13.138 1.46-4.379 1.946-8.272 2.433-11.192h1.946v41.847h-106.565v-2.433z"></path>
<path fill="#000" d="M1058.551 783.907h16.544l35.035-64.231-36.981-67.15h-14.598v-2.919h52.065v2.919h-16.544l27.736 50.606 27.736-50.606h-16.544v-2.919h36.495v2.919h-16.544l-29.196 53.038 43.307 77.855h14.598v2.919h-52.065v-2.919h16.544l-34.061-61.312-34.061 61.798h16.544v2.919h-36.008v-2.919z"></path>
<path fill="#000" d="M1198.204 783.907h15.571l47.2-137.22h4.379l47.2 137.22h15.571v2.919h-53.525v-2.919h19.464l-18.49-53.525h-40.387l-18.49 53.525h19.464v2.919h-37.468v-2.919zM1254.649 671.99l-18.977 55.958h38.441z"></path>
<path fill="#000" d="M1344.181 783.907h19.464v-131.38h-19.464v-2.919h37.468l58.878 104.618h0.487v-101.699h-19.464v-2.919h41.36v2.919h-19.464v136.734h-3.406l-73.476-128.46h-0.487v123.108h19.464v2.919h-41.36z"></path>
<path fill="#000" d="M1481.888 783.907h19.464v-131.38h-19.464v-2.919h32.602c1.46 0 3.406 0 4.866 0s3.406 0 4.866-0.487c1.46 0 3.406 0 4.866 0s3.406 0 4.866 0c1.46 0 6.812 0 9.245 0 2.919 0 5.352 0.487 7.785 0.487 2.433 0.487 4.866 0.973 6.812 1.46s4.379 1.46 6.812 2.433c7.299 2.433 13.138 5.839 18.49 10.218s9.245 9.245 12.651 15.084c3.406 5.839 5.839 11.678 7.299 18.49s2.433 13.624 2.433 20.924c0 8.272-0.973 16.057-2.919 22.87s-4.379 12.651-7.785 18.004c-3.406 5.353-7.299 9.731-11.192 13.624-4.379 3.893-9.245 6.812-14.111 9.245-2.919 1.46-5.352 2.433-7.785 3.406s-4.866 1.46-7.785 1.946c-2.433 0.487-5.352 0.487-8.759 0.973-2.919 0-6.812 0-10.705 0-1.946 0-3.406 0-5.352 0s-3.893 0-5.839-0.487c-1.946 0-3.893 0-5.839-0.487-1.946 0-3.893 0-5.352 0h-30.169v-3.406zM1518.382 783.907c1.946 0.487 4.379 0.487 6.812 0.487s5.352 0 8.759 0c3.893 0 7.785 0 11.678-0.487s7.785-1.46 11.192-2.919c3.406-1.46 6.812-3.406 9.731-6.325s5.839-6.325 8.272-10.705c3.893-6.812 6.325-14.111 7.785-21.411s1.946-15.084 1.946-23.843c0-10.218-0.973-19.464-2.433-27.736-1.946-8.272-4.379-15.084-8.759-20.924-3.893-5.839-9.245-10.218-16.057-13.624s-14.598-4.866-24.817-4.866c-2.919 0-5.352 0-7.785 0s-4.866 0.487-6.812 0.487v131.866z"></path>
<path fill="#000" d="M1622.514 783.907h19.464v-131.38h-19.464v-2.919h99.753v33.089h-1.946c-1.46-4.866-2.919-9.245-4.866-13.138s-3.893-6.812-6.325-9.731c-2.433-2.433-5.352-4.379-8.759-5.839s-7.299-1.946-12.165-1.946h-28.709v59.852h11.192c3.893 0 7.299-0.487 9.731-0.973 2.433-0.973 4.866-2.433 6.812-4.379s3.406-4.866 4.866-8.759c1.46-3.406 2.433-8.272 3.893-14.111h1.946v59.852h-1.946c-0.973-3.893-1.46-7.299-2.433-10.705s-1.946-6.325-3.893-9.245c-1.46-2.919-3.893-4.866-6.325-6.325s-5.839-2.433-10.218-2.433h-14.111v69.096h33.089c6.325 0 11.678-1.46 16.057-4.379s7.785-6.812 10.218-10.705c2.433-4.379 4.866-8.272 5.839-13.138 1.46-4.379 1.946-8.272 2.433-11.192h1.946v41.847h-106.565v-2.433z"></path>
<path fill="#000" d="M1751.461 783.907h19.464v-131.38h-19.464v-2.919h33.089c1.46 0 2.919 0 4.379 0s2.919 0 4.379-0.487c1.46 0 2.919 0 4.379 0s2.919 0 4.379 0c6.812 0 13.138 0.487 18.004 1.46 5.352 0.973 10.218 3.406 14.598 7.299 3.893 3.406 6.812 7.299 8.759 11.678 1.46 4.379 2.433 8.272 2.433 12.165 0 1.946-0.487 4.379-0.973 7.299s-1.946 5.839-4.379 9.245c-1.946 2.919-5.352 5.839-9.245 8.759-3.893 2.433-9.245 4.379-16.057 5.352v0.487c1.946 0.487 4.379 0.973 7.785 1.46s6.325 1.946 9.731 3.406c3.406 1.46 6.325 3.893 9.245 6.812s4.866 6.325 5.839 10.705c0.487 2.433 0.973 5.352 1.46 8.759s0.487 6.812 0.487 10.218c0 3.406 0.487 6.812 0.487 9.731 0 3.406 0.487 5.839 0.973 8.272 0.487 3.406 1.946 6.325 3.406 9.245s3.893 3.893 7.299 3.893c1.46 0 2.919-0.487 4.866-0.973 1.46-0.487 2.919-1.46 4.379-2.919l1.46 1.946c-0.487 0.487-1.46 0.973-1.946 1.46-0.973 0.487-1.946 0.973-2.919 1.46s-2.433 0.973-4.379 1.46c-1.46 0.487-3.893 0.487-6.325 0.487-4.866 0-8.759-0.487-11.678-1.946s-5.352-3.406-7.299-5.839c-1.947-2.433-3.406-5.352-3.893-9.245-0.973-3.406-1.46-7.785-1.946-12.651l-1.46-17.517c-0.487-6.325-1.46-11.192-3.406-15.084-1.946-3.406-3.893-6.325-6.325-7.785s-4.866-2.433-7.785-2.919c-2.433-0.487-4.866-0.487-6.812-0.487h-18.004v69.096h19.464v2.919h-55.958v-2.919zM1788.442 711.891h16.057c3.406 0 6.325-0.487 8.759-1.46s4.866-2.433 6.812-4.866c1.946-2.433 3.406-5.352 4.379-9.245s1.46-8.759 1.46-14.598c0-6.812-0.973-12.165-2.433-16.057s-3.406-7.299-6.325-9.245c-2.433-1.946-5.352-3.406-8.272-3.893s-6.325-0.973-9.245-0.973c-1.946 0-4.379 0-6.325 0s-3.893 0-5.352 0.487v59.852z"></path>
<path fill="#000" d="M213.337 994.602h16.057v-108.997h-16.057v-2.433h26.763c1.46 0 2.919 0 3.893 0 1.46 0 2.919 0 3.893 0 1.46 0 2.919 0 3.893 0 1.46 0 2.919 0 3.893 0 2.919 0 5.352 0 7.785 0s4.379 0.487 6.325 0.487c1.946 0.487 3.893 0.487 5.839 0.973s3.893 0.973 5.839 1.946c5.839 1.946 11.192 4.866 15.084 8.759 4.379 3.406 7.785 7.785 10.705 12.165 2.919 4.866 4.866 9.731 5.839 15.084 1.46 5.352 1.946 11.192 1.946 17.517 0 6.812-0.973 13.138-2.433 18.977-1.46 5.352-3.893 10.705-6.325 14.598-2.919 4.379-5.839 7.785-9.245 11.192-3.406 2.919-7.299 5.839-11.678 7.785-2.433 0.973-4.379 1.946-6.812 2.919-1.946 0.487-4.379 0.973-6.325 1.46s-4.379 0.487-7.299 0.487c-2.433 0-5.352 0-8.759 0-1.46 0-2.919 0-4.866 0-1.46 0-3.406 0-4.866 0s-3.406 0-4.866 0c-1.46 0-2.919 0-4.379 0h-24.817v-2.919zM243.993 994.602c1.46 0 3.406 0.487 5.839 0.487 1.946 0 4.379 0 7.299 0 3.406 0 6.325 0 9.731-0.487s6.325-0.973 9.245-2.433c2.919-0.973 5.839-2.919 8.272-5.352s4.866-5.352 6.812-8.759c2.919-5.839 5.352-11.678 6.325-17.517s1.946-12.651 1.946-19.464c0-8.272-0.487-16.057-1.946-22.87s-3.893-12.651-7.299-17.517c-3.406-4.866-7.785-8.759-13.138-11.192s-12.165-3.893-20.437-3.893c-2.433 0-4.379 0-6.812 0-1.946 0-3.893 0-5.839 0.487v108.511z"></path>
<path fill="#000" d="M329.147 994.602h16.057v-108.997h-16.057v-2.433h82.721v27.736h-1.46c-1.46-4.379-2.433-7.785-3.893-10.705s-3.406-5.839-5.352-7.785c-1.946-1.946-4.379-3.893-7.299-4.866s-6.325-1.46-10.218-1.46h-23.843v49.146h9.245c3.406 0 5.839-0.487 8.272-0.973s3.893-1.946 5.839-3.406c1.46-1.946 2.919-3.893 3.893-7.299 0.973-2.919 2.433-6.812 3.406-11.678h1.46v49.632h-1.46c-0.487-2.919-1.46-5.839-1.946-8.759s-1.946-5.352-2.919-7.785c-1.46-2.433-2.919-3.893-5.352-5.352-1.946-1.46-4.866-1.946-8.272-1.946h-11.678v57.418h27.249c5.352 0 9.731-1.46 13.138-3.893s6.325-5.352 8.759-8.759c2.433-3.406 3.893-6.812 4.866-10.705s1.946-6.812 1.946-9.245h1.46v35.035h-88.073v-2.919z"></path>
<path fill="#000" d="M441.063 962.488h1.46c0.973 5.839 2.433 10.705 3.893 14.598s3.406 7.299 5.352 9.731c1.946 2.433 4.379 4.379 6.325 5.839 2.433 1.46 4.379 2.433 6.812 2.919s4.379 0.973 6.325 0.973c1.946 0 3.893 0 5.839 0 5.352 0 9.245-0.973 12.651-2.433s5.839-3.893 7.785-6.325c1.947-2.433 3.406-5.352 3.893-8.272 0.973-2.919 0.973-5.839 0.973-8.272 0-3.893-0.487-6.812-1.946-9.731-1.46-2.433-2.919-4.866-4.866-6.812s-3.893-3.406-6.325-4.379c-2.433-0.973-4.379-1.946-6.325-2.919l-16.544-5.352c-7.785-2.433-13.624-6.325-17.517-10.705s-5.839-10.218-5.839-17.517c0-4.866 0.973-9.245 2.433-13.138s3.893-7.785 6.325-10.705c2.433-2.919 6.325-5.352 10.218-6.812s8.272-2.433 12.651-2.433c3.406 0 6.325 0.487 8.272 0.973s4.379 1.46 5.839 1.946c1.46 0.973 2.919 1.46 4.379 1.946s2.433 0.973 3.893 0.973c1.46 0 1.946 0 2.433-0.487s0.973-1.46 1.946-2.919h1.946v28.709h-1.946c-0.487-3.893-1.46-7.299-2.919-11.192-1.46-3.406-3.406-6.812-5.352-9.245-2.433-2.919-4.866-4.866-8.272-6.325-2.919-1.46-6.812-2.433-10.705-2.433-2.433 0-4.866 0.487-7.785 0.973s-5.352 1.946-7.785 3.406c-2.433 1.46-4.379 3.893-5.839 6.812s-2.433 6.325-2.433 10.705c0 3.406 0.487 6.325 1.946 8.759s2.919 4.379 4.866 5.839c1.946 1.46 4.379 2.919 6.812 4.379 2.433 0.973 4.866 1.946 7.299 2.919l17.517 5.839c1.946 0.487 4.379 1.46 6.812 2.433s5.352 2.433 8.272 4.866c2.433 1.946 4.866 4.866 6.812 8.272s2.919 7.785 2.919 13.138c0 4.866-0.973 9.731-2.433 14.111s-3.893 8.272-7.299 12.165c-3.406 3.406-6.812 6.325-11.678 8.272-4.379 1.946-9.731 2.919-15.571 2.919-1.946 0-3.893 0-5.352 0s-2.919 0-4.379-0.487c-1.46 0-2.919-0.487-3.893-0.487-1.46-0.487-2.919-0.487-4.379-0.973-1.946-0.487-3.893-1.46-6.325-2.433s-4.379-1.46-5.839-1.46c-1.46 0-2.433 0.487-2.919 0.973s-0.973 1.46-1.46 2.433h-1.946v-33.575z"></path>
<path fill="#000" d="M528.65 994.602h16.057v-108.997h-16.057v-2.433h46.713v2.433h-16.057v108.997h16.057v2.433h-46.713z"></path>
<path fill="#000" d="M689.712 956.16h-11.678v36.008h-1.946c-0.973-0.973-1.946-1.946-2.433-2.433s-1.946-0.487-3.406-0.487c-1.946 0-3.406 0.487-5.352 1.46s-3.893 1.946-6.325 3.406c-2.433 1.46-5.352 2.433-8.272 3.406s-6.812 1.46-11.678 1.46c-6.812 0-13.138-1.46-18.004-3.893-5.352-2.433-10.218-6.325-15.571-11.678-4.866-5.352-8.759-11.678-12.165-18.977s-4.866-15.571-4.866-24.33c0-5.839 0.487-11.678 1.946-16.544s2.919-9.245 4.379-12.651c1.946-3.406 3.406-6.812 5.352-9.245s3.406-4.379 4.866-5.839c4.379-4.866 9.245-8.759 15.084-11.678 5.352-2.919 12.165-4.379 18.977-4.379 3.893 0 6.812 0.487 9.245 0.973s4.379 1.46 6.325 1.946c1.946 0.973 3.406 1.46 4.866 1.946s2.919 0.973 4.866 0.973c1.946 0 3.406-0.487 3.893-0.973 0.973-0.487 1.46-1.46 2.433-2.433h1.946v31.629h-1.46c-0.487-2.919-0.973-5.839-2.433-9.731s-2.919-7.299-5.352-10.705c-2.433-3.406-5.352-6.325-9.245-8.759s-8.759-3.406-15.084-3.406c-7.299 0-13.138 1.46-17.517 4.866s-7.785 7.785-10.218 13.138c-2.433 5.352-3.893 11.678-4.866 18.49s-1.46 13.624-1.46 20.924c0 4.866 0 9.731 0.487 14.111s0.973 9.245 1.946 13.624c0.973 4.379 2.433 8.272 3.893 11.678s3.893 6.812 6.325 9.245c2.919 2.919 5.839 4.866 8.759 5.839s7.299 1.46 12.165 1.46c2.919 0 5.839-0.487 8.759-1.46s5.839-2.919 8.272-4.866c2.433-2.433 4.379-4.866 5.839-8.759 1.46-3.406 2.433-7.299 2.433-12.165v-13.138h-18.49v-2.433h44.28v4.379z"></path>
<path fill="#000" d="M697.986 994.602h16.057v-108.997h-16.057v-2.433h31.142l49.146 86.613h0.487v-84.667h-16.057v-2.433h34.061v2.433h-16.057v113.863h-2.919l-60.825-106.565h-0.487v102.185h16.057v2.433h-34.061v-2.433z"></path>
<path fill="#000" d="M843.963 994.602h12.651l38.928-113.863h3.406l39.414 113.863h12.651v2.433h-44.766v-2.433h16.057l-14.598-44.28h-33.575l-15.084 44.28h16.057v2.433h-31.142v-2.433zM890.677 901.663l-16.057 46.226h31.629z"></path>
<path fill="#000" d="M964.639 994.602h16.057v-108.997h-16.057v-2.433h27.249c0.973 0 2.433 0 3.406 0s2.433 0 3.406 0c0.973 0 2.433 0 3.406 0s2.433 0 3.406 0c5.839 0 10.705 0.487 15.084 0.973s8.272 2.919 12.165 5.839c3.406 2.919 5.839 6.325 7.299 9.731s1.946 6.812 1.946 10.218c0 1.46-0.487 3.406-0.973 6.325-0.487 2.433-1.46 4.866-3.406 7.785-1.946 2.433-4.379 4.866-7.785 7.299-3.406 1.946-7.785 3.406-13.624 4.379v0.487c1.46 0 3.406 0.487 6.325 0.973 2.433 0.487 5.352 1.46 8.272 2.919s5.352 3.406 7.785 5.352c2.433 1.946 3.893 5.352 4.866 8.759 0.487 1.946 0.973 4.379 1.46 7.299 0 2.919 0.487 5.352 0.487 8.272s0.487 5.839 0.487 8.272c0 2.433 0.487 4.866 0.973 6.812 0.487 2.919 1.46 5.352 2.919 7.299 1.46 2.433 3.406 3.406 5.839 3.406 1.46 0 2.433-0.487 3.893-0.973s2.433-1.46 3.406-2.433l1.46 1.946c-0.487 0.487-0.973 0.973-1.46 1.46s-1.46 0.973-2.433 1.46c-0.973 0.487-1.946 0.973-3.406 0.973-1.46 0.487-2.919 0.487-5.352 0.487-3.893 0-7.299-0.487-9.731-1.46s-4.379-2.433-6.325-4.866c-1.46-1.946-2.433-4.379-3.406-7.785-0.487-2.919-1.46-6.325-1.46-10.705l-0.973-14.598c-0.487-5.352-1.46-9.245-2.919-12.651-1.46-2.919-3.406-5.352-5.352-6.325-1.946-1.46-4.379-2.433-6.325-2.433s-4.379-0.487-5.839-0.487h-14.598v57.418h16.057v2.433h-46.713v-2.433zM995.294 934.752h13.138c2.919 0 5.352-0.487 7.299-0.973s3.893-1.946 5.839-3.893c1.46-1.946 2.919-4.379 3.893-7.785s1.46-7.299 1.46-12.165c0-5.352-0.487-9.731-1.946-13.138s-2.919-5.839-4.866-7.785c-1.946-1.46-4.379-2.919-6.812-3.406s-4.866-0.973-7.785-0.973c-1.946 0-3.406 0-5.352 0s-3.406 0-4.379 0.487v49.632z"></path>
<path fill="#000" d="M1088.234 994.602h16.057v-108.997h-8.272c-1.946 0-3.893 0-6.325 0.487s-4.866 1.46-7.299 2.919c-2.433 1.46-4.866 4.379-7.299 8.272s-4.379 8.759-5.839 15.084h-1.46v-29.196h88.073v29.196h-1.46c-1.46-6.325-3.406-11.678-5.839-15.084-2.433-3.893-4.866-6.325-7.299-8.272-2.433-1.46-4.866-2.919-7.299-2.919-2.433-0.487-4.379-0.487-6.325-0.487h-8.272v108.997h16.057v2.433h-46.713v-2.433z"></path>
<path fill="#000" d="M1171.441 994.602h16.057v-108.997h-16.057v-2.433h46.713v2.433h-16.057v108.997h16.057v2.433h-46.713z"></path>
<path fill="#000" d="M1236.645 962.488h1.46c0.973 5.839 2.433 10.705 3.893 14.598s3.406 7.299 5.352 9.731c1.946 2.433 4.379 4.379 6.325 5.839 2.433 1.46 4.379 2.433 6.812 2.919s4.379 0.973 6.325 0.973c1.946 0 3.893 0 5.839 0 5.352 0 9.245-0.973 12.651-2.433s5.839-3.893 7.785-6.325c1.947-2.433 3.406-5.352 3.893-8.272 0.973-2.919 0.973-5.839 0.973-8.272 0-3.893-0.487-6.812-1.946-9.731-1.46-2.433-2.919-4.866-4.866-6.812s-3.893-3.406-6.325-4.379c-2.433-0.973-4.379-1.946-6.325-2.919l-16.544-5.352c-7.785-2.433-13.624-6.325-17.517-10.705s-5.839-10.218-5.839-17.517c0-4.866 0.973-9.245 2.433-13.138s3.893-7.785 6.325-10.705c2.433-2.919 6.325-5.352 10.218-6.812s8.272-2.433 12.651-2.433c3.406 0 6.325 0.487 8.272 0.973s4.379 1.46 5.839 1.946c1.46 0.973 2.919 1.46 4.379 1.946s2.433 0.973 3.893 0.973c1.46 0 1.946 0 2.433-0.487s0.973-1.46 1.946-2.919h1.946v28.709h-1.946c-0.487-3.893-1.46-7.299-2.919-11.192-1.46-3.406-3.406-6.812-5.352-9.245-2.433-2.919-4.866-4.866-8.272-6.325-2.919-1.46-6.812-2.433-10.705-2.433-2.433 0-4.866 0.487-7.785 0.973s-5.352 1.946-7.785 3.406c-2.433 1.46-4.379 3.893-5.839 6.812s-2.433 6.325-2.433 10.705c0 3.406 0.487 6.325 1.946 8.759s2.919 4.379 4.866 5.839c1.946 1.46 4.379 2.919 6.812 4.379 2.433 0.973 4.866 1.946 7.299 2.919l17.517 5.839c1.946 0.487 4.379 1.46 6.812 2.433s5.352 2.433 8.272 4.866c2.433 1.946 4.866 4.866 6.812 8.272s2.919 7.785 2.919 13.138c0 4.866-0.973 9.731-2.433 14.111s-3.893 8.272-7.299 12.165c-3.406 3.406-6.812 6.325-11.678 8.272-4.379 1.946-9.731 2.919-15.571 2.919-1.946 0-3.893 0-5.352 0s-2.919 0-4.379-0.487c-1.46 0-2.919-0.487-3.893-0.487-1.46-0.487-2.919-0.487-4.379-0.973-1.946-0.487-3.893-1.46-6.325-2.433s-4.379-1.46-5.839-1.46c-1.46 0-2.433 0.487-2.919 0.973s-0.973 1.46-1.46 2.433h-1.946v-33.575z"></path>
<path fill="#000" d="M1345.155 994.602h16.057v-108.997h-8.272c-1.946 0-3.893 0-6.325 0.487s-4.866 1.46-7.299 2.919c-2.433 1.46-4.866 4.379-7.299 8.272s-4.379 8.759-5.839 15.084h-1.46v-29.196h88.073v29.196h-1.46c-1.46-6.325-3.406-11.678-5.839-15.084-2.433-3.893-4.866-6.325-7.299-8.272-2.433-1.46-4.866-2.919-7.299-2.919-2.433-0.487-4.379-0.487-6.325-0.487h-8.272v108.997h16.057v2.433h-46.713v-2.433z"></path>
<path fill="#000" d="M1428.363 994.602h16.057v-108.997h-16.057v-2.433h27.249c0.973 0 2.433 0 3.406 0s2.433 0 3.406 0c0.973 0 2.433 0 3.406 0s2.433 0 3.406 0c5.839 0 10.705 0.487 15.084 0.973s8.272 2.919 12.165 5.839c3.406 2.919 5.839 6.325 7.299 9.731s1.946 6.812 1.946 10.218c0 1.46-0.487 3.406-0.973 6.325-0.487 2.433-1.46 4.866-3.406 7.785-1.946 2.433-4.379 4.866-7.785 7.299-3.406 1.946-7.785 3.406-13.624 4.379v0.487c1.46 0 3.406 0.487 6.325 0.973 2.433 0.487 5.352 1.46 8.272 2.919s5.352 3.406 7.785 5.352c2.433 1.946 3.893 5.352 4.866 8.759 0.487 1.946 0.973 4.379 1.46 7.299 0 2.919 0.487 5.352 0.487 8.272s0.487 5.839 0.487 8.272c0 2.433 0.487 4.866 0.973 6.812 0.487 2.919 1.46 5.352 2.919 7.299 1.46 2.433 3.406 3.406 5.839 3.406 1.46 0 2.433-0.487 3.893-0.973s2.433-1.46 3.406-2.433l1.46 1.946c-0.487 0.487-0.973 0.973-1.46 1.46s-1.46 0.973-2.433 1.46c-0.973 0.487-1.946 0.973-3.406 0.973-1.46 0.487-2.919 0.487-5.352 0.487-3.893 0-7.299-0.487-9.731-1.46s-4.379-2.433-6.325-4.866c-1.46-1.946-2.433-4.379-3.406-7.785-0.487-2.919-1.46-6.325-1.46-10.705l-0.973-14.598c-0.487-5.352-1.46-9.245-2.919-12.651-1.46-2.919-3.406-5.352-5.352-6.325-1.946-1.46-4.379-2.433-6.325-2.433s-4.379-0.487-5.839-0.487h-14.598v57.418h16.057v2.433h-46.226v-2.433zM1459.018 934.752h13.138c2.919 0 5.352-0.487 7.299-0.973s3.893-1.946 5.839-3.893c1.46-1.946 2.919-4.379 3.893-7.785s1.46-7.299 1.46-12.165c0-5.352-0.487-9.731-1.946-13.138s-2.919-5.839-4.866-7.785c-1.946-1.46-4.379-2.919-6.812-3.406s-4.866-0.973-7.785-0.973c-1.946 0-3.406 0-5.352 0s-3.406 0-4.379 0.487v49.632z"></path>
<path fill="#000" d="M1553.904 994.602h16.057v-45.74l-32.602-63.258h-13.138v-2.433h44.28v2.433h-14.598l28.709 55.958 27.249-55.958h-14.598v-2.433h31.142v2.433h-14.111l-28.223 57.905v50.606h16.057v2.433h-46.713v-1.946z"></path>
</svg>
