<?xml version="1.0" encoding="utf-8"?>
<!-- Generator: Adobe Illustrator 23.0.1, SVG Export Plug-In . SVG Version: 6.00 Build 0)  -->
<svg version="1.1" id="Layer_1" xmlns="http://www.w3.org/2000/svg" xmlns:xlink="http://www.w3.org/1999/xlink" x="0px" y="0px"
	 viewBox="0 0 441 252" style="enable-background:new 0 0 441 252;" xml:space="preserve">
<style type="text/css">
	.st0{fill:none;stroke:#000000;stroke-width:0.5386;stroke-miterlimit:2.1173;}
	.st1{fill:none;stroke:#000000;stroke-width:0.4252;stroke-miterlimit:1.7573;}
</style>
<g>
	<path d="M213.4,132.7h-0.6v2.1h0.5C213.3,134.2,213.4,133.5,213.4,132.7z"/>
	<path d="M309.4,132.7L269.2,27.1h-3.5l-6,16c0.8,2.3,1.3,4,1.3,4l0,0l16.1,42.5h-28.9l-0.5,2.1h30.2l15.5,41H277v2.1h45.5v-2.1
		H309.4z"/>
</g>
<polygon points="212.3,31.8 212.4,31.8 212.4,29.7 196.1,29.7 168.8,109.1 168.5,109.1 141.2,29.7 108,29.7 108,31.8 124.4,31.8 
	124.4,132.7 108,132.7 108,134.8 143,134.8 143,132.7 126.6,132.7 126.6,33.7 126.9,33.7 162,135 197.3,32.7 197.6,32.7 
	197.6,132.7 181.2,132.7 181.2,134.8 228.7,134.8 228.7,132.7 212.3,132.7 "/>
<g>
	<path d="M31.7,180h4v-27h-4v-0.6h8.1l6.6,21.2h0.1l6.6-21.2H61v0.6h-4v27h4v0.6H49.5V180h4v-26.7h-0.1l-8.6,27.3l-8.5-27h-0.1V180
		h4v0.6h-8.5V180z"/>
	<path d="M64.4,180h3.2l9.7-28.2h0.9l9.7,28.2h3.2v0.6h-11V180h4l-3.8-11H72l-3.8,11h4v0.6h-7.7V180H64.4z M76.1,157l-3.9,11.5h7.9
		L76.1,157z"/>
	<path d="M94.6,180h4v-27h-4v-0.6h6.8c0.3,0,0.6,0,0.9,0s0.6,0,0.9-0.1c0.3,0,0.6,0,0.9,0s0.6,0,0.9,0c1.4,0,2.7,0.1,3.7,0.3
		c1.1,0.2,2.1,0.7,3,1.5c0.8,0.7,1.4,1.5,1.8,2.4c0.3,0.9,0.5,1.7,0.5,2.5c0,0.4-0.1,0.9-0.2,1.5c-0.1,0.6-0.4,1.2-0.9,1.9
		c-0.4,0.6-1.1,1.2-1.9,1.8c-0.8,0.5-1.9,0.9-3.3,1.1v0.1c0.4,0.1,0.9,0.2,1.6,0.3s1.3,0.4,2,0.7c0.7,0.3,1.3,0.8,1.9,1.4
		c0.6,0.6,1,1.3,1.2,2.2c0.1,0.5,0.2,1.1,0.3,1.8c0.1,0.7,0.1,1.4,0.1,2.1s0.1,1.4,0.1,2c0,0.7,0.1,1.2,0.2,1.7
		c0.1,0.7,0.4,1.3,0.7,1.9c0.3,0.6,0.8,0.8,1.5,0.8c0.3,0,0.6-0.1,1-0.2c0.3-0.1,0.6-0.3,0.9-0.6l0.3,0.4c-0.1,0.1-0.3,0.2-0.4,0.3
		c-0.2,0.1-0.4,0.2-0.6,0.3c-0.2,0.1-0.5,0.2-0.9,0.3c-0.3,0.1-0.8,0.1-1.3,0.1c-1,0-1.8-0.1-2.4-0.4s-1.1-0.7-1.5-1.2
		s-0.7-1.1-0.8-1.9c-0.2-0.7-0.3-1.6-0.4-2.6l-0.3-3.6c-0.1-1.3-0.3-2.3-0.7-3.1c-0.4-0.7-0.8-1.3-1.3-1.6s-1-0.5-1.6-0.6
		c-0.5-0.1-1-0.1-1.4-0.1h-3.6V180h4v0.6H94.8V180L94.6,180L94.6,180z M102.1,165.2h3.3c0.7,0,1.3-0.1,1.8-0.3c0.5-0.2,1-0.5,1.4-1
		s0.7-1.1,0.9-1.9c0.2-0.8,0.3-1.8,0.3-3c0-1.4-0.2-2.5-0.5-3.3s-0.7-1.5-1.3-1.9c-0.5-0.4-1.1-0.7-1.7-0.8
		c-0.6-0.1-1.3-0.2-1.9-0.2c-0.4,0-0.9,0-1.3,0s-0.8,0-1.1,0.1v12.3H102.1z"/>
	<path d="M122.9,180h4v-27h-4v-0.6h11.2v0.6h-3.7v12.5h0.4l10.8-12.5H138v-0.6h7.4v0.6h-3l-9.1,10.6l13,16.4h2.4v0.6h-10.4V180h3.2
		l-10.7-13.9h-0.3V180h3.7v0.6H123L122.9,180L122.9,180z"/>
</g>
<g>
	<path d="M160.1,180h3.2l9.7-28.2h0.9l9.7,28.2h3.2v0.6h-11V180h4l-3.8-11h-8.3l-3.8,11h4v0.6h-7.7V180H160.1z M171.8,157l-3.9,11.5
		h7.9L171.8,157z"/>
	<path d="M190.3,180h4v-27h-4v-0.6h11.5v0.6h-4v27h6.4c2.1,0,3.8-0.7,4.9-2.2c1.2-1.4,2.1-3.4,2.6-5.9h0.4v8.6h-21.9V180H190.3z"/>
</g>
<g>
	<path d="M216.5,180h4v-27h-4v-0.6H237v6.8h-0.4c-0.3-1-0.6-1.9-1-2.7s-0.8-1.4-1.3-2c-0.5-0.5-1.1-0.9-1.8-1.2
		c-0.7-0.3-1.5-0.4-2.5-0.4h-5.9v12.3h2.3c0.8,0,1.5-0.1,2-0.2c0.5-0.2,1-0.5,1.4-0.9c0.4-0.4,0.7-1,1-1.8c0.3-0.7,0.5-1.7,0.8-2.9
		h0.4v12.3h-0.4c-0.2-0.8-0.3-1.5-0.5-2.2s-0.4-1.3-0.8-1.9c-0.3-0.6-0.8-1-1.3-1.3s-1.2-0.5-2.1-0.5H224V180h6.8
		c1.3,0,2.4-0.3,3.3-0.9c0.9-0.6,1.6-1.4,2.1-2.2c0.5-0.9,1-1.7,1.2-2.7c0.3-0.9,0.4-1.7,0.5-2.3h0.4v8.6h-21.9L216.5,180L216.5,180
		z"/>
	<path d="M243,180h3.4l7.2-13.2L246,153h-3v-0.6h10.7v0.6h-3.4l5.7,10.4l5.7-10.4h-3.4v-0.6h7.5v0.6h-3.4l-6,10.9l8.9,16h3v0.6
		h-10.7v-0.6h3.4l-7-12.6l-7,12.7h3.4v0.6H243L243,180L243,180z"/>
</g>
<g>
	<path d="M271.7,180h3.2l9.7-28.2h0.9l9.7,28.2h3.2v0.6h-11V180h4l-3.8-11h-8.3l-3.8,11h4v0.6h-7.7V180H271.7z M283.3,157l-3.9,11.5
		h7.9L283.3,157z"/>
	<path d="M301.7,180h4v-27h-4v-0.6h7.7l12.1,21.5h0.1V153h-4v-0.6h8.5v0.6h-4v28.1h-0.7l-15.1-26.4h-0.1V180h4v0.6h-8.5L301.7,180
		L301.7,180z"/>
</g>
<g>
	<path d="M330,180h4v-27h-4v-0.6h6.7c0.3,0,0.7,0,1,0s0.7,0,1-0.1c0.3,0,0.7,0,1,0s0.7,0,1,0c0.7,0,1.4,0,1.9,0
		c0.6,0,1.1,0.1,1.6,0.1c0.5,0.1,1,0.2,1.4,0.3c0.4,0.1,0.9,0.3,1.4,0.5c1.5,0.5,2.7,1.2,3.8,2.1c1.1,0.9,1.9,1.9,2.6,3.1
		c0.7,1.2,1.2,2.4,1.5,3.8c0.3,1.4,0.5,2.8,0.5,4.3c0,1.7-0.2,3.3-0.6,4.7c-0.4,1.4-0.9,2.6-1.6,3.7c-0.7,1.1-1.5,2-2.3,2.8
		c-0.9,0.8-1.9,1.4-2.9,1.9c-0.6,0.3-1.1,0.5-1.6,0.7s-1,0.3-1.6,0.4c-0.5,0.1-1.1,0.1-1.8,0.2c-0.6,0-1.4,0-2.2,0
		c-0.4,0-0.7,0-1.1,0c-0.4,0-0.8,0-1.2-0.1c-0.4,0-0.8,0-1.2-0.1c-0.4,0-0.8,0-1.1,0H330L330,180L330,180z M337.5,180
		c0.4,0.1,0.9,0.1,1.4,0.1s1.1,0,1.8,0c0.8,0,1.6,0,2.4-0.1c0.8-0.1,1.6-0.3,2.3-0.6c0.7-0.3,1.4-0.7,2-1.3s1.2-1.3,1.7-2.2
		c0.8-1.4,1.3-2.9,1.6-4.4s0.4-3.1,0.4-4.9c0-2.1-0.2-4-0.5-5.7c-0.4-1.7-0.9-3.1-1.8-4.3c-0.8-1.2-1.9-2.1-3.3-2.8
		c-1.4-0.7-3-1-5.1-1c-0.6,0-1.1,0-1.6,0s-1,0.1-1.4,0.1L337.5,180L337.5,180z"/>
	<path d="M358.9,180h4v-27h-4v-0.6h20.5v6.8H379c-0.3-1-0.6-1.9-1-2.7s-0.8-1.4-1.3-2c-0.5-0.5-1.1-0.9-1.8-1.2s-1.5-0.4-2.5-0.4
		h-5.9v12.3h2.3c0.8,0,1.5-0.1,2-0.2c0.5-0.2,1-0.5,1.4-0.9c0.4-0.4,0.7-1,1-1.8c0.3-0.7,0.5-1.7,0.8-2.9h0.4v12.3H374
		c-0.2-0.8-0.3-1.5-0.5-2.2s-0.4-1.3-0.8-1.9c-0.3-0.6-0.8-1-1.3-1.3s-1.2-0.5-2.1-0.5h-2.9V180h6.8c1.3,0,2.4-0.3,3.3-0.9
		c0.9-0.6,1.6-1.4,2.1-2.2c0.5-0.9,1-1.7,1.2-2.7c0.3-0.9,0.4-1.7,0.5-2.3h0.4v8.6h-21.9V180C358.8,180,358.9,180,358.9,180z"/>
</g>
<g>
	<path d="M385.4,180h4v-27h-4v-0.6h6.8c0.3,0,0.6,0,0.9,0c0.3,0,0.6,0,0.9-0.1c0.3,0,0.6,0,0.9,0c0.3,0,0.6,0,0.9,0
		c1.4,0,2.7,0.1,3.7,0.3c1.1,0.2,2.1,0.7,3,1.5c0.8,0.7,1.4,1.5,1.8,2.4c0.3,0.9,0.5,1.7,0.5,2.5c0,0.4-0.1,0.9-0.2,1.5
		c-0.1,0.6-0.4,1.2-0.9,1.9c-0.4,0.6-1.1,1.2-1.9,1.8c-0.8,0.5-1.9,0.9-3.3,1.1v0.1c0.4,0.1,0.9,0.2,1.6,0.3c0.7,0.1,1.3,0.4,2,0.7
		c0.7,0.3,1.3,0.8,1.9,1.4c0.6,0.6,1,1.3,1.2,2.2c0.1,0.5,0.2,1.1,0.3,1.8c0.1,0.7,0.1,1.4,0.1,2.1s0.1,1.4,0.1,2
		c0,0.7,0.1,1.2,0.2,1.7c0.1,0.7,0.4,1.3,0.7,1.9c0.3,0.6,0.8,0.8,1.5,0.8c0.3,0,0.6-0.1,1-0.2c0.3-0.1,0.6-0.3,0.9-0.6l0.3,0.4
		c-0.1,0.1-0.3,0.2-0.4,0.3c-0.2,0.1-0.4,0.2-0.6,0.3c-0.2,0.1-0.5,0.2-0.9,0.3c-0.3,0.1-0.8,0.1-1.3,0.1c-1,0-1.8-0.1-2.4-0.4
		c-0.6-0.3-1.1-0.7-1.5-1.2s-0.7-1.1-0.8-1.9c-0.2-0.7-0.3-1.6-0.4-2.6l-0.3-3.6c-0.1-1.3-0.3-2.3-0.7-3.1c-0.4-0.7-0.8-1.3-1.3-1.6
		s-1-0.5-1.6-0.6c-0.5-0.1-1-0.1-1.4-0.1H393V180h4v0.6h-11.5L385.4,180L385.4,180z M393,165.2h3.3c0.7,0,1.3-0.1,1.8-0.3
		c0.5-0.2,1-0.5,1.4-1s0.7-1.1,0.9-1.9s0.3-1.8,0.3-3c0-1.4-0.2-2.5-0.5-3.3s-0.7-1.5-1.3-1.9c-0.5-0.4-1.1-0.7-1.7-0.8
		c-0.6-0.1-1.3-0.2-1.9-0.2c-0.4,0-0.9,0-1.3,0c-0.4,0-0.8,0-1.1,0.1L393,165.2L393,165.2z"/>
</g>
<g>
	<g>
		<path class="st0" d="M31.7,180h4v-27h-4v-0.6h8.1l6.6,21.2h0.1l6.6-21.2H61v0.6h-4v27h4v0.6H49.5V180h4v-26.7h-0.1l-8.6,27.3
			l-8.5-27h-0.1V180h4v0.6h-8.5V180z"/>
		<path class="st0" d="M64.4,180h3.2l9.7-28.2h0.9l9.7,28.2h3.2v0.6h-11V180h4l-3.8-11H72l-3.8,11h4v0.6h-7.7V180H64.4z M76.1,157
			l-3.9,11.5h7.9L76.1,157z"/>
		<path class="st0" d="M94.6,180h4v-27h-4v-0.6h6.8c0.3,0,0.6,0,0.9,0s0.6,0,0.9-0.1c0.3,0,0.6,0,0.9,0s0.6,0,0.9,0
			c1.4,0,2.7,0.1,3.7,0.3c1.1,0.2,2.1,0.7,3,1.5c0.8,0.7,1.4,1.5,1.8,2.4c0.3,0.9,0.5,1.7,0.5,2.5c0,0.4-0.1,0.9-0.2,1.5
			c-0.1,0.6-0.4,1.2-0.9,1.9c-0.4,0.6-1.1,1.2-1.9,1.8c-0.8,0.5-1.9,0.9-3.3,1.1v0.1c0.4,0.1,0.9,0.2,1.6,0.3s1.3,0.4,2,0.7
			c0.7,0.3,1.3,0.8,1.9,1.4c0.6,0.6,1,1.3,1.2,2.2c0.1,0.5,0.2,1.1,0.3,1.8c0.1,0.7,0.1,1.4,0.1,2.1s0.1,1.4,0.1,2
			c0,0.7,0.1,1.2,0.2,1.7c0.1,0.7,0.4,1.3,0.7,1.9c0.3,0.6,0.8,0.8,1.5,0.8c0.3,0,0.6-0.1,1-0.2c0.3-0.1,0.6-0.3,0.9-0.6l0.3,0.4
			c-0.1,0.1-0.3,0.2-0.4,0.3c-0.2,0.1-0.4,0.2-0.6,0.3c-0.2,0.1-0.5,0.2-0.9,0.3c-0.3,0.1-0.8,0.1-1.3,0.1c-1,0-1.8-0.1-2.4-0.4
			s-1.1-0.7-1.5-1.2s-0.7-1.1-0.8-1.9c-0.2-0.7-0.3-1.6-0.4-2.6l-0.3-3.6c-0.1-1.3-0.3-2.3-0.7-3.1c-0.4-0.7-0.8-1.3-1.3-1.6
			s-1-0.5-1.6-0.6c-0.5-0.1-1-0.1-1.4-0.1h-3.6V180h4v0.6H94.8V180L94.6,180L94.6,180z M102.1,165.2h3.3c0.7,0,1.3-0.1,1.8-0.3
			c0.5-0.2,1-0.5,1.4-1s0.7-1.1,0.9-1.9c0.2-0.8,0.3-1.8,0.3-3c0-1.4-0.2-2.5-0.5-3.3s-0.7-1.5-1.3-1.9c-0.5-0.4-1.1-0.7-1.7-0.8
			c-0.6-0.1-1.3-0.2-1.9-0.2c-0.4,0-0.9,0-1.3,0s-0.8,0-1.1,0.1v12.3H102.1z"/>
		<path class="st0" d="M122.9,180h4v-27h-4v-0.6h11.2v0.6h-3.7v12.5h0.4l10.8-12.5H138v-0.6h7.4v0.6h-3l-9.1,10.6l13,16.4h2.4v0.6
			h-10.4V180h3.2l-10.7-13.9h-0.3V180h3.7v0.6H123L122.9,180L122.9,180z"/>
	</g>
	<g>
		<path class="st0" d="M160.1,180h3.2l9.7-28.2h0.9l9.7,28.2h3.2v0.6h-11V180h4l-3.8-11h-8.3l-3.8,11h4v0.6h-7.7V180H160.1z
			 M171.8,157l-3.9,11.5h7.9L171.8,157z"/>
		<path class="st0" d="M190.3,180h4v-27h-4v-0.6h11.5v0.6h-4v27h6.4c2.1,0,3.8-0.7,4.9-2.2c1.2-1.4,2.1-3.4,2.6-5.9h0.4v8.6h-21.9
			V180H190.3z"/>
	</g>
	<g>
		<path class="st0" d="M216.5,180h4v-27h-4v-0.6H237v6.8h-0.4c-0.3-1-0.6-1.9-1-2.7s-0.8-1.4-1.3-2c-0.5-0.5-1.1-0.9-1.8-1.2
			c-0.7-0.3-1.5-0.4-2.5-0.4h-5.9v12.3h2.3c0.8,0,1.5-0.1,2-0.2c0.5-0.2,1-0.5,1.4-0.9c0.4-0.4,0.7-1,1-1.8c0.3-0.7,0.5-1.7,0.8-2.9
			h0.4v12.3h-0.4c-0.2-0.8-0.3-1.5-0.5-2.2s-0.4-1.3-0.8-1.9c-0.3-0.6-0.8-1-1.3-1.3s-1.2-0.5-2.1-0.5H224V180h6.8
			c1.3,0,2.4-0.3,3.3-0.9c0.9-0.6,1.6-1.4,2.1-2.2c0.5-0.9,1-1.7,1.2-2.7c0.3-0.9,0.4-1.7,0.5-2.3h0.4v8.6h-21.9L216.5,180
			L216.5,180z"/>
		<path class="st0" d="M243,180h3.4l7.2-13.2L246,153h-3v-0.6h10.7v0.6h-3.4l5.7,10.4l5.7-10.4h-3.4v-0.6h7.5v0.6h-3.4l-6,10.9
			l8.9,16h3v0.6h-10.7v-0.6h3.4l-7-12.6l-7,12.7h3.4v0.6H243L243,180L243,180z"/>
	</g>
	<g>
		<path class="st0" d="M271.7,180h3.2l9.7-28.2h0.9l9.7,28.2h3.2v0.6h-11V180h4l-3.8-11h-8.3l-3.8,11h4v0.6h-7.7V180H271.7z
			 M283.3,157l-3.9,11.5h7.9L283.3,157z"/>
		<path class="st0" d="M301.7,180h4v-27h-4v-0.6h7.7l12.1,21.5h0.1V153h-4v-0.6h8.5v0.6h-4v28.1h-0.7l-15.1-26.4h-0.1V180h4v0.6
			h-8.5L301.7,180L301.7,180z"/>
	</g>
	<g>
		<path class="st0" d="M330,180h4v-27h-4v-0.6h6.7c0.3,0,0.7,0,1,0s0.7,0,1-0.1c0.3,0,0.7,0,1,0s0.7,0,1,0c0.7,0,1.4,0,1.9,0
			c0.6,0,1.1,0.1,1.6,0.1c0.5,0.1,1,0.2,1.4,0.3c0.4,0.1,0.9,0.3,1.4,0.5c1.5,0.5,2.7,1.2,3.8,2.1c1.1,0.9,1.9,1.9,2.6,3.1
			c0.7,1.2,1.2,2.4,1.5,3.8c0.3,1.4,0.5,2.8,0.5,4.3c0,1.7-0.2,3.3-0.6,4.7c-0.4,1.4-0.9,2.6-1.6,3.7c-0.7,1.1-1.5,2-2.3,2.8
			c-0.9,0.8-1.9,1.4-2.9,1.9c-0.6,0.3-1.1,0.5-1.6,0.7s-1,0.3-1.6,0.4c-0.5,0.1-1.1,0.1-1.8,0.2c-0.6,0-1.4,0-2.2,0
			c-0.4,0-0.7,0-1.1,0c-0.4,0-0.8,0-1.2-0.1c-0.4,0-0.8,0-1.2-0.1c-0.4,0-0.8,0-1.1,0H330L330,180L330,180z M337.5,180
			c0.4,0.1,0.9,0.1,1.4,0.1s1.1,0,1.8,0c0.8,0,1.6,0,2.4-0.1c0.8-0.1,1.6-0.3,2.3-0.6c0.7-0.3,1.4-0.7,2-1.3s1.2-1.3,1.7-2.2
			c0.8-1.4,1.3-2.9,1.6-4.4s0.4-3.1,0.4-4.9c0-2.1-0.2-4-0.5-5.7c-0.4-1.7-0.9-3.1-1.8-4.3c-0.8-1.2-1.9-2.1-3.3-2.8
			c-1.4-0.7-3-1-5.1-1c-0.6,0-1.1,0-1.6,0s-1,0.1-1.4,0.1L337.5,180L337.5,180z"/>
		<path class="st0" d="M358.9,180h4v-27h-4v-0.6h20.5v6.8H379c-0.3-1-0.6-1.9-1-2.7s-0.8-1.4-1.3-2c-0.5-0.5-1.1-0.9-1.8-1.2
			s-1.5-0.4-2.5-0.4h-5.9v12.3h2.3c0.8,0,1.5-0.1,2-0.2c0.5-0.2,1-0.5,1.4-0.9c0.4-0.4,0.7-1,1-1.8c0.3-0.7,0.5-1.7,0.8-2.9h0.4
			v12.3H374c-0.2-0.8-0.3-1.5-0.5-2.2s-0.4-1.3-0.8-1.9c-0.3-0.6-0.8-1-1.3-1.3s-1.2-0.5-2.1-0.5h-2.9V180h6.8
			c1.3,0,2.4-0.3,3.3-0.9c0.9-0.6,1.6-1.4,2.1-2.2c0.5-0.9,1-1.7,1.2-2.7c0.3-0.9,0.4-1.7,0.5-2.3h0.4v8.6h-21.9V180
			C358.8,180,358.9,180,358.9,180z"/>
	</g>
	<g>
		<path class="st0" d="M385.4,180h4v-27h-4v-0.6h6.8c0.3,0,0.6,0,0.9,0c0.3,0,0.6,0,0.9-0.1c0.3,0,0.6,0,0.9,0c0.3,0,0.6,0,0.9,0
			c1.4,0,2.7,0.1,3.7,0.3c1.1,0.2,2.1,0.7,3,1.5c0.8,0.7,1.4,1.5,1.8,2.4c0.3,0.9,0.5,1.7,0.5,2.5c0,0.4-0.1,0.9-0.2,1.5
			c-0.1,0.6-0.4,1.2-0.9,1.9c-0.4,0.6-1.1,1.2-1.9,1.8c-0.8,0.5-1.9,0.9-3.3,1.1v0.1c0.4,0.1,0.9,0.2,1.6,0.3c0.7,0.1,1.3,0.4,2,0.7
			c0.7,0.3,1.3,0.8,1.9,1.4c0.6,0.6,1,1.3,1.2,2.2c0.1,0.5,0.2,1.1,0.3,1.8c0.1,0.7,0.1,1.4,0.1,2.1s0.1,1.4,0.1,2
			c0,0.7,0.1,1.2,0.2,1.7c0.1,0.7,0.4,1.3,0.7,1.9c0.3,0.6,0.8,0.8,1.5,0.8c0.3,0,0.6-0.1,1-0.2c0.3-0.1,0.6-0.3,0.9-0.6l0.3,0.4
			c-0.1,0.1-0.3,0.2-0.4,0.3c-0.2,0.1-0.4,0.2-0.6,0.3c-0.2,0.1-0.5,0.2-0.9,0.3c-0.3,0.1-0.8,0.1-1.3,0.1c-1,0-1.8-0.1-2.4-0.4
			c-0.6-0.3-1.1-0.7-1.5-1.2s-0.7-1.1-0.8-1.9c-0.2-0.7-0.3-1.6-0.4-2.6l-0.3-3.6c-0.1-1.3-0.3-2.3-0.7-3.1
			c-0.4-0.7-0.8-1.3-1.3-1.6s-1-0.5-1.6-0.6c-0.5-0.1-1-0.1-1.4-0.1H393V180h4v0.6h-11.5L385.4,180L385.4,180z M393,165.2h3.3
			c0.7,0,1.3-0.1,1.8-0.3c0.5-0.2,1-0.5,1.4-1s0.7-1.1,0.9-1.9s0.3-1.8,0.3-3c0-1.4-0.2-2.5-0.5-3.3s-0.7-1.5-1.3-1.9
			c-0.5-0.4-1.1-0.7-1.7-0.8c-0.6-0.1-1.3-0.2-1.9-0.2c-0.4,0-0.9,0-1.3,0c-0.4,0-0.8,0-1.1,0.1L393,165.2L393,165.2z"/>
	</g>
</g>
<g>
	<path d="M69.3,223.3h3.3v-22.4h-3.3v-0.5h5.5c0.3,0,0.6,0,0.8,0c0.3,0,0.6,0,0.8,0c0.3,0,0.6,0,0.8,0c0.3,0,0.6,0,0.8,0
		c0.6,0,1.1,0,1.6,0s0.9,0.1,1.3,0.1c0.4,0.1,0.8,0.1,1.2,0.2c0.4,0.1,0.8,0.2,1.2,0.4c1.2,0.4,2.3,1,3.1,1.8
		c0.9,0.7,1.6,1.6,2.2,2.5c0.6,1,1,2,1.2,3.1c0.3,1.1,0.4,2.3,0.4,3.6c0,1.4-0.2,2.7-0.5,3.9c-0.3,1.1-0.8,2.2-1.3,3
		c-0.6,0.9-1.2,1.6-1.9,2.3c-0.7,0.6-1.5,1.2-2.4,1.6c-0.5,0.2-0.9,0.4-1.4,0.6c-0.4,0.1-0.9,0.2-1.3,0.3s-0.9,0.1-1.5,0.1
		c-0.5,0-1.1,0-1.8,0c-0.3,0-0.6,0-1,0c-0.3,0-0.7,0-1,0s-0.7,0-1,0s-0.6,0-0.9,0h-5.1v-0.6L69.3,223.3L69.3,223.3z M75.6,223.3
		c0.3,0,0.7,0.1,1.2,0.1c0.4,0,0.9,0,1.5,0c0.7,0,1.3,0,2-0.1s1.3-0.2,1.9-0.5c0.6-0.2,1.2-0.6,1.7-1.1s1-1.1,1.4-1.8
		c0.6-1.2,1.1-2.4,1.3-3.6c0.2-1.2,0.4-2.6,0.4-4c0-1.7-0.1-3.3-0.4-4.7s-0.8-2.6-1.5-3.6s-1.6-1.8-2.7-2.3s-2.5-0.8-4.2-0.8
		c-0.5,0-0.9,0-1.4,0c-0.4,0-0.8,0-1.2,0.1L75.6,223.3L75.6,223.3z"/>
	<path d="M93.1,223.3h3.3v-22.4h-3.3v-0.5h17v5.7h-0.3c-0.3-0.9-0.5-1.6-0.8-2.2c-0.3-0.6-0.7-1.2-1.1-1.6c-0.4-0.4-0.9-0.8-1.5-1
		s-1.3-0.3-2.1-0.3h-4.9v10.1h1.9c0.7,0,1.2-0.1,1.7-0.2c0.5-0.1,0.8-0.4,1.2-0.7c0.3-0.4,0.6-0.8,0.8-1.5c0.2-0.6,0.5-1.4,0.7-2.4
		h0.3v10.2h-0.3c-0.1-0.6-0.3-1.2-0.4-1.8c-0.1-0.6-0.4-1.1-0.6-1.6c-0.3-0.5-0.6-0.8-1.1-1.1c-0.4-0.3-1-0.4-1.7-0.4h-2.4v11.8h5.6
		c1.1,0,2-0.3,2.7-0.8s1.3-1.1,1.8-1.8s0.8-1.4,1-2.2s0.4-1.4,0.4-1.9h0.3v7.2H93.2v-0.6L93.1,223.3L93.1,223.3z"/>
</g>
<g>
	<path d="M116.1,216.7h0.3c0.2,1.2,0.5,2.2,0.8,3s0.7,1.5,1.1,2s0.9,0.9,1.3,1.2c0.5,0.3,0.9,0.5,1.4,0.6s0.9,0.2,1.3,0.2
		s0.8,0,1.2,0c1.1,0,1.9-0.2,2.6-0.5s1.2-0.8,1.6-1.3s0.7-1.1,0.8-1.7c0.2-0.6,0.2-1.2,0.2-1.7c0-0.8-0.1-1.4-0.4-2
		c-0.3-0.5-0.6-1-1-1.4s-0.8-0.7-1.3-0.9s-0.9-0.4-1.3-0.6l-3.4-1.1c-1.6-0.5-2.8-1.3-3.6-2.2c-0.8-0.9-1.2-2.1-1.2-3.6
		c0-1,0.2-1.9,0.5-2.7c0.3-0.8,0.8-1.6,1.3-2.2c0.5-0.6,1.3-1.1,2.1-1.4s1.7-0.5,2.6-0.5c0.7,0,1.3,0.1,1.7,0.2
		c0.4,0.1,0.9,0.3,1.2,0.4c0.3,0.2,0.6,0.3,0.9,0.4c0.3,0.1,0.5,0.2,0.8,0.2s0.4,0,0.5-0.1c0.1-0.1,0.2-0.3,0.4-0.6h0.4v5.9h-0.4
		c-0.1-0.8-0.3-1.5-0.6-2.3c-0.3-0.7-0.7-1.4-1.1-1.9c-0.5-0.6-1-1-1.7-1.3c-0.6-0.3-1.4-0.5-2.2-0.5c-0.5,0-1,0.1-1.6,0.2
		c-0.6,0.1-1.1,0.4-1.6,0.7c-0.5,0.3-0.9,0.8-1.2,1.4c-0.3,0.6-0.5,1.3-0.5,2.2c0,0.7,0.1,1.3,0.4,1.8s0.6,0.9,1,1.2
		s0.9,0.6,1.4,0.9c0.5,0.2,1,0.4,1.5,0.6l3.6,1.2c0.4,0.1,0.9,0.3,1.4,0.5s1.1,0.5,1.7,1c0.5,0.4,1,1,1.4,1.7s0.6,1.6,0.6,2.7
		c0,1-0.2,2-0.5,2.9s-0.8,1.7-1.5,2.5c-0.7,0.7-1.4,1.3-2.4,1.7c-0.9,0.4-2,0.6-3.2,0.6c-0.4,0-0.8,0-1.1,0c-0.3,0-0.6,0-0.9-0.1
		c-0.3,0-0.6-0.1-0.8-0.1c-0.3-0.1-0.6-0.1-0.9-0.2c-0.4-0.1-0.8-0.3-1.3-0.5s-0.9-0.3-1.2-0.3c-0.3,0-0.5,0.1-0.6,0.2
		c-0.1,0.1-0.2,0.3-0.3,0.5h-0.4v-6.9H116.1z"/>
	<path d="M134.1,223.3h3.3v-22.4h-3.3v-0.5h9.6v0.5h-3.3v22.4h3.3v0.5h-9.6V223.3z"/>
</g>
<g>
	<path d="M167.2,215.4h-2.4v7.4h-0.4c-0.2-0.2-0.4-0.4-0.5-0.5s-0.4-0.1-0.7-0.1c-0.4,0-0.7,0.1-1.1,0.3s-0.8,0.4-1.3,0.7
		s-1.1,0.5-1.7,0.7s-1.4,0.3-2.4,0.3c-1.4,0-2.7-0.3-3.7-0.8c-1.1-0.5-2.1-1.3-3.2-2.4c-1-1.1-1.8-2.4-2.5-3.9s-1-3.2-1-5
		c0-1.2,0.1-2.4,0.4-3.4s0.6-1.9,0.9-2.6c0.4-0.7,0.7-1.4,1.1-1.9s0.7-0.9,1-1.2c0.9-1,1.9-1.8,3.1-2.4c1.1-0.6,2.5-0.9,3.9-0.9
		c0.8,0,1.4,0.1,1.9,0.2c0.5,0.1,0.9,0.3,1.3,0.4c0.4,0.2,0.7,0.3,1,0.4c0.3,0.1,0.6,0.2,1,0.2s0.7-0.1,0.8-0.2
		c0.2-0.1,0.3-0.3,0.5-0.5h0.4v6.5h-0.3c-0.1-0.6-0.2-1.2-0.5-2s-0.6-1.5-1.1-2.2s-1.1-1.3-1.9-1.8s-1.8-0.7-3.1-0.7
		c-1.5,0-2.7,0.3-3.6,1s-1.6,1.6-2.1,2.7c-0.5,1.1-0.8,2.4-1,3.8c-0.2,1.4-0.3,2.8-0.3,4.3c0,1,0,2,0.1,2.9s0.2,1.9,0.4,2.8
		c0.2,0.9,0.5,1.7,0.8,2.4s0.8,1.4,1.3,1.9c0.6,0.6,1.2,1,1.8,1.2c0.6,0.2,1.5,0.3,2.5,0.3c0.6,0,1.2-0.1,1.8-0.3
		c0.6-0.2,1.2-0.6,1.7-1c0.5-0.5,0.9-1,1.2-1.8c0.3-0.7,0.5-1.5,0.5-2.5V215H158v-0.5h9.1v0.9L167.2,215.4L167.2,215.4z"/>
	<path d="M168.9,223.3h3.3v-22.4h-3.3v-0.5h6.4l10.1,17.8h0.1v-17.4h-3.3v-0.5h7v0.5h-3.3v23.4h-0.6l-12.5-21.9h-0.1v21h3.3v0.5h-7
		v-0.5H168.9z"/>
</g>
<g>
	<path d="M198.9,223.3h2.6l8-23.4h0.7l8.1,23.4h2.6v0.5h-9.2v-0.5h3.3l-3-9.1h-6.9l-3.1,9.1h3.3v0.5h-6.4V223.3z M208.5,204.2
		l-3.3,9.5h6.5L208.5,204.2z"/>
	<path d="M223.7,223.3h3.3v-22.4h-3.3v-0.5h5.6c0.2,0,0.5,0,0.7,0s0.5,0,0.7,0s0.5,0,0.7,0s0.5,0,0.7,0c1.2,0,2.2,0.1,3.1,0.2
		c0.9,0.1,1.7,0.6,2.5,1.2c0.7,0.6,1.2,1.3,1.5,2s0.4,1.4,0.4,2.1c0,0.3-0.1,0.7-0.2,1.3c-0.1,0.5-0.3,1-0.7,1.6
		c-0.4,0.5-0.9,1-1.6,1.5c-0.7,0.4-1.6,0.7-2.8,0.9v0.1c0.3,0,0.7,0.1,1.3,0.2c0.5,0.1,1.1,0.3,1.7,0.6c0.6,0.3,1.1,0.7,1.6,1.1
		c0.5,0.4,0.8,1.1,1,1.8c0.1,0.4,0.2,0.9,0.3,1.5c0,0.6,0.1,1.1,0.1,1.7c0,0.6,0.1,1.2,0.1,1.7s0.1,1,0.2,1.4
		c0.1,0.6,0.3,1.1,0.6,1.5c0.3,0.5,0.7,0.7,1.2,0.7c0.3,0,0.5-0.1,0.8-0.2c0.3-0.1,0.5-0.3,0.7-0.5l0.3,0.4
		c-0.1,0.1-0.2,0.2-0.3,0.3c-0.1,0.1-0.3,0.2-0.5,0.3s-0.4,0.2-0.7,0.2c-0.3,0.1-0.6,0.1-1.1,0.1c-0.8,0-1.5-0.1-2-0.3
		s-0.9-0.5-1.3-1c-0.3-0.4-0.5-0.9-0.7-1.6c-0.1-0.6-0.3-1.3-0.3-2.2l-0.2-3c-0.1-1.1-0.3-1.9-0.6-2.6c-0.3-0.6-0.7-1.1-1.1-1.3
		c-0.4-0.3-0.9-0.5-1.3-0.5s-0.9-0.1-1.2-0.1h-3v11.8h3.3v0.5h-9.6L223.7,223.3L223.7,223.3z M230,211h2.7c0.6,0,1.1-0.1,1.5-0.2
		c0.4-0.1,0.8-0.4,1.2-0.8c0.3-0.4,0.6-0.9,0.8-1.6c0.2-0.7,0.3-1.5,0.3-2.5c0-1.1-0.1-2-0.4-2.7s-0.6-1.2-1-1.6
		c-0.4-0.3-0.9-0.6-1.4-0.7c-0.5-0.1-1-0.2-1.6-0.2c-0.4,0-0.7,0-1.1,0s-0.7,0-0.9,0.1V211C230.1,211,230,211,230,211z"/>
</g>
<g>
	<path d="M249.1,223.3h3.3v-22.4h-1.7c-0.4,0-0.8,0-1.3,0.1c-0.5,0.1-1,0.3-1.5,0.6s-1,0.9-1.5,1.7s-0.9,1.8-1.2,3.1h-0.3v-6H263v6
		h-0.3c-0.3-1.3-0.7-2.4-1.2-3.1c-0.5-0.8-1-1.3-1.5-1.7c-0.5-0.3-1-0.6-1.5-0.6c-0.5-0.1-0.9-0.1-1.3-0.1h-1.7v22.4h3.3v0.5h-9.6
		L249.1,223.3L249.1,223.3z"/>
	<path d="M266.2,223.3h3.3v-22.4h-3.3v-0.5h9.6v0.5h-3.3v22.4h3.3v0.5h-9.6V223.3z"/>
</g>
<g>
	<path d="M279.6,216.7h0.3c0.2,1.2,0.5,2.2,0.8,3s0.7,1.5,1.1,2s0.9,0.9,1.3,1.2c0.5,0.3,0.9,0.5,1.4,0.6s0.9,0.2,1.3,0.2
		s0.8,0,1.2,0c1.1,0,1.9-0.2,2.6-0.5s1.2-0.8,1.6-1.3s0.7-1.1,0.8-1.7c0.2-0.6,0.2-1.2,0.2-1.7c0-0.8-0.1-1.4-0.4-2
		c-0.3-0.5-0.6-1-1-1.4s-0.8-0.7-1.3-0.9s-0.9-0.4-1.3-0.6l-3.4-1.1c-1.6-0.5-2.8-1.3-3.6-2.2c-0.8-0.9-1.2-2.1-1.2-3.6
		c0-1,0.2-1.9,0.5-2.7c0.3-0.8,0.8-1.6,1.3-2.2c0.5-0.6,1.3-1.1,2.1-1.4s1.7-0.5,2.6-0.5c0.7,0,1.3,0.1,1.7,0.2
		c0.4,0.1,0.9,0.3,1.2,0.4c0.3,0.2,0.6,0.3,0.9,0.4c0.3,0.1,0.5,0.2,0.8,0.2s0.4,0,0.5-0.1c0.1-0.1,0.2-0.3,0.4-0.6h0.4v5.9H292
		c-0.1-0.8-0.3-1.5-0.6-2.3c-0.3-0.7-0.7-1.4-1.1-1.9c-0.5-0.6-1-1-1.7-1.3c-0.6-0.3-1.4-0.5-2.2-0.5c-0.5,0-1,0.1-1.6,0.2
		c-0.6,0.1-1.1,0.4-1.6,0.7c-0.5,0.3-0.9,0.8-1.2,1.4c-0.3,0.6-0.5,1.3-0.5,2.2c0,0.7,0.1,1.3,0.4,1.8s0.6,0.9,1,1.2
		s0.9,0.6,1.4,0.9c0.5,0.2,1,0.4,1.5,0.6l3.6,1.2c0.4,0.1,0.9,0.3,1.4,0.5s1.1,0.5,1.7,1c0.5,0.4,1,1,1.4,1.7s0.6,1.6,0.6,2.7
		c0,1-0.2,2-0.5,2.9s-0.8,1.7-1.5,2.5c-0.7,0.7-1.4,1.3-2.4,1.7c-0.9,0.4-2,0.6-3.2,0.6c-0.4,0-0.8,0-1.1,0s-0.6,0-0.9-0.1
		c-0.3,0-0.6-0.1-0.8-0.1c-0.3-0.1-0.6-0.1-0.9-0.2c-0.4-0.1-0.8-0.3-1.3-0.5s-0.9-0.3-1.2-0.3s-0.5,0.1-0.6,0.2
		c-0.1,0.1-0.2,0.3-0.3,0.5h-0.4v-6.9H279.6z"/>
	<path d="M301.9,223.3h3.3v-22.4h-1.7c-0.4,0-0.8,0-1.3,0.1c-0.5,0.1-1,0.3-1.5,0.6s-1,0.9-1.5,1.7s-0.9,1.8-1.2,3.1h-0.3v-6h18.1v6
		h-0.3c-0.3-1.3-0.7-2.4-1.2-3.1c-0.5-0.8-1-1.3-1.5-1.7c-0.5-0.3-1-0.6-1.5-0.6c-0.5-0.1-0.9-0.1-1.3-0.1h-1.7v22.4h3.3v0.5H302
		L301.9,223.3L301.9,223.3z"/>
</g>
<g>
	<path d="M319,223.3h3.3v-22.4H319v-0.5h5.6c0.2,0,0.5,0,0.7,0s0.5,0,0.7,0s0.5,0,0.7,0s0.5,0,0.7,0c1.2,0,2.2,0.1,3.1,0.2
		c0.9,0.1,1.7,0.6,2.5,1.2c0.7,0.6,1.2,1.3,1.5,2s0.4,1.4,0.4,2.1c0,0.3-0.1,0.7-0.2,1.3c-0.1,0.5-0.3,1-0.7,1.6
		c-0.4,0.5-0.9,1-1.6,1.5c-0.7,0.4-1.6,0.7-2.8,0.9v0.1c0.3,0,0.7,0.1,1.3,0.2c0.5,0.1,1.1,0.3,1.7,0.6c0.6,0.3,1.1,0.7,1.6,1.1
		c0.5,0.4,0.8,1.1,1,1.8c0.1,0.4,0.2,0.9,0.3,1.5c0,0.6,0.1,1.1,0.1,1.7c0,0.6,0.1,1.2,0.1,1.7s0.1,1,0.2,1.4
		c0.1,0.6,0.3,1.1,0.6,1.5c0.3,0.5,0.7,0.7,1.2,0.7c0.3,0,0.5-0.1,0.8-0.2c0.3-0.1,0.5-0.3,0.7-0.5l0.3,0.4
		c-0.1,0.1-0.2,0.2-0.3,0.3s-0.3,0.2-0.5,0.3s-0.4,0.2-0.7,0.2c-0.3,0.1-0.6,0.1-1.1,0.1c-0.8,0-1.5-0.1-2-0.3s-0.9-0.5-1.3-1
		c-0.3-0.4-0.5-0.9-0.7-1.6c-0.1-0.6-0.3-1.3-0.3-2.2l-0.2-3c-0.1-1.1-0.3-1.9-0.6-2.6c-0.3-0.6-0.7-1.1-1.1-1.3
		c-0.4-0.3-0.9-0.5-1.3-0.5s-0.9-0.1-1.2-0.1h-3v11.8h3.3v0.5H319L319,223.3L319,223.3z M325.3,211h2.7c0.6,0,1.1-0.1,1.5-0.2
		c0.4-0.1,0.8-0.4,1.2-0.8c0.3-0.4,0.6-0.9,0.8-1.6s0.3-1.5,0.3-2.5c0-1.1-0.1-2-0.4-2.7c-0.3-0.7-0.6-1.2-1-1.6
		c-0.4-0.3-0.9-0.6-1.4-0.7c-0.5-0.1-1-0.2-1.6-0.2c-0.4,0-0.7,0-1.1,0c-0.4,0-0.7,0-0.9,0.1L325.3,211L325.3,211z"/>
	<path d="M344.8,223.3h3.3v-9.4l-6.7-13h-2.7v-0.5h9.1v0.5h-3l5.9,11.5l5.6-11.5h-3v-0.5h6.4v0.5h-2.9l-5.8,11.9v10.4h3.3v0.5h-9.6
		v-0.4H344.8z"/>
</g>
<g>
	<g>
		<path class="st1" d="M69.3,223.3h3.3v-22.4h-3.3v-0.5h5.5c0.3,0,0.6,0,0.8,0c0.3,0,0.6,0,0.8,0c0.3,0,0.6,0,0.8,0
			c0.3,0,0.6,0,0.8,0c0.6,0,1.1,0,1.6,0s0.9,0.1,1.3,0.1c0.4,0.1,0.8,0.1,1.2,0.2c0.4,0.1,0.8,0.2,1.2,0.4c1.2,0.4,2.3,1,3.1,1.8
			c0.9,0.7,1.6,1.6,2.2,2.5c0.6,1,1,2,1.2,3.1c0.3,1.1,0.4,2.3,0.4,3.6c0,1.4-0.2,2.7-0.5,3.9c-0.3,1.1-0.8,2.2-1.3,3
			c-0.6,0.9-1.2,1.6-1.9,2.3c-0.7,0.6-1.5,1.2-2.4,1.6c-0.5,0.2-0.9,0.4-1.4,0.6c-0.4,0.1-0.9,0.2-1.3,0.3s-0.9,0.1-1.5,0.1
			c-0.5,0-1.1,0-1.8,0c-0.3,0-0.6,0-1,0c-0.3,0-0.7,0-1,0s-0.7,0-1,0s-0.6,0-0.9,0h-5.1v-0.6L69.3,223.3L69.3,223.3z M75.6,223.3
			c0.3,0,0.7,0.1,1.2,0.1c0.4,0,0.9,0,1.5,0c0.7,0,1.3,0,2-0.1s1.3-0.2,1.9-0.5c0.6-0.2,1.2-0.6,1.7-1.1s1-1.1,1.4-1.8
			c0.6-1.2,1.1-2.4,1.3-3.6c0.2-1.2,0.4-2.6,0.4-4c0-1.7-0.1-3.3-0.4-4.7s-0.8-2.6-1.5-3.6s-1.6-1.8-2.7-2.3s-2.5-0.8-4.2-0.8
			c-0.5,0-0.9,0-1.4,0c-0.4,0-0.8,0-1.2,0.1L75.6,223.3L75.6,223.3z"/>
		<path class="st1" d="M93.1,223.3h3.3v-22.4h-3.3v-0.5h17v5.7h-0.3c-0.3-0.9-0.5-1.6-0.8-2.2c-0.3-0.6-0.7-1.2-1.1-1.6
			c-0.4-0.4-0.9-0.8-1.5-1s-1.3-0.3-2.1-0.3h-4.9v10.1h1.9c0.7,0,1.2-0.1,1.7-0.2c0.5-0.1,0.8-0.4,1.2-0.7c0.3-0.4,0.6-0.8,0.8-1.5
			c0.2-0.6,0.5-1.4,0.7-2.4h0.3v10.2h-0.3c-0.1-0.6-0.3-1.2-0.4-1.8c-0.1-0.6-0.4-1.1-0.6-1.6c-0.3-0.5-0.6-0.8-1.1-1.1
			c-0.4-0.3-1-0.4-1.7-0.4h-2.4v11.8h5.6c1.1,0,2-0.3,2.7-0.8s1.3-1.1,1.8-1.8s0.8-1.4,1-2.2s0.4-1.4,0.4-1.9h0.3v7.2H93.2v-0.6
			L93.1,223.3L93.1,223.3z"/>
	</g>
	<g>
		<path class="st1" d="M116.1,216.7h0.3c0.2,1.2,0.5,2.2,0.8,3s0.7,1.5,1.1,2s0.9,0.9,1.3,1.2c0.5,0.3,0.9,0.5,1.4,0.6
			s0.9,0.2,1.3,0.2s0.8,0,1.2,0c1.1,0,1.9-0.2,2.6-0.5s1.2-0.8,1.6-1.3s0.7-1.1,0.8-1.7c0.2-0.6,0.2-1.2,0.2-1.7
			c0-0.8-0.1-1.4-0.4-2c-0.3-0.5-0.6-1-1-1.4s-0.8-0.7-1.3-0.9s-0.9-0.4-1.3-0.6l-3.4-1.1c-1.6-0.5-2.8-1.3-3.6-2.2
			c-0.8-0.9-1.2-2.1-1.2-3.6c0-1,0.2-1.9,0.5-2.7c0.3-0.8,0.8-1.6,1.3-2.2c0.5-0.6,1.3-1.1,2.1-1.4s1.7-0.5,2.6-0.5
			c0.7,0,1.3,0.1,1.7,0.2c0.4,0.1,0.9,0.3,1.2,0.4c0.3,0.2,0.6,0.3,0.9,0.4c0.3,0.1,0.5,0.2,0.8,0.2s0.4,0,0.5-0.1
			c0.1-0.1,0.2-0.3,0.4-0.6h0.4v5.9h-0.4c-0.1-0.8-0.3-1.5-0.6-2.3c-0.3-0.7-0.7-1.4-1.1-1.9c-0.5-0.6-1-1-1.7-1.3
			c-0.6-0.3-1.4-0.5-2.2-0.5c-0.5,0-1,0.1-1.6,0.2c-0.6,0.1-1.1,0.4-1.6,0.7c-0.5,0.3-0.9,0.8-1.2,1.4c-0.3,0.6-0.5,1.3-0.5,2.2
			c0,0.7,0.1,1.3,0.4,1.8s0.6,0.9,1,1.2s0.9,0.6,1.4,0.9c0.5,0.2,1,0.4,1.5,0.6l3.6,1.2c0.4,0.1,0.9,0.3,1.4,0.5s1.1,0.5,1.7,1
			c0.5,0.4,1,1,1.4,1.7s0.6,1.6,0.6,2.7c0,1-0.2,2-0.5,2.9s-0.8,1.7-1.5,2.5c-0.7,0.7-1.4,1.3-2.4,1.7c-0.9,0.4-2,0.6-3.2,0.6
			c-0.4,0-0.8,0-1.1,0c-0.3,0-0.6,0-0.9-0.1c-0.3,0-0.6-0.1-0.8-0.1c-0.3-0.1-0.6-0.1-0.9-0.2c-0.4-0.1-0.8-0.3-1.3-0.5
			s-0.9-0.3-1.2-0.3c-0.3,0-0.5,0.1-0.6,0.2c-0.1,0.1-0.2,0.3-0.3,0.5h-0.4v-6.9H116.1z"/>
		<path class="st1" d="M134.1,223.3h3.3v-22.4h-3.3v-0.5h9.6v0.5h-3.3v22.4h3.3v0.5h-9.6V223.3z"/>
	</g>
	<g>
		<path class="st1" d="M167.2,215.4h-2.4v7.4h-0.4c-0.2-0.2-0.4-0.4-0.5-0.5s-0.4-0.1-0.7-0.1c-0.4,0-0.7,0.1-1.1,0.3
			s-0.8,0.4-1.3,0.7s-1.1,0.5-1.7,0.7s-1.4,0.3-2.4,0.3c-1.4,0-2.7-0.3-3.7-0.8c-1.1-0.5-2.1-1.3-3.2-2.4c-1-1.1-1.8-2.4-2.5-3.9
			s-1-3.2-1-5c0-1.2,0.1-2.4,0.4-3.4s0.6-1.9,0.9-2.6c0.4-0.7,0.7-1.4,1.1-1.9s0.7-0.9,1-1.2c0.9-1,1.9-1.8,3.1-2.4
			c1.1-0.6,2.5-0.9,3.9-0.9c0.8,0,1.4,0.1,1.9,0.2c0.5,0.1,0.9,0.3,1.3,0.4c0.4,0.2,0.7,0.3,1,0.4c0.3,0.1,0.6,0.2,1,0.2
			s0.7-0.1,0.8-0.2c0.2-0.1,0.3-0.3,0.5-0.5h0.4v6.5h-0.3c-0.1-0.6-0.2-1.2-0.5-2s-0.6-1.5-1.1-2.2s-1.1-1.3-1.9-1.8
			s-1.8-0.7-3.1-0.7c-1.5,0-2.7,0.3-3.6,1s-1.6,1.6-2.1,2.7c-0.5,1.1-0.8,2.4-1,3.8c-0.2,1.4-0.3,2.8-0.3,4.3c0,1,0,2,0.1,2.9
			s0.2,1.9,0.4,2.8c0.2,0.9,0.5,1.7,0.8,2.4s0.8,1.4,1.3,1.9c0.6,0.6,1.2,1,1.8,1.2c0.6,0.2,1.5,0.3,2.5,0.3c0.6,0,1.2-0.1,1.8-0.3
			c0.6-0.2,1.2-0.6,1.7-1c0.5-0.5,0.9-1,1.2-1.8c0.3-0.7,0.5-1.5,0.5-2.5V215H158v-0.5h9.1v0.9L167.2,215.4L167.2,215.4z"/>
		<path class="st1" d="M168.9,223.3h3.3v-22.4h-3.3v-0.5h6.4l10.1,17.8h0.1v-17.4h-3.3v-0.5h7v0.5h-3.3v23.4h-0.6l-12.5-21.9h-0.1
			v21h3.3v0.5h-7v-0.5H168.9z"/>
	</g>
	<g>
		<path class="st1" d="M198.9,223.3h2.6l8-23.4h0.7l8.1,23.4h2.6v0.5h-9.2v-0.5h3.3l-3-9.1h-6.9l-3.1,9.1h3.3v0.5h-6.4V223.3z
			 M208.5,204.2l-3.3,9.5h6.5L208.5,204.2z"/>
		<path class="st1" d="M223.7,223.3h3.3v-22.4h-3.3v-0.5h5.6c0.2,0,0.5,0,0.7,0s0.5,0,0.7,0s0.5,0,0.7,0s0.5,0,0.7,0
			c1.2,0,2.2,0.1,3.1,0.2c0.9,0.1,1.7,0.6,2.5,1.2c0.7,0.6,1.2,1.3,1.5,2s0.4,1.4,0.4,2.1c0,0.3-0.1,0.7-0.2,1.3
			c-0.1,0.5-0.3,1-0.7,1.6c-0.4,0.5-0.9,1-1.6,1.5c-0.7,0.4-1.6,0.7-2.8,0.9v0.1c0.3,0,0.7,0.1,1.3,0.2c0.5,0.1,1.1,0.3,1.7,0.6
			c0.6,0.3,1.1,0.7,1.6,1.1c0.5,0.4,0.8,1.1,1,1.8c0.1,0.4,0.2,0.9,0.3,1.5c0,0.6,0.1,1.1,0.1,1.7c0,0.6,0.1,1.2,0.1,1.7
			s0.1,1,0.2,1.4c0.1,0.6,0.3,1.1,0.6,1.5c0.3,0.5,0.7,0.7,1.2,0.7c0.3,0,0.5-0.1,0.8-0.2c0.3-0.1,0.5-0.3,0.7-0.5l0.3,0.4
			c-0.1,0.1-0.2,0.2-0.3,0.3c-0.1,0.1-0.3,0.2-0.5,0.3s-0.4,0.2-0.7,0.2c-0.3,0.1-0.6,0.1-1.1,0.1c-0.8,0-1.5-0.1-2-0.3
			s-0.9-0.5-1.3-1c-0.3-0.4-0.5-0.9-0.7-1.6c-0.1-0.6-0.3-1.3-0.3-2.2l-0.2-3c-0.1-1.1-0.3-1.9-0.6-2.6c-0.3-0.6-0.7-1.1-1.1-1.3
			c-0.4-0.3-0.9-0.5-1.3-0.5s-0.9-0.1-1.2-0.1h-3v11.8h3.3v0.5h-9.6L223.7,223.3L223.7,223.3z M230,211h2.7c0.6,0,1.1-0.1,1.5-0.2
			c0.4-0.1,0.8-0.4,1.2-0.8c0.3-0.4,0.6-0.9,0.8-1.6c0.2-0.7,0.3-1.5,0.3-2.5c0-1.1-0.1-2-0.4-2.7s-0.6-1.2-1-1.6
			c-0.4-0.3-0.9-0.6-1.4-0.7c-0.5-0.1-1-0.2-1.6-0.2c-0.4,0-0.7,0-1.1,0s-0.7,0-0.9,0.1V211C230.1,211,230,211,230,211z"/>
	</g>
	<g>
		<path class="st1" d="M249.1,223.3h3.3v-22.4h-1.7c-0.4,0-0.8,0-1.3,0.1c-0.5,0.1-1,0.3-1.5,0.6s-1,0.9-1.5,1.7s-0.9,1.8-1.2,3.1
			h-0.3v-6H263v6h-0.3c-0.3-1.3-0.7-2.4-1.2-3.1c-0.5-0.8-1-1.3-1.5-1.7c-0.5-0.3-1-0.6-1.5-0.6c-0.5-0.1-0.9-0.1-1.3-0.1h-1.7v22.4
			h3.3v0.5h-9.6L249.1,223.3L249.1,223.3z"/>
		<path class="st1" d="M266.2,223.3h3.3v-22.4h-3.3v-0.5h9.6v0.5h-3.3v22.4h3.3v0.5h-9.6V223.3z"/>
	</g>
	<g>
		<path class="st1" d="M279.6,216.7h0.3c0.2,1.2,0.5,2.2,0.8,3s0.7,1.5,1.1,2s0.9,0.9,1.3,1.2c0.5,0.3,0.9,0.5,1.4,0.6
			s0.9,0.2,1.3,0.2s0.8,0,1.2,0c1.1,0,1.9-0.2,2.6-0.5s1.2-0.8,1.6-1.3s0.7-1.1,0.8-1.7c0.2-0.6,0.2-1.2,0.2-1.7
			c0-0.8-0.1-1.4-0.4-2c-0.3-0.5-0.6-1-1-1.4s-0.8-0.7-1.3-0.9s-0.9-0.4-1.3-0.6l-3.4-1.1c-1.6-0.5-2.8-1.3-3.6-2.2
			c-0.8-0.9-1.2-2.1-1.2-3.6c0-1,0.2-1.9,0.5-2.7c0.3-0.8,0.8-1.6,1.3-2.2c0.5-0.6,1.3-1.1,2.1-1.4s1.7-0.5,2.6-0.5
			c0.7,0,1.3,0.1,1.7,0.2c0.4,0.1,0.9,0.3,1.2,0.4c0.3,0.2,0.6,0.3,0.9,0.4c0.3,0.1,0.5,0.2,0.8,0.2s0.4,0,0.5-0.1
			c0.1-0.1,0.2-0.3,0.4-0.6h0.4v5.9H292c-0.1-0.8-0.3-1.5-0.6-2.3c-0.3-0.7-0.7-1.4-1.1-1.9c-0.5-0.6-1-1-1.7-1.3
			c-0.6-0.3-1.4-0.5-2.2-0.5c-0.5,0-1,0.1-1.6,0.2c-0.6,0.1-1.1,0.4-1.6,0.7c-0.5,0.3-0.9,0.8-1.2,1.4c-0.3,0.6-0.5,1.3-0.5,2.2
			c0,0.7,0.1,1.3,0.4,1.8s0.6,0.9,1,1.2s0.9,0.6,1.4,0.9c0.5,0.2,1,0.4,1.5,0.6l3.6,1.2c0.4,0.1,0.9,0.3,1.4,0.5s1.1,0.5,1.7,1
			c0.5,0.4,1,1,1.4,1.7s0.6,1.6,0.6,2.7c0,1-0.2,2-0.5,2.9s-0.8,1.7-1.5,2.5c-0.7,0.7-1.4,1.3-2.4,1.7c-0.9,0.4-2,0.6-3.2,0.6
			c-0.4,0-0.8,0-1.1,0s-0.6,0-0.9-0.1c-0.3,0-0.6-0.1-0.8-0.1c-0.3-0.1-0.6-0.1-0.9-0.2c-0.4-0.1-0.8-0.3-1.3-0.5s-0.9-0.3-1.2-0.3
			s-0.5,0.1-0.6,0.2c-0.1,0.1-0.2,0.3-0.3,0.5h-0.4v-6.9H279.6z"/>
		<path class="st1" d="M301.9,223.3h3.3v-22.4h-1.7c-0.4,0-0.8,0-1.3,0.1c-0.5,0.1-1,0.3-1.5,0.6s-1,0.9-1.5,1.7s-0.9,1.8-1.2,3.1
			h-0.3v-6h18.1v6h-0.3c-0.3-1.3-0.7-2.4-1.2-3.1c-0.5-0.8-1-1.3-1.5-1.7c-0.5-0.3-1-0.6-1.5-0.6c-0.5-0.1-0.9-0.1-1.3-0.1h-1.7
			v22.4h3.3v0.5H302L301.9,223.3L301.9,223.3z"/>
	</g>
	<g>
		<path class="st1" d="M319,223.3h3.3v-22.4H319v-0.5h5.6c0.2,0,0.5,0,0.7,0s0.5,0,0.7,0s0.5,0,0.7,0s0.5,0,0.7,0
			c1.2,0,2.2,0.1,3.1,0.2c0.9,0.1,1.7,0.6,2.5,1.2c0.7,0.6,1.2,1.3,1.5,2s0.4,1.4,0.4,2.1c0,0.3-0.1,0.7-0.2,1.3
			c-0.1,0.5-0.3,1-0.7,1.6c-0.4,0.5-0.9,1-1.6,1.5c-0.7,0.4-1.6,0.7-2.8,0.9v0.1c0.3,0,0.7,0.1,1.3,0.2c0.5,0.1,1.1,0.3,1.7,0.6
			c0.6,0.3,1.1,0.7,1.6,1.1c0.5,0.4,0.8,1.1,1,1.8c0.1,0.4,0.2,0.9,0.3,1.5c0,0.6,0.1,1.1,0.1,1.7c0,0.6,0.1,1.2,0.1,1.7
			s0.1,1,0.2,1.4c0.1,0.6,0.3,1.1,0.6,1.5c0.3,0.5,0.7,0.7,1.2,0.7c0.3,0,0.5-0.1,0.8-0.2c0.3-0.1,0.5-0.3,0.7-0.5l0.3,0.4
			c-0.1,0.1-0.2,0.2-0.3,0.3s-0.3,0.2-0.5,0.3s-0.4,0.2-0.7,0.2c-0.3,0.1-0.6,0.1-1.1,0.1c-0.8,0-1.5-0.1-2-0.3s-0.9-0.5-1.3-1
			c-0.3-0.4-0.5-0.9-0.7-1.6c-0.1-0.6-0.3-1.3-0.3-2.2l-0.2-3c-0.1-1.1-0.3-1.9-0.6-2.6c-0.3-0.6-0.7-1.1-1.1-1.3
			c-0.4-0.3-0.9-0.5-1.3-0.5s-0.9-0.1-1.2-0.1h-3v11.8h3.3v0.5H319L319,223.3L319,223.3z M325.3,211h2.7c0.6,0,1.1-0.1,1.5-0.2
			c0.4-0.1,0.8-0.4,1.2-0.8c0.3-0.4,0.6-0.9,0.8-1.6s0.3-1.5,0.3-2.5c0-1.1-0.1-2-0.4-2.7c-0.3-0.7-0.6-1.2-1-1.6
			c-0.4-0.3-0.9-0.6-1.4-0.7c-0.5-0.1-1-0.2-1.6-0.2c-0.4,0-0.7,0-1.1,0c-0.4,0-0.7,0-0.9,0.1L325.3,211L325.3,211z"/>
		<path class="st1" d="M344.8,223.3h3.3v-9.4l-6.7-13h-2.7v-0.5h9.1v0.5h-3l5.9,11.5l5.6-11.5h-3v-0.5h6.4v0.5h-2.9l-5.8,11.9v10.4
			h3.3v0.5h-9.6v-0.4H344.8z"/>
	</g>
</g>
</svg>
