<!-- Generated by IcoMoon.io -->
<svg version="1.1" xmlns="http://www.w3.org/2000/svg" width="3840" height="1024" viewBox="0 0 3840 1024">
<title></title>
<g id="icomoon-ignore">
</g>
<path fill="#000" d="M673.525 845.889h-3.845v13.458h3.204c0-3.845 0.641-8.331 0.641-13.458z"></path>
<path fill="#000" d="M1288.752 845.889l-257.626-676.749h-22.43l-38.452 102.538c5.127 14.74 8.331 25.634 8.331 25.634v0l103.179 272.366h-185.209l-3.204 13.458h193.54l99.333 262.753h-105.101v13.458h291.592v-13.458h-83.953z"></path>
<path fill="#000" d="M666.476 199.26h0.641v-13.458h-104.46l-174.955 508.844h-1.923l-174.955-508.844h-212.766v13.458h105.101v646.629h-105.101v13.458h224.301v-13.458h-105.101v-634.453h1.923l224.942 649.192 226.224-655.601h1.923v640.861h-105.101v13.458h304.409v-13.458h-105.101z"></path>
<path fill="#000" d="M1411.797 472.267h25.634v-173.033h-25.634v-3.845h51.91l42.297 135.863h0.641l42.297-135.863h50.628v3.845h-25.634v173.033h25.634v3.845h-73.699v-3.845h25.634v-171.11h-0.641l-55.114 174.955-54.473-173.033h-0.641v169.187h25.634v3.845h-54.473v-3.845z"></path>
<path fill="#000" d="M1621.359 472.267h20.508l62.164-180.723h5.768l62.164 180.723h20.508v3.845h-70.495v-3.845h25.634l-24.353-70.495h-53.191l-24.353 70.495h25.634v3.845h-49.346v-3.845zM1696.339 324.869l-24.994 73.699h50.628l-25.634-73.699z"></path>
<path fill="#000" d="M1814.899 472.267h25.634v-173.033h-25.634v-3.845h43.579c1.923 0 3.845 0 5.768 0s3.845 0 5.768-0.641c1.923 0 3.845 0 5.768 0s3.845 0 5.768 0c8.972 0 17.303 0.641 23.712 1.923 7.049 1.282 13.458 4.486 19.226 9.613 5.127 4.486 8.972 9.613 11.536 15.381 1.923 5.768 3.204 10.895 3.204 16.022 0 2.563-0.641 5.768-1.282 9.613s-2.563 7.69-5.768 12.176c-2.563 3.845-7.049 7.69-12.176 11.536-5.127 3.204-12.176 5.768-21.148 7.049v0.641c2.563 0.641 5.768 1.282 10.254 1.923s8.331 2.563 12.817 4.486c4.486 1.923 8.331 5.127 12.176 8.972s6.409 8.331 7.69 14.099c0.641 3.204 1.282 7.049 1.923 11.536s0.641 8.972 0.641 13.458 0.641 8.972 0.641 12.817c0 4.486 0.641 7.69 1.282 10.895 0.641 4.486 2.563 8.331 4.486 12.176s5.127 5.127 9.613 5.127c1.923 0 3.845-0.641 6.409-1.282 1.923-0.641 3.845-1.923 5.768-3.845l1.923 2.563c-0.641 0.641-1.923 1.282-2.563 1.923-1.282 0.641-2.563 1.282-3.845 1.923s-3.204 1.282-5.768 1.923c-1.923 0.641-5.127 0.641-8.331 0.641-6.409 0-11.536-0.641-15.381-2.563s-7.049-4.486-9.613-7.69-4.486-7.049-5.127-12.176c-1.282-4.486-1.923-10.254-2.563-16.662l-1.923-23.071c-0.641-8.331-1.923-14.74-4.486-19.867-2.563-4.486-5.127-8.331-8.331-10.254s-6.409-3.204-10.254-3.845c-3.204-0.641-6.409-0.641-8.972-0.641h-23.071v91.002h25.634v3.845h-73.699v-3.845zM1862.963 377.419h21.148c4.486 0 8.331-0.641 11.536-1.923s6.409-3.204 8.972-6.409c2.563-3.204 4.486-7.049 5.768-12.176s1.923-11.536 1.923-19.226c0-8.972-1.282-16.022-3.204-21.148s-4.486-9.613-8.331-12.176c-3.204-2.563-7.049-4.486-10.895-5.127s-8.331-1.282-12.176-1.282c-2.563 0-5.768 0-8.331 0s-5.127 0-7.049 0.641v78.826z"></path>
<path fill="#000" d="M1996.262 472.267h25.634v-173.033h-25.634v-3.845h71.776v3.845h-23.712v80.108h2.563l69.213-80.108h-23.071v-3.845h47.424v3.845h-19.226l-58.318 67.931 83.312 105.101h15.381v3.845h-66.65v-3.845h20.508l-68.572-89.080h-1.923v89.080h23.712v3.845h-71.776v-3.845z"></path>
<path fill="#000" d="M2234.663 472.267h20.508l62.164-180.723h5.768l62.164 180.723h20.508v3.845h-70.495v-3.845h25.634l-24.353-70.495h-53.191l-24.353 70.495h25.634v3.845h-49.346v-3.845zM2309.644 324.869l-24.994 73.699h50.628l-25.634-73.699z"></path>
<path fill="#000" d="M2428.203 472.267h25.634v-173.033h-25.634v-3.845h73.699v3.845h-25.634v173.033h41.015c13.458 0 24.353-4.486 31.402-14.099 7.69-8.972 13.458-21.789 16.662-37.811h2.563v55.114h-140.349v-3.204z"></path>
<path fill="#000" d="M2596.108 472.267h25.634v-173.033h-25.634v-3.845h131.377v43.579h-2.563c-1.923-6.409-3.845-12.176-6.409-17.303s-5.127-8.972-8.331-12.817c-3.204-3.204-7.049-5.768-11.536-7.69s-9.613-2.563-16.022-2.563h-37.811v78.826h14.74c5.127 0 9.613-0.641 12.817-1.282 3.204-1.282 6.409-3.204 8.972-5.768s4.486-6.409 6.409-11.536c1.923-4.486 3.204-10.895 5.127-18.585h2.563v78.826h-2.563c-1.282-5.127-1.923-9.613-3.204-14.099s-2.563-8.331-5.127-12.176c-1.923-3.845-5.127-6.409-8.331-8.331s-7.69-3.204-13.458-3.204h-18.585v91.002h43.579c8.331 0 15.381-1.923 21.148-5.768s10.254-8.972 13.458-14.099c3.204-5.768 6.409-10.895 7.69-17.303 1.923-5.768 2.563-10.895 3.204-14.74h2.563v55.114h-140.349v-3.204z"></path>
<path fill="#000" d="M2765.937 472.267h21.789l46.142-84.594-48.705-88.439h-19.226v-3.845h68.572v3.845h-21.789l36.529 66.65 36.529-66.65h-21.789v-3.845h48.065v3.845h-21.789l-38.452 69.854 57.037 102.538h19.226v3.845h-68.572v-3.845h21.789l-44.86-80.749-44.86 81.389h21.789v3.845h-47.424v-3.845z"></path>
<path fill="#000" d="M2949.864 472.267h20.508l62.164-180.723h5.768l62.164 180.723h20.508v3.845h-70.495v-3.845h25.634l-24.353-70.495h-53.191l-24.353 70.495h25.634v3.845h-49.346v-3.845zM3024.204 324.869l-24.994 73.699h50.628l-25.634-73.699z"></path>
<path fill="#000" d="M3142.122 472.267h25.634v-173.033h-25.634v-3.845h49.346l77.544 137.785h0.641v-133.94h-25.634v-3.845h54.473v3.845h-25.634v180.082h-4.486l-96.77-169.187h-0.641v162.138h25.634v3.845h-54.473v-3.845z"></path>
<path fill="#000" d="M3323.486 472.267h25.634v-173.033h-25.634v-3.845h42.938c1.923 0 4.486 0 6.409 0s4.486 0 6.409-0.641c1.923 0 4.486 0 6.409 0s4.486 0 6.409 0 8.972 0 12.176 0c3.845 0 7.049 0.641 10.254 0.641 3.204 0.641 6.409 1.282 8.972 1.923s5.768 1.923 8.972 3.204c9.613 3.204 17.303 7.69 24.353 13.458s12.176 12.176 16.662 19.867c4.486 7.69 7.69 15.381 9.613 24.353s3.204 17.944 3.204 27.557c0 10.895-1.282 21.148-3.845 30.12s-5.768 16.662-10.254 23.712-9.613 12.817-14.74 17.944c-5.768 5.127-12.176 8.972-18.585 12.176-3.845 1.923-7.049 3.204-10.254 4.486s-6.409 1.923-10.254 2.563c-3.204 0.641-7.049 0.641-11.536 1.282-3.845 0-8.972 0-14.099 0-2.563 0-4.486 0-7.049 0s-5.127 0-7.69-0.641c-2.563 0-5.127 0-7.69-0.641-2.563 0-5.127 0-7.049 0h-39.733v-4.486zM3371.55 472.267c2.563 0.641 5.768 0.641 8.972 0.641s7.049 0 11.536 0c5.127 0 10.254 0 15.381-0.641s10.254-1.923 14.74-3.845c4.486-1.923 8.972-4.486 12.817-8.331s7.69-8.331 10.895-14.099c5.127-8.972 8.331-18.585 10.254-28.198s2.563-19.867 2.563-31.402c0-13.458-1.282-25.634-3.204-36.529-2.563-10.895-5.768-19.867-11.536-27.557-5.127-7.69-12.176-13.458-21.148-17.944s-19.226-6.409-32.684-6.409c-3.845 0-7.049 0-10.254 0s-6.409 0.641-8.972 0.641v173.673z"></path>
<path fill="#000" d="M3508.695 472.267h25.634v-173.033h-25.634v-3.845h131.377v43.579h-2.563c-1.923-6.409-3.845-12.176-6.409-17.303s-5.127-8.972-8.331-12.817c-3.204-3.204-7.049-5.768-11.536-7.69s-9.613-2.563-16.022-2.563h-37.811v78.826h14.74c5.127 0 9.613-0.641 12.817-1.282 3.204-1.282 6.409-3.204 8.972-5.768s4.486-6.409 6.409-11.536c1.923-4.486 3.204-10.895 5.127-18.585h2.563v78.826h-2.563c-1.282-5.127-1.923-9.613-3.204-14.099s-2.563-8.331-5.127-12.176c-1.923-3.845-5.127-6.409-8.331-8.331s-7.69-3.204-13.458-3.204h-18.585v91.002h43.579c8.331 0 15.381-1.923 21.148-5.768s10.254-8.972 13.458-14.099c3.204-5.768 6.409-10.895 7.69-17.303 1.923-5.768 2.563-10.895 3.204-14.74h2.563v55.114h-140.349v-3.204z"></path>
<path fill="#000" d="M3678.523 472.267h25.634v-173.033h-25.634v-3.845h43.579c1.923 0 3.845 0 5.768 0s3.845 0 5.768-0.641c1.923 0 3.845 0 5.768 0s3.845 0 5.768 0c8.972 0 17.303 0.641 23.712 1.923 7.049 1.282 13.458 4.486 19.226 9.613 5.127 4.486 8.972 9.613 11.536 15.381 1.923 5.768 3.204 10.895 3.204 16.022 0 2.563-0.641 5.768-1.282 9.613s-2.563 7.69-5.768 12.176c-2.563 3.845-7.049 7.69-12.176 11.536-5.127 3.204-12.176 5.768-21.148 7.049v0.641c2.563 0.641 5.768 1.282 10.254 1.923s8.331 2.563 12.817 4.486c4.486 1.923 8.331 5.127 12.176 8.972s6.409 8.331 7.69 14.099c0.641 3.204 1.282 7.049 1.923 11.536s0.641 8.972 0.641 13.458 0.641 8.972 0.641 12.817c0 4.486 0.641 7.69 1.282 10.895 0.641 4.486 2.563 8.331 4.486 12.176s5.127 5.127 9.613 5.127c1.923 0 3.845-0.641 6.409-1.282 1.923-0.641 3.845-1.923 5.768-3.845l1.923 2.563c-0.641 0.641-1.923 1.282-2.563 1.923-1.282 0.641-2.563 1.282-3.845 1.923s-3.204 1.282-5.768 1.923c-1.923 0.641-5.127 0.641-8.331 0.641-6.409 0-11.536-0.641-15.381-2.563s-7.049-4.486-9.613-7.69-4.486-7.049-5.127-12.176c-1.282-4.486-1.923-10.254-2.563-16.662l-1.923-23.071c-0.641-8.331-1.923-14.74-4.486-19.867-2.563-4.486-5.127-8.331-8.331-10.254s-6.409-3.204-10.254-3.845c-3.204-0.641-6.409-0.641-8.972-0.641h-23.712v91.002h25.634v3.845h-73.699v-3.845zM3727.228 377.419h21.148c4.486 0 8.331-0.641 11.536-1.923s6.409-3.204 8.972-6.409c2.563-3.204 4.486-7.049 5.768-12.176s1.923-11.536 1.923-19.226c0-8.972-1.282-16.022-3.204-21.148s-4.486-9.613-8.331-12.176c-3.204-2.563-7.049-4.486-10.895-5.127s-8.331-1.282-12.176-1.282c-2.563 0-5.768 0-8.331 0s-5.127 0-7.049 0.641v78.826z"></path>
<path fill="#000" d="M1652.761 749.759h21.148v-143.553h-21.148v-3.204h35.247c1.923 0 3.845 0 5.127 0 1.923 0 3.845 0 5.127 0 1.923 0 3.845 0 5.127 0 1.923 0 3.845 0 5.127 0 3.845 0 7.049 0 10.254 0s5.768 0.641 8.331 0.641c2.563 0.641 5.127 0.641 7.69 1.282s5.127 1.282 7.69 2.563c7.69 2.563 14.74 6.409 19.867 11.536 5.768 4.486 10.254 10.254 14.099 16.022 3.845 6.409 6.409 12.817 7.69 19.867 1.923 7.049 2.563 14.74 2.563 23.071 0 8.972-1.282 17.303-3.204 24.994-1.923 7.049-5.127 14.099-8.331 19.226-3.845 5.768-7.69 10.254-12.176 14.74-4.486 3.845-9.613 7.69-15.381 10.254-3.204 1.282-5.768 2.563-8.972 3.845-2.563 0.641-5.768 1.282-8.331 1.923s-5.768 0.641-9.613 0.641c-3.204 0-7.049 0-11.536 0-1.923 0-3.845 0-6.409 0-1.923 0-4.486 0-6.409 0s-4.486 0-6.409 0c-1.923 0-3.845 0-5.768 0h-32.684v-3.845zM1693.135 749.759c1.923 0 4.486 0.641 7.69 0.641 2.563 0 5.768 0 9.613 0 4.486 0 8.331 0 12.817-0.641s8.331-1.282 12.176-3.204c3.845-1.282 7.69-3.845 10.895-7.049s6.409-7.049 8.972-11.536c3.845-7.69 7.049-15.381 8.331-23.071s2.563-16.662 2.563-25.634c0-10.895-0.641-21.148-2.563-30.12s-5.127-16.662-9.613-23.071c-4.486-6.409-10.254-11.536-17.303-14.74s-16.022-5.127-26.916-5.127c-3.204 0-5.768 0-8.972 0-2.563 0-5.127 0-7.69 0.641v142.912z"></path>
<path fill="#000" d="M1805.286 749.759h21.148v-143.553h-21.148v-3.204h108.946v36.529h-1.923c-1.923-5.768-3.204-10.254-5.127-14.099s-4.486-7.69-7.049-10.254c-2.563-2.563-5.768-5.127-9.613-6.409s-8.331-1.923-13.458-1.923h-31.402v64.727h12.176c4.486 0 7.69-0.641 10.895-1.282s5.127-2.563 7.69-4.486c1.923-2.563 3.845-5.127 5.127-9.613 1.282-3.845 3.204-8.972 4.486-15.381h1.923v65.368h-1.923c-0.641-3.845-1.923-7.69-2.563-11.536s-2.563-7.049-3.845-10.254c-1.923-3.204-3.845-5.127-7.049-7.049-2.563-1.923-6.409-2.563-10.895-2.563h-15.381v75.622h35.888c7.049 0 12.817-1.923 17.303-5.127s8.331-7.049 11.536-11.536c3.204-4.486 5.127-8.972 6.409-14.099s2.563-8.972 2.563-12.176h1.923v46.142h-115.996v-3.845z"></path>
<path fill="#000" d="M1952.684 707.463h1.923c1.282 7.69 3.204 14.099 5.127 19.226s4.486 9.613 7.049 12.817 5.768 5.768 8.331 7.69c3.204 1.923 5.768 3.204 8.972 3.845s5.768 1.282 8.331 1.282c2.563 0 5.127 0 7.69 0 7.049 0 12.176-1.282 16.662-3.204s7.69-5.127 10.254-8.331 4.486-7.049 5.127-10.895c1.282-3.845 1.282-7.69 1.282-10.895 0-5.127-0.641-8.972-2.563-12.817-1.923-3.204-3.845-6.409-6.409-8.972s-5.127-4.486-8.331-5.768c-3.204-1.282-5.768-2.563-8.331-3.845l-21.789-7.049c-10.254-3.204-17.944-8.331-23.071-14.099s-7.69-13.458-7.69-23.071c0-6.409 1.282-12.176 3.204-17.303s5.127-10.254 8.331-14.099 8.331-7.049 13.458-8.972 10.895-3.204 16.662-3.204c4.486 0 8.331 0.641 10.895 1.282s5.768 1.923 7.69 2.563c1.923 1.282 3.845 1.923 5.768 2.563s3.204 1.282 5.127 1.282c1.923 0 2.563 0 3.204-0.641s1.282-1.923 2.563-3.845h2.563v37.811h-2.563c-0.641-5.127-1.923-9.613-3.845-14.74-1.923-4.486-4.486-8.972-7.049-12.176-3.204-3.845-6.409-6.409-10.895-8.331-3.845-1.923-8.972-3.204-14.099-3.204-3.204 0-6.409 0.641-10.254 1.282s-7.049 2.563-10.254 4.486c-3.204 1.923-5.768 5.127-7.69 8.972s-3.204 8.331-3.204 14.099c0 4.486 0.641 8.331 2.563 11.536s3.845 5.768 6.409 7.69c2.563 1.923 5.768 3.845 8.972 5.768 3.204 1.282 6.409 2.563 9.613 3.845l23.071 7.69c2.563 0.641 5.768 1.923 8.972 3.204s7.049 3.204 10.895 6.409c3.204 2.563 6.409 6.409 8.972 10.895s3.845 10.254 3.845 17.303c0 6.409-1.282 12.817-3.204 18.585s-5.127 10.895-9.613 16.022c-4.486 4.486-8.972 8.331-15.381 10.895-5.768 2.563-12.817 3.845-20.508 3.845-2.563 0-5.127 0-7.049 0s-3.845 0-5.768-0.641c-1.923 0-3.845-0.641-5.127-0.641-1.923-0.641-3.845-0.641-5.768-1.282-2.563-0.641-5.127-1.923-8.331-3.204s-5.768-1.923-7.69-1.923c-1.923 0-3.204 0.641-3.845 1.282s-1.282 1.923-1.923 3.204h-2.563v-44.219z"></path>
<path fill="#000" d="M2068.039 749.759h21.148v-143.553h-21.148v-3.204h61.523v3.204h-21.148v143.553h21.148v3.204h-61.523v-3.204z"></path>
<path fill="#000" d="M2280.164 699.131h-15.381v47.424h-2.563c-1.282-1.282-2.563-2.563-3.204-3.204s-2.563-0.641-4.486-0.641c-2.563 0-4.486 0.641-7.049 1.923s-5.127 2.563-8.331 4.486c-3.204 1.923-7.049 3.204-10.895 4.486s-8.972 1.923-15.381 1.923c-8.972 0-17.303-1.923-23.712-5.127-7.049-3.204-13.458-8.331-20.508-15.381-6.409-7.049-11.536-15.381-16.022-24.994s-6.409-20.508-6.409-32.043c0-7.69 0.641-15.381 2.563-21.789s3.845-12.176 5.768-16.662c2.563-4.486 4.486-8.972 7.049-12.176s4.486-5.768 6.409-7.69c5.768-6.409 12.176-11.536 19.867-15.381 7.049-3.845 16.022-5.768 24.994-5.768 5.127 0 8.972 0.641 12.176 1.282s5.768 1.923 8.331 2.563c2.563 1.282 4.486 1.923 6.409 2.563s3.845 1.282 6.409 1.282c2.563 0 4.486-0.641 5.127-1.282 1.282-0.641 1.923-1.923 3.204-3.204h2.563v41.656h-1.923c-0.641-3.845-1.282-7.69-3.204-12.817s-3.845-9.613-7.049-14.099c-3.204-4.486-7.049-8.331-12.176-11.536s-11.536-4.486-19.867-4.486c-9.613 0-17.303 1.923-23.071 6.409s-10.254 10.254-13.458 17.303c-3.204 7.049-5.127 15.381-6.409 24.353s-1.923 17.944-1.923 27.557c0 6.409 0 12.817 0.641 18.585s1.282 12.176 2.563 17.944c1.282 5.768 3.204 10.895 5.127 15.381s5.127 8.972 8.331 12.176c3.845 3.845 7.69 6.409 11.536 7.69s9.613 1.923 16.022 1.923c3.845 0 7.69-0.641 11.536-1.923s7.69-3.845 10.895-6.409c3.204-3.204 5.768-6.409 7.69-11.536 1.923-4.486 3.204-9.613 3.204-16.022v-17.303h-24.353v-3.204h58.318v5.768z"></path>
<path fill="#000" d="M2291.059 749.759h21.148v-143.553h-21.148v-3.204h41.015l64.727 114.073h0.641v-111.51h-21.148v-3.204h44.86v3.204h-21.148v149.962h-3.845l-80.108-140.349h-0.641v134.581h21.148v3.204h-44.86v-3.204z"></path>
<path fill="#000" d="M2483.317 749.759h16.662l51.269-149.962h4.486l51.91 149.962h16.662v3.204h-58.959v-3.204h21.148l-19.226-58.318h-44.219l-19.867 58.318h21.148v3.204h-41.015v-3.204zM2544.84 627.355l-21.148 60.882h41.656l-20.508-60.882z"></path>
<path fill="#000" d="M2642.25 749.759h21.148v-143.553h-21.148v-3.204h35.888c1.282 0 3.204 0 4.486 0s3.204 0 4.486 0c1.282 0 3.204 0 4.486 0s3.204 0 4.486 0c7.69 0 14.099 0.641 19.867 1.282s10.895 3.845 16.022 7.69c4.486 3.845 7.69 8.331 9.613 12.817s2.563 8.972 2.563 13.458c0 1.923-0.641 4.486-1.282 8.331-0.641 3.204-1.923 6.409-4.486 10.254-2.563 3.204-5.768 6.409-10.254 9.613-4.486 2.563-10.254 4.486-17.944 5.768v0.641c1.923 0 4.486 0.641 8.331 1.282 3.204 0.641 7.049 1.923 10.895 3.845s7.049 4.486 10.254 7.049 5.127 7.049 6.409 11.536c0.641 2.563 1.282 5.768 1.923 9.613 0 3.845 0.641 7.049 0.641 10.895s0.641 7.69 0.641 10.895c0 3.204 0.641 6.409 1.282 8.972 0.641 3.845 1.923 7.049 3.845 9.613 1.923 3.204 4.486 4.486 7.69 4.486 1.923 0 3.204-0.641 5.127-1.282s3.204-1.923 4.486-3.204l1.923 2.563c-0.641 0.641-1.282 1.282-1.923 1.923s-1.923 1.282-3.204 1.923-2.563 1.282-4.486 1.282c-1.923 0.641-3.845 0.641-7.049 0.641-5.127 0-9.613-0.641-12.817-1.923s-5.768-3.204-8.331-6.409c-1.923-2.563-3.204-5.768-4.486-10.254-0.641-3.845-1.923-8.331-1.923-14.099l-1.282-19.226c-0.641-7.049-1.923-12.176-3.845-16.662-1.923-3.845-4.486-7.049-7.049-8.331-2.563-1.923-5.768-3.204-8.331-3.204s-5.768-0.641-7.69-0.641h-19.226v75.622h21.148v3.204h-61.523v-3.204zM2682.625 670.934h17.303c3.845 0 7.049-0.641 9.613-1.282s5.127-2.563 7.69-5.127c1.923-2.563 3.845-5.768 5.127-10.254s1.923-9.613 1.923-16.022c0-7.049-0.641-12.817-2.563-17.303s-3.845-7.69-6.409-10.254c-2.563-1.923-5.768-3.845-8.972-4.486s-6.409-1.282-10.254-1.282c-2.563 0-4.486 0-7.049 0s-4.486 0-5.768 0.641v65.368z"></path>
<path fill="#000" d="M2805.029 749.759h21.148v-143.553h-10.895c-2.563 0-5.127 0-8.331 0.641s-6.409 1.923-9.613 3.845c-3.204 1.923-6.409 5.768-9.613 10.895s-5.768 11.536-7.69 19.867h-1.923v-38.452h115.996v38.452h-1.923c-1.923-8.331-4.486-15.381-7.69-19.867-3.204-5.127-6.409-8.331-9.613-10.895-3.204-1.923-6.409-3.845-9.613-3.845-3.204-0.641-5.768-0.641-8.331-0.641h-10.895v143.553h21.148v3.204h-61.523v-3.204z"></path>
<path fill="#000" d="M2914.616 749.759h21.148v-143.553h-21.148v-3.204h61.523v3.204h-21.148v143.553h21.148v3.204h-61.523v-3.204z"></path>
<path fill="#000" d="M3000.492 707.463h1.923c1.282 7.69 3.204 14.099 5.127 19.226s4.486 9.613 7.049 12.817 5.768 5.768 8.331 7.69c3.204 1.923 5.768 3.204 8.972 3.845s5.768 1.282 8.331 1.282c2.563 0 5.127 0 7.69 0 7.049 0 12.176-1.282 16.662-3.204s7.69-5.127 10.254-8.331 4.486-7.049 5.127-10.895c1.282-3.845 1.282-7.69 1.282-10.895 0-5.127-0.641-8.972-2.563-12.817-1.923-3.204-3.845-6.409-6.409-8.972s-5.127-4.486-8.331-5.768c-3.204-1.282-5.768-2.563-8.331-3.845l-21.789-7.049c-10.254-3.204-17.944-8.331-23.071-14.099s-7.69-13.458-7.69-23.071c0-6.409 1.282-12.176 3.204-17.303s5.127-10.254 8.331-14.099 8.331-7.049 13.458-8.972 10.895-3.204 16.662-3.204c4.486 0 8.331 0.641 10.895 1.282s5.768 1.923 7.69 2.563c1.923 1.282 3.845 1.923 5.768 2.563s3.204 1.282 5.127 1.282c1.923 0 2.563 0 3.204-0.641s1.282-1.923 2.563-3.845h2.563v37.811h-2.563c-0.641-5.127-1.923-9.613-3.845-14.74-1.923-4.486-4.486-8.972-7.049-12.176-3.204-3.845-6.409-6.409-10.895-8.331-3.845-1.923-8.972-3.204-14.099-3.204-3.204 0-6.409 0.641-10.254 1.282s-7.049 2.563-10.254 4.486c-3.204 1.923-5.768 5.127-7.69 8.972s-3.204 8.331-3.204 14.099c0 4.486 0.641 8.331 2.563 11.536s3.845 5.768 6.409 7.69c2.563 1.923 5.768 3.845 8.972 5.768 3.204 1.282 6.409 2.563 9.613 3.845l23.071 7.69c2.563 0.641 5.768 1.923 8.972 3.204s7.049 3.204 10.895 6.409c3.204 2.563 6.409 6.409 8.972 10.895s3.845 10.254 3.845 17.303c0 6.409-1.282 12.817-3.204 18.585s-5.127 10.895-9.613 16.022c-4.486 4.486-8.972 8.331-15.381 10.895-5.768 2.563-12.817 3.845-20.508 3.845-2.563 0-5.127 0-7.049 0s-3.845 0-5.768-0.641c-1.923 0-3.845-0.641-5.127-0.641-1.923-0.641-3.845-0.641-5.768-1.282-2.563-0.641-5.127-1.923-8.331-3.204s-5.768-1.923-7.69-1.923c-1.923 0-3.204 0.641-3.845 1.282s-1.282 1.923-1.923 3.204h-2.563v-44.219z"></path>
<path fill="#000" d="M3143.404 749.759h21.148v-143.553h-10.895c-2.563 0-5.127 0-8.331 0.641s-6.409 1.923-9.613 3.845c-3.204 1.923-6.409 5.768-9.613 10.895s-5.768 11.536-7.69 19.867h-1.923v-38.452h115.996v38.452h-1.923c-1.923-8.331-4.486-15.381-7.69-19.867-3.204-5.127-6.409-8.331-9.613-10.895-3.204-1.923-6.409-3.845-9.613-3.845-3.204-0.641-5.768-0.641-8.331-0.641h-10.895v143.553h21.148v3.204h-61.523v-3.204z"></path>
<path fill="#000" d="M3252.991 749.759h21.148v-143.553h-21.148v-3.204h35.888c1.282 0 3.204 0 4.486 0s3.204 0 4.486 0c1.282 0 3.204 0 4.486 0s3.204 0 4.486 0c7.69 0 14.099 0.641 19.867 1.282s10.895 3.845 16.022 7.69c4.486 3.845 7.69 8.331 9.613 12.817s2.563 8.972 2.563 13.458c0 1.923-0.641 4.486-1.282 8.331-0.641 3.204-1.923 6.409-4.486 10.254-2.563 3.204-5.768 6.409-10.254 9.613-4.486 2.563-10.254 4.486-17.944 5.768v0.641c1.923 0 4.486 0.641 8.331 1.282 3.204 0.641 7.049 1.923 10.895 3.845s7.049 4.486 10.254 7.049 5.127 7.049 6.409 11.536c0.641 2.563 1.282 5.768 1.923 9.613 0 3.845 0.641 7.049 0.641 10.895s0.641 7.69 0.641 10.895c0 3.204 0.641 6.409 1.282 8.972 0.641 3.845 1.923 7.049 3.845 9.613 1.923 3.204 4.486 4.486 7.69 4.486 1.923 0 3.204-0.641 5.127-1.282s3.204-1.923 4.486-3.204l1.923 2.563c-0.641 0.641-1.282 1.282-1.923 1.923s-1.923 1.282-3.204 1.923-2.563 1.282-4.486 1.282c-1.923 0.641-3.845 0.641-7.049 0.641-5.127 0-9.613-0.641-12.817-1.923s-5.768-3.204-8.331-6.409c-1.923-2.563-3.204-5.768-4.486-10.254-0.641-3.845-1.923-8.331-1.923-14.099l-1.282-19.226c-0.641-7.049-1.923-12.176-3.845-16.662-1.923-3.845-4.486-7.049-7.049-8.331-2.563-1.923-5.768-3.204-8.331-3.204s-5.768-0.641-7.69-0.641h-19.226v75.622h21.148v3.204h-60.882v-3.204zM3293.365 670.934h17.303c3.845 0 7.049-0.641 9.613-1.282s5.127-2.563 7.69-5.127c1.923-2.563 3.845-5.768 5.127-10.254s1.923-9.613 1.923-16.022c0-7.049-0.641-12.817-2.563-17.303s-3.845-7.69-6.409-10.254c-2.563-1.923-5.768-3.845-8.972-4.486s-6.409-1.282-10.254-1.282c-2.563 0-4.486 0-7.049 0s-4.486 0-5.768 0.641v65.368z"></path>
<path fill="#000" d="M3418.333 749.759h21.148v-60.241l-42.938-83.312h-17.303v-3.204h58.318v3.204h-19.226l37.811 73.699 35.888-73.699h-19.226v-3.204h41.015v3.204h-18.585l-37.17 76.262v66.65h21.148v3.204h-61.523v-2.563z"></path>
</svg>
