<?xml version="1.0" encoding="UTF-8" standalone="no"?>
<!-- Generator: Adobe Illustrator 22.1.0, SVG Export Plug-In . SVG Version: 6.00 Build 0)  -->

<svg
   xmlns:dc="http://purl.org/dc/elements/1.1/"
   xmlns:cc="http://creativecommons.org/ns#"
   xmlns:rdf="http://www.w3.org/1999/02/22-rdf-syntax-ns#"
   xmlns:svg="http://www.w3.org/2000/svg"
   xmlns="http://www.w3.org/2000/svg"
   xmlns:sodipodi="http://sodipodi.sourceforge.net/DTD/sodipodi-0.dtd"
   xmlns:inkscape="http://www.inkscape.org/namespaces/inkscape"
   version="1.1"
   id="Layer_1"
   x="0px"
   y="0px"
   viewBox="0 0 380 30"
   xml:space="preserve"
   sodipodi:docname="MarkAlexanderDesign_Logo.svg"
   width="380"
   height="30"
   inkscape:version="0.92.3 (unknown)"><metadata
   id="metadata400"><rdf:RDF><cc:Work
       rdf:about=""><dc:format>image/svg+xml</dc:format><dc:type
         rdf:resource="http://purl.org/dc/dcmitype/StillImage" /><dc:title></dc:title></cc:Work></rdf:RDF></metadata><defs
   id="defs398" /><sodipodi:namedview
   pagecolor="#ffffff"
   bordercolor="#666666"
   borderopacity="1"
   objecttolerance="10"
   gridtolerance="10"
   guidetolerance="10"
   inkscape:pageopacity="0"
   inkscape:pageshadow="2"
   inkscape:window-width="1920"
   inkscape:window-height="1056"
   id="namedview396"
   showgrid="false"
   showborder="false"
   inkscape:zoom="2.332"
   inkscape:cx="318.84518"
   inkscape:cy="100"
   inkscape:window-x="0"
   inkscape:window-y="24"
   inkscape:window-maximized="1"
   inkscape:current-layer="Layer_1" />
<style
   type="text/css"
   id="style221">
	.st0{fill:none;stroke:#000000;stroke-width:0.5386;stroke-miterlimit:2.1173;}
	.st1{fill:none;stroke:#000000;stroke-width:0.4252;stroke-miterlimit:1.7573;}
</style>


<g
   id="g239"
   transform="translate(-295.02573,-64.51115)">
	<path
   d="m 295.7,93.8 h 4 v -27 h -4 v -0.6 h 8.1 l 6.6,21.2 h 0.1 l 6.6,-21.2 h 7.9 v 0.6 h -4 v 27 h 4 v 0.6 h -11.5 v -0.6 h 4 V 67.1 h -0.1 l -8.6,27.3 -8.5,-27 h -0.1 v 26.4 h 4 v 0.6 h -8.5 z"
   id="path231"
   inkscape:connector-curvature="0" />
	<path
   d="m 328.4,93.8 h 3.2 l 9.7,-28.2 h 0.9 l 9.7,28.2 h 3.2 v 0.6 h -11 v -0.6 h 4 l -3.8,-11 H 336 l -3.8,11 h 4 v 0.6 h -7.7 v -0.6 z m 11.7,-23 -3.9,11.5 h 7.9 z"
   id="path233"
   inkscape:connector-curvature="0" />
	<path
   d="m 358.6,93.8 h 4 v -27 h -4 v -0.6 h 6.8 c 0.3,0 0.6,0 0.9,0 0.3,0 0.6,0 0.9,-0.1 0.3,0 0.6,0 0.9,0 0.3,0 0.6,0 0.9,0 1.4,0 2.7,0.1 3.7,0.3 1.1,0.2 2.1,0.7 3,1.5 0.8,0.7 1.4,1.5 1.8,2.4 0.3,0.9 0.5,1.7 0.5,2.5 0,0.4 -0.1,0.9 -0.2,1.5 -0.1,0.6 -0.4,1.2 -0.9,1.9 -0.4,0.6 -1.1,1.2 -1.9,1.8 -0.8,0.5 -1.9,0.9 -3.3,1.1 v 0.1 c 0.4,0.1 0.9,0.2 1.6,0.3 0.7,0.1 1.3,0.4 2,0.7 0.7,0.3 1.3,0.8 1.9,1.4 0.6,0.6 1,1.3 1.2,2.2 0.1,0.5 0.2,1.1 0.3,1.8 0.1,0.7 0.1,1.4 0.1,2.1 0,0.7 0.1,1.4 0.1,2 0,0.7 0.1,1.2 0.2,1.7 0.1,0.7 0.4,1.3 0.7,1.9 0.3,0.6 0.8,0.8 1.5,0.8 0.3,0 0.6,-0.1 1,-0.2 0.3,-0.1 0.6,-0.3 0.9,-0.6 l 0.3,0.4 c -0.1,0.1 -0.3,0.2 -0.4,0.3 -0.2,0.1 -0.4,0.2 -0.6,0.3 -0.2,0.1 -0.5,0.2 -0.9,0.3 -0.3,0.1 -0.8,0.1 -1.3,0.1 -1,0 -1.8,-0.1 -2.4,-0.4 -0.6,-0.3 -1.1,-0.7 -1.5,-1.2 -0.4,-0.5 -0.7,-1.1 -0.8,-1.9 -0.2,-0.7 -0.3,-1.6 -0.4,-2.6 L 374.9,85 c -0.1,-1.3 -0.3,-2.3 -0.7,-3.1 -0.4,-0.7 -0.8,-1.3 -1.3,-1.6 -0.5,-0.3 -1,-0.5 -1.6,-0.6 -0.5,-0.1 -1,-0.1 -1.4,-0.1 h -3.6 v 14.2 h 4 v 0.6 H 358.8 V 93.8 Z M 366.1,79 h 3.3 c 0.7,0 1.3,-0.1 1.8,-0.3 0.5,-0.2 1,-0.5 1.4,-1 0.4,-0.5 0.7,-1.1 0.9,-1.9 0.2,-0.8 0.3,-1.8 0.3,-3 0,-1.4 -0.2,-2.5 -0.5,-3.3 -0.3,-0.8 -0.7,-1.5 -1.3,-1.9 -0.5,-0.4 -1.1,-0.7 -1.7,-0.8 -0.6,-0.1 -1.3,-0.2 -1.9,-0.2 -0.4,0 -0.9,0 -1.3,0 -0.4,0 -0.8,0 -1.1,0.1 V 79 Z"
   id="path235"
   inkscape:connector-curvature="0" />
	<path
   d="m 386.9,93.8 h 4 v -27 h -4 v -0.6 h 11.2 v 0.6 h -3.7 v 12.5 h 0.4 L 405.6,66.8 H 402 v -0.6 h 7.4 v 0.6 h -3 l -9.1,10.6 13,16.4 h 2.4 v 0.6 h -10.4 v -0.6 h 3.2 L 394.8,79.9 h -0.3 v 13.9 h 3.7 v 0.6 H 387 v -0.6 z"
   id="path237"
   inkscape:connector-curvature="0" />
</g>
<g
   id="g245"
   transform="translate(-295.02573,-64.51115)">
	<path
   d="m 424.1,93.8 h 3.2 L 437,65.6 h 0.9 l 9.7,28.2 h 3.2 v 0.6 h -11 v -0.6 h 4 l -3.8,-11 h -8.3 l -3.8,11 h 4 v 0.6 h -7.7 v -0.6 z m 11.7,-23 -3.9,11.5 h 7.9 z"
   id="path241"
   inkscape:connector-curvature="0" />
	<path
   d="m 454.3,93.8 h 4 v -27 h -4 v -0.6 h 11.5 v 0.6 h -4 v 27 h 6.4 c 2.1,0 3.8,-0.7 4.9,-2.2 1.2,-1.4 2.1,-3.4 2.6,-5.9 h 0.4 v 8.6 h -21.9 v -0.5 z"
   id="path243"
   inkscape:connector-curvature="0" />
</g>
<g
   id="g251"
   transform="translate(-295.02573,-64.51115)">
	<path
   d="m 480.5,93.8 h 4 v -27 h -4 V 66.2 H 501 V 73 h -0.4 c -0.3,-1 -0.6,-1.9 -1,-2.7 -0.4,-0.8 -0.8,-1.4 -1.3,-2 -0.5,-0.5 -1.1,-0.9 -1.8,-1.2 -0.7,-0.3 -1.5,-0.4 -2.5,-0.4 h -5.9 V 79 h 2.3 c 0.8,0 1.5,-0.1 2,-0.2 0.5,-0.2 1,-0.5 1.4,-0.9 0.4,-0.4 0.7,-1 1,-1.8 0.3,-0.7 0.5,-1.7 0.8,-2.9 h 0.4 v 12.3 h -0.4 c -0.2,-0.8 -0.3,-1.5 -0.5,-2.2 -0.2,-0.7 -0.4,-1.3 -0.8,-1.9 -0.3,-0.6 -0.8,-1 -1.3,-1.3 -0.5,-0.3 -1.2,-0.5 -2.1,-0.5 H 488 v 14.2 h 6.8 c 1.3,0 2.4,-0.3 3.3,-0.9 0.9,-0.6 1.6,-1.4 2.1,-2.2 0.5,-0.9 1,-1.7 1.2,-2.7 0.3,-0.9 0.4,-1.7 0.5,-2.3 h 0.4 v 8.6 h -21.9 v -0.5 z"
   id="path247"
   inkscape:connector-curvature="0" />
	<path
   d="m 507,93.8 h 3.4 L 517.6,80.6 510,66.8 h -3 v -0.6 h 10.7 v 0.6 h -3.4 l 5.7,10.4 5.7,-10.4 h -3.4 v -0.6 h 7.5 v 0.6 h -3.4 l -6,10.9 8.9,16 h 3 v 0.6 h -10.7 v -0.6 h 3.4 l -7,-12.6 -7,12.7 h 3.4 v 0.6 H 507 Z"
   id="path249"
   inkscape:connector-curvature="0" />
</g>
<g
   id="g257"
   transform="translate(-295.02573,-64.51115)">
	<path
   d="m 535.7,93.8 h 3.2 l 9.7,-28.2 h 0.9 l 9.7,28.2 h 3.2 v 0.6 h -11 v -0.6 h 4 l -3.8,-11 h -8.3 l -3.8,11 h 4 v 0.6 h -7.7 v -0.6 z m 11.6,-23 -3.9,11.5 h 7.9 z"
   id="path253"
   inkscape:connector-curvature="0" />
	<path
   d="m 565.7,93.8 h 4 v -27 h -4 v -0.6 h 7.7 l 12.1,21.5 h 0.1 V 66.8 h -4 v -0.6 h 8.5 v 0.6 h -4 v 28.1 h -0.7 L 570.3,68.5 h -0.1 v 25.3 h 4 v 0.6 h -8.5 z"
   id="path255"
   inkscape:connector-curvature="0" />
</g>
<g
   id="g263"
   transform="translate(-295.02573,-64.51115)">
	<path
   d="m 594,93.8 h 4 v -27 h -4 v -0.6 h 6.7 c 0.3,0 0.7,0 1,0 0.3,0 0.7,0 1,-0.1 0.3,0 0.7,0 1,0 0.3,0 0.7,0 1,0 0.7,0 1.4,0 1.9,0 0.6,0 1.1,0.1 1.6,0.1 0.5,0.1 1,0.2 1.4,0.3 0.4,0.1 0.9,0.3 1.4,0.5 1.5,0.5 2.7,1.2 3.8,2.1 1.1,0.9 1.9,1.9 2.6,3.1 0.7,1.2 1.2,2.4 1.5,3.8 0.3,1.4 0.5,2.8 0.5,4.3 0,1.7 -0.2,3.3 -0.6,4.7 -0.4,1.4 -0.9,2.6 -1.6,3.7 -0.7,1.1 -1.5,2 -2.3,2.8 -0.9,0.8 -1.9,1.4 -2.9,1.9 -0.6,0.3 -1.1,0.5 -1.6,0.7 -0.5,0.2 -1,0.3 -1.6,0.4 -0.5,0.1 -1.1,0.1 -1.8,0.2 -0.6,0 -1.4,0 -2.2,0 -0.4,0 -0.7,0 -1.1,0 -0.4,0 -0.8,0 -1.2,-0.1 -0.4,0 -0.8,0 -1.2,-0.1 -0.4,0 -0.8,0 -1.1,0 H 594 Z m 7.5,0 c 0.4,0.1 0.9,0.1 1.4,0.1 0.5,0 1.1,0 1.8,0 0.8,0 1.6,0 2.4,-0.1 0.8,-0.1 1.6,-0.3 2.3,-0.6 0.7,-0.3 1.4,-0.7 2,-1.3 0.6,-0.6 1.2,-1.3 1.7,-2.2 0.8,-1.4 1.3,-2.9 1.6,-4.4 0.3,-1.5 0.4,-3.1 0.4,-4.9 0,-2.1 -0.2,-4 -0.5,-5.7 -0.4,-1.7 -0.9,-3.1 -1.8,-4.3 -0.8,-1.2 -1.9,-2.1 -3.3,-2.8 -1.4,-0.7 -3,-1 -5.1,-1 -0.6,0 -1.1,0 -1.6,0 -0.5,0 -1,0.1 -1.4,0.1 v 27.1 z"
   id="path259"
   inkscape:connector-curvature="0" />
	<path
   d="m 622.9,93.8 h 4 v -27 h -4 v -0.6 h 20.5 V 73 H 643 c -0.3,-1 -0.6,-1.9 -1,-2.7 -0.4,-0.8 -0.8,-1.4 -1.3,-2 -0.5,-0.5 -1.1,-0.9 -1.8,-1.2 -0.7,-0.3 -1.5,-0.4 -2.5,-0.4 h -5.9 V 79 h 2.3 c 0.8,0 1.5,-0.1 2,-0.2 0.5,-0.2 1,-0.5 1.4,-0.9 0.4,-0.4 0.7,-1 1,-1.8 0.3,-0.7 0.5,-1.7 0.8,-2.9 h 0.4 V 85.5 H 638 c -0.2,-0.8 -0.3,-1.5 -0.5,-2.2 -0.2,-0.7 -0.4,-1.3 -0.8,-1.9 -0.3,-0.6 -0.8,-1 -1.3,-1.3 -0.5,-0.3 -1.2,-0.5 -2.1,-0.5 h -2.9 v 14.2 h 6.8 c 1.3,0 2.4,-0.3 3.3,-0.9 0.9,-0.6 1.6,-1.4 2.1,-2.2 0.5,-0.9 1,-1.7 1.2,-2.7 0.3,-0.9 0.4,-1.7 0.5,-2.3 h 0.4 v 8.6 h -21.9 v -0.5 z"
   id="path261"
   inkscape:connector-curvature="0" />
</g>
<g
   id="g267"
   transform="translate(-295.02573,-64.51115)">
	<path
   d="m 649.4,93.8 h 4 v -27 h -4 v -0.6 h 6.8 c 0.3,0 0.6,0 0.9,0 0.3,0 0.6,0 0.9,-0.1 0.3,0 0.6,0 0.9,0 0.3,0 0.6,0 0.9,0 1.4,0 2.7,0.1 3.7,0.3 1.1,0.2 2.1,0.7 3,1.5 0.8,0.7 1.4,1.5 1.8,2.4 0.3,0.9 0.5,1.7 0.5,2.5 0,0.4 -0.1,0.9 -0.2,1.5 -0.1,0.6 -0.4,1.2 -0.9,1.9 -0.4,0.6 -1.1,1.2 -1.9,1.8 -0.8,0.5 -1.9,0.9 -3.3,1.1 v 0.1 c 0.4,0.1 0.9,0.2 1.6,0.3 0.7,0.1 1.3,0.4 2,0.7 0.7,0.3 1.3,0.8 1.9,1.4 0.6,0.6 1,1.3 1.2,2.2 0.1,0.5 0.2,1.1 0.3,1.8 0.1,0.7 0.1,1.4 0.1,2.1 0,0.7 0.1,1.4 0.1,2 0,0.7 0.1,1.2 0.2,1.7 0.1,0.7 0.4,1.3 0.7,1.9 0.3,0.6 0.8,0.8 1.5,0.8 0.3,0 0.6,-0.1 1,-0.2 0.3,-0.1 0.6,-0.3 0.9,-0.6 l 0.3,0.4 c -0.1,0.1 -0.3,0.2 -0.4,0.3 -0.2,0.1 -0.4,0.2 -0.6,0.3 -0.2,0.1 -0.5,0.2 -0.9,0.3 -0.3,0.1 -0.8,0.1 -1.3,0.1 -1,0 -1.8,-0.1 -2.4,-0.4 -0.6,-0.3 -1.1,-0.7 -1.5,-1.2 -0.4,-0.5 -0.7,-1.1 -0.8,-1.9 -0.2,-0.7 -0.3,-1.6 -0.4,-2.6 L 665.7,85 c -0.1,-1.3 -0.3,-2.3 -0.7,-3.1 -0.4,-0.7 -0.8,-1.3 -1.3,-1.6 -0.5,-0.3 -1,-0.5 -1.6,-0.6 -0.5,-0.1 -1,-0.1 -1.4,-0.1 H 657 v 14.2 h 4 v 0.6 H 649.5 V 93.8 Z M 657,79 h 3.3 c 0.7,0 1.3,-0.1 1.8,-0.3 0.5,-0.2 1,-0.5 1.4,-1 0.4,-0.5 0.7,-1.1 0.9,-1.9 0.2,-0.8 0.3,-1.8 0.3,-3 0,-1.4 -0.2,-2.5 -0.5,-3.3 -0.3,-0.8 -0.7,-1.5 -1.3,-1.9 -0.5,-0.4 -1.1,-0.7 -1.7,-0.8 -0.6,-0.1 -1.3,-0.2 -1.9,-0.2 -0.4,0 -0.9,0 -1.3,0 -0.4,0 -0.8,0 -1.1,0.1 V 79 Z"
   id="path265"
   inkscape:connector-curvature="0" />
</g>
<g
   id="g307"
   transform="translate(-295.02573,-64.51115)">
	<g
   id="g277">
		<path
   class="st0"
   d="m 295.7,93.8 h 4 v -27 h -4 v -0.6 h 8.1 l 6.6,21.2 h 0.1 l 6.6,-21.2 h 7.9 v 0.6 h -4 v 27 h 4 v 0.6 h -11.5 v -0.6 h 4 V 67.1 h -0.1 l -8.6,27.3 -8.5,-27 h -0.1 v 26.4 h 4 v 0.6 h -8.5 z"
   id="path269"
   inkscape:connector-curvature="0"
   style="fill:none;stroke:#000000;stroke-width:0.53860003;stroke-miterlimit:2.11730003" />
		<path
   class="st0"
   d="m 328.4,93.8 h 3.2 l 9.7,-28.2 h 0.9 l 9.7,28.2 h 3.2 v 0.6 h -11 v -0.6 h 4 l -3.8,-11 H 336 l -3.8,11 h 4 v 0.6 h -7.7 v -0.6 z m 11.7,-23 -3.9,11.5 h 7.9 z"
   id="path271"
   inkscape:connector-curvature="0"
   style="fill:none;stroke:#000000;stroke-width:0.53860003;stroke-miterlimit:2.11730003" />
		<path
   class="st0"
   d="m 358.6,93.8 h 4 v -27 h -4 v -0.6 h 6.8 c 0.3,0 0.6,0 0.9,0 0.3,0 0.6,0 0.9,-0.1 0.3,0 0.6,0 0.9,0 0.3,0 0.6,0 0.9,0 1.4,0 2.7,0.1 3.7,0.3 1.1,0.2 2.1,0.7 3,1.5 0.8,0.7 1.4,1.5 1.8,2.4 0.3,0.9 0.5,1.7 0.5,2.5 0,0.4 -0.1,0.9 -0.2,1.5 -0.1,0.6 -0.4,1.2 -0.9,1.9 -0.4,0.6 -1.1,1.2 -1.9,1.8 -0.8,0.5 -1.9,0.9 -3.3,1.1 v 0.1 c 0.4,0.1 0.9,0.2 1.6,0.3 0.7,0.1 1.3,0.4 2,0.7 0.7,0.3 1.3,0.8 1.9,1.4 0.6,0.6 1,1.3 1.2,2.2 0.1,0.5 0.2,1.1 0.3,1.8 0.1,0.7 0.1,1.4 0.1,2.1 0,0.7 0.1,1.4 0.1,2 0,0.7 0.1,1.2 0.2,1.7 0.1,0.7 0.4,1.3 0.7,1.9 0.3,0.6 0.8,0.8 1.5,0.8 0.3,0 0.6,-0.1 1,-0.2 0.3,-0.1 0.6,-0.3 0.9,-0.6 l 0.3,0.4 c -0.1,0.1 -0.3,0.2 -0.4,0.3 -0.2,0.1 -0.4,0.2 -0.6,0.3 -0.2,0.1 -0.5,0.2 -0.9,0.3 -0.3,0.1 -0.8,0.1 -1.3,0.1 -1,0 -1.8,-0.1 -2.4,-0.4 -0.6,-0.3 -1.1,-0.7 -1.5,-1.2 -0.4,-0.5 -0.7,-1.1 -0.8,-1.9 -0.2,-0.7 -0.3,-1.6 -0.4,-2.6 L 374.9,85 c -0.1,-1.3 -0.3,-2.3 -0.7,-3.1 -0.4,-0.7 -0.8,-1.3 -1.3,-1.6 -0.5,-0.3 -1,-0.5 -1.6,-0.6 -0.5,-0.1 -1,-0.1 -1.4,-0.1 h -3.6 v 14.2 h 4 v 0.6 H 358.8 V 93.8 Z M 366.1,79 h 3.3 c 0.7,0 1.3,-0.1 1.8,-0.3 0.5,-0.2 1,-0.5 1.4,-1 0.4,-0.5 0.7,-1.1 0.9,-1.9 0.2,-0.8 0.3,-1.8 0.3,-3 0,-1.4 -0.2,-2.5 -0.5,-3.3 -0.3,-0.8 -0.7,-1.5 -1.3,-1.9 -0.5,-0.4 -1.1,-0.7 -1.7,-0.8 -0.6,-0.1 -1.3,-0.2 -1.9,-0.2 -0.4,0 -0.9,0 -1.3,0 -0.4,0 -0.8,0 -1.1,0.1 V 79 Z"
   id="path273"
   inkscape:connector-curvature="0"
   style="fill:none;stroke:#000000;stroke-width:0.53860003;stroke-miterlimit:2.11730003" />
		<path
   class="st0"
   d="m 386.9,93.8 h 4 v -27 h -4 v -0.6 h 11.2 v 0.6 h -3.7 v 12.5 h 0.4 L 405.6,66.8 H 402 v -0.6 h 7.4 v 0.6 h -3 l -9.1,10.6 13,16.4 h 2.4 v 0.6 h -10.4 v -0.6 h 3.2 L 394.8,79.9 h -0.3 v 13.9 h 3.7 v 0.6 H 387 v -0.6 z"
   id="path275"
   inkscape:connector-curvature="0"
   style="fill:none;stroke:#000000;stroke-width:0.53860003;stroke-miterlimit:2.11730003" />
	</g>
	<g
   id="g283">
		<path
   class="st0"
   d="m 424.1,93.8 h 3.2 L 437,65.6 h 0.9 l 9.7,28.2 h 3.2 v 0.6 h -11 v -0.6 h 4 l -3.8,-11 h -8.3 l -3.8,11 h 4 v 0.6 h -7.7 v -0.6 z m 11.7,-23 -3.9,11.5 h 7.9 z"
   id="path279"
   inkscape:connector-curvature="0"
   style="fill:none;stroke:#000000;stroke-width:0.53860003;stroke-miterlimit:2.11730003" />
		<path
   class="st0"
   d="m 454.3,93.8 h 4 v -27 h -4 v -0.6 h 11.5 v 0.6 h -4 v 27 h 6.4 c 2.1,0 3.8,-0.7 4.9,-2.2 1.2,-1.4 2.1,-3.4 2.6,-5.9 h 0.4 v 8.6 h -21.9 v -0.5 z"
   id="path281"
   inkscape:connector-curvature="0"
   style="fill:none;stroke:#000000;stroke-width:0.53860003;stroke-miterlimit:2.11730003" />
	</g>
	<g
   id="g289">
		<path
   class="st0"
   d="m 480.5,93.8 h 4 v -27 h -4 V 66.2 H 501 V 73 h -0.4 c -0.3,-1 -0.6,-1.9 -1,-2.7 -0.4,-0.8 -0.8,-1.4 -1.3,-2 -0.5,-0.5 -1.1,-0.9 -1.8,-1.2 -0.7,-0.3 -1.5,-0.4 -2.5,-0.4 h -5.9 V 79 h 2.3 c 0.8,0 1.5,-0.1 2,-0.2 0.5,-0.2 1,-0.5 1.4,-0.9 0.4,-0.4 0.7,-1 1,-1.8 0.3,-0.7 0.5,-1.7 0.8,-2.9 h 0.4 v 12.3 h -0.4 c -0.2,-0.8 -0.3,-1.5 -0.5,-2.2 -0.2,-0.7 -0.4,-1.3 -0.8,-1.9 -0.3,-0.6 -0.8,-1 -1.3,-1.3 -0.5,-0.3 -1.2,-0.5 -2.1,-0.5 H 488 v 14.2 h 6.8 c 1.3,0 2.4,-0.3 3.3,-0.9 0.9,-0.6 1.6,-1.4 2.1,-2.2 0.5,-0.9 1,-1.7 1.2,-2.7 0.3,-0.9 0.4,-1.7 0.5,-2.3 h 0.4 v 8.6 h -21.9 v -0.5 z"
   id="path285"
   inkscape:connector-curvature="0"
   style="fill:none;stroke:#000000;stroke-width:0.53860003;stroke-miterlimit:2.11730003" />
		<path
   class="st0"
   d="m 507,93.8 h 3.4 L 517.6,80.6 510,66.8 h -3 v -0.6 h 10.7 v 0.6 h -3.4 l 5.7,10.4 5.7,-10.4 h -3.4 v -0.6 h 7.5 v 0.6 h -3.4 l -6,10.9 8.9,16 h 3 v 0.6 h -10.7 v -0.6 h 3.4 l -7,-12.6 -7,12.7 h 3.4 v 0.6 H 507 Z"
   id="path287"
   inkscape:connector-curvature="0"
   style="fill:none;stroke:#000000;stroke-width:0.53860003;stroke-miterlimit:2.11730003" />
	</g>
	<g
   id="g295">
		<path
   class="st0"
   d="m 535.7,93.8 h 3.2 l 9.7,-28.2 h 0.9 l 9.7,28.2 h 3.2 v 0.6 h -11 v -0.6 h 4 l -3.8,-11 h -8.3 l -3.8,11 h 4 v 0.6 h -7.7 v -0.6 z m 11.6,-23 -3.9,11.5 h 7.9 z"
   id="path291"
   inkscape:connector-curvature="0"
   style="fill:none;stroke:#000000;stroke-width:0.53860003;stroke-miterlimit:2.11730003" />
		<path
   class="st0"
   d="m 565.7,93.8 h 4 v -27 h -4 v -0.6 h 7.7 l 12.1,21.5 h 0.1 V 66.8 h -4 v -0.6 h 8.5 v 0.6 h -4 v 28.1 h -0.7 L 570.3,68.5 h -0.1 v 25.3 h 4 v 0.6 h -8.5 z"
   id="path293"
   inkscape:connector-curvature="0"
   style="fill:none;stroke:#000000;stroke-width:0.53860003;stroke-miterlimit:2.11730003" />
	</g>
	<g
   id="g301">
		<path
   class="st0"
   d="m 594,93.8 h 4 v -27 h -4 v -0.6 h 6.7 c 0.3,0 0.7,0 1,0 0.3,0 0.7,0 1,-0.1 0.3,0 0.7,0 1,0 0.3,0 0.7,0 1,0 0.7,0 1.4,0 1.9,0 0.6,0 1.1,0.1 1.6,0.1 0.5,0.1 1,0.2 1.4,0.3 0.4,0.1 0.9,0.3 1.4,0.5 1.5,0.5 2.7,1.2 3.8,2.1 1.1,0.9 1.9,1.9 2.6,3.1 0.7,1.2 1.2,2.4 1.5,3.8 0.3,1.4 0.5,2.8 0.5,4.3 0,1.7 -0.2,3.3 -0.6,4.7 -0.4,1.4 -0.9,2.6 -1.6,3.7 -0.7,1.1 -1.5,2 -2.3,2.8 -0.9,0.8 -1.9,1.4 -2.9,1.9 -0.6,0.3 -1.1,0.5 -1.6,0.7 -0.5,0.2 -1,0.3 -1.6,0.4 -0.5,0.1 -1.1,0.1 -1.8,0.2 -0.6,0 -1.4,0 -2.2,0 -0.4,0 -0.7,0 -1.1,0 -0.4,0 -0.8,0 -1.2,-0.1 -0.4,0 -0.8,0 -1.2,-0.1 -0.4,0 -0.8,0 -1.1,0 H 594 Z m 7.5,0 c 0.4,0.1 0.9,0.1 1.4,0.1 0.5,0 1.1,0 1.8,0 0.8,0 1.6,0 2.4,-0.1 0.8,-0.1 1.6,-0.3 2.3,-0.6 0.7,-0.3 1.4,-0.7 2,-1.3 0.6,-0.6 1.2,-1.3 1.7,-2.2 0.8,-1.4 1.3,-2.9 1.6,-4.4 0.3,-1.5 0.4,-3.1 0.4,-4.9 0,-2.1 -0.2,-4 -0.5,-5.7 -0.4,-1.7 -0.9,-3.1 -1.8,-4.3 -0.8,-1.2 -1.9,-2.1 -3.3,-2.8 -1.4,-0.7 -3,-1 -5.1,-1 -0.6,0 -1.1,0 -1.6,0 -0.5,0 -1,0.1 -1.4,0.1 v 27.1 z"
   id="path297"
   inkscape:connector-curvature="0"
   style="fill:none;stroke:#000000;stroke-width:0.53860003;stroke-miterlimit:2.11730003" />
		<path
   class="st0"
   d="m 622.9,93.8 h 4 v -27 h -4 v -0.6 h 20.5 V 73 H 643 c -0.3,-1 -0.6,-1.9 -1,-2.7 -0.4,-0.8 -0.8,-1.4 -1.3,-2 -0.5,-0.5 -1.1,-0.9 -1.8,-1.2 -0.7,-0.3 -1.5,-0.4 -2.5,-0.4 h -5.9 V 79 h 2.3 c 0.8,0 1.5,-0.1 2,-0.2 0.5,-0.2 1,-0.5 1.4,-0.9 0.4,-0.4 0.7,-1 1,-1.8 0.3,-0.7 0.5,-1.7 0.8,-2.9 h 0.4 V 85.5 H 638 c -0.2,-0.8 -0.3,-1.5 -0.5,-2.2 -0.2,-0.7 -0.4,-1.3 -0.8,-1.9 -0.3,-0.6 -0.8,-1 -1.3,-1.3 -0.5,-0.3 -1.2,-0.5 -2.1,-0.5 h -2.9 v 14.2 h 6.8 c 1.3,0 2.4,-0.3 3.3,-0.9 0.9,-0.6 1.6,-1.4 2.1,-2.2 0.5,-0.9 1,-1.7 1.2,-2.7 0.3,-0.9 0.4,-1.7 0.5,-2.3 h 0.4 v 8.6 h -21.9 v -0.5 z"
   id="path299"
   inkscape:connector-curvature="0"
   style="fill:none;stroke:#000000;stroke-width:0.53860003;stroke-miterlimit:2.11730003" />
	</g>
	<g
   id="g305">
		<path
   class="st0"
   d="m 649.4,93.8 h 4 v -27 h -4 v -0.6 h 6.8 c 0.3,0 0.6,0 0.9,0 0.3,0 0.6,0 0.9,-0.1 0.3,0 0.6,0 0.9,0 0.3,0 0.6,0 0.9,0 1.4,0 2.7,0.1 3.7,0.3 1.1,0.2 2.1,0.7 3,1.5 0.8,0.7 1.4,1.5 1.8,2.4 0.3,0.9 0.5,1.7 0.5,2.5 0,0.4 -0.1,0.9 -0.2,1.5 -0.1,0.6 -0.4,1.2 -0.9,1.9 -0.4,0.6 -1.1,1.2 -1.9,1.8 -0.8,0.5 -1.9,0.9 -3.3,1.1 v 0.1 c 0.4,0.1 0.9,0.2 1.6,0.3 0.7,0.1 1.3,0.4 2,0.7 0.7,0.3 1.3,0.8 1.9,1.4 0.6,0.6 1,1.3 1.2,2.2 0.1,0.5 0.2,1.1 0.3,1.8 0.1,0.7 0.1,1.4 0.1,2.1 0,0.7 0.1,1.4 0.1,2 0,0.7 0.1,1.2 0.2,1.7 0.1,0.7 0.4,1.3 0.7,1.9 0.3,0.6 0.8,0.8 1.5,0.8 0.3,0 0.6,-0.1 1,-0.2 0.3,-0.1 0.6,-0.3 0.9,-0.6 l 0.3,0.4 c -0.1,0.1 -0.3,0.2 -0.4,0.3 -0.2,0.1 -0.4,0.2 -0.6,0.3 -0.2,0.1 -0.5,0.2 -0.9,0.3 -0.3,0.1 -0.8,0.1 -1.3,0.1 -1,0 -1.8,-0.1 -2.4,-0.4 -0.6,-0.3 -1.1,-0.7 -1.5,-1.2 -0.4,-0.5 -0.7,-1.1 -0.8,-1.9 -0.2,-0.7 -0.3,-1.6 -0.4,-2.6 L 665.7,85 c -0.1,-1.3 -0.3,-2.3 -0.7,-3.1 -0.4,-0.7 -0.8,-1.3 -1.3,-1.6 -0.5,-0.3 -1,-0.5 -1.6,-0.6 -0.5,-0.1 -1,-0.1 -1.4,-0.1 H 657 v 14.2 h 4 v 0.6 H 649.5 V 93.8 Z M 657,79 h 3.3 c 0.7,0 1.3,-0.1 1.8,-0.3 0.5,-0.2 1,-0.5 1.4,-1 0.4,-0.5 0.7,-1.1 0.9,-1.9 0.2,-0.8 0.3,-1.8 0.3,-3 0,-1.4 -0.2,-2.5 -0.5,-3.3 -0.3,-0.8 -0.7,-1.5 -1.3,-1.9 -0.5,-0.4 -1.1,-0.7 -1.7,-0.8 -0.6,-0.1 -1.3,-0.2 -1.9,-0.2 -0.4,0 -0.9,0 -1.3,0 -0.4,0 -0.8,0 -1.1,0.1 V 79 Z"
   id="path303"
   inkscape:connector-curvature="0"
   style="fill:none;stroke:#000000;stroke-width:0.53860003;stroke-miterlimit:2.11730003" />
	</g>
</g>








</svg>